<svg width="11" height="8" viewBox="0 0 11 8" fill="none" xmlns="http://www.w3.org/2000/svg">
<path d="M5.77158 1.11574L10.0226 5.36674C10.0925 5.43617 10.148 5.51875 10.1858 5.60971C10.2237 5.70067 10.2432 5.79822 10.2432 5.89674C10.2432 5.99527 10.2237 6.09282 10.1858 6.18378C10.148 6.27474 10.0925 6.35731 10.0226 6.42674L9.31658 7.13274C9.24715 7.20265 9.16457 7.25813 9.07361 7.29598C8.98265 7.33384 8.8851 7.35333 8.78658 7.35333C8.68805 7.35333 8.5905 7.33384 8.49954 7.29598C8.40858 7.25813 8.32601 7.20265 8.25658 7.13274L5.23958 4.11874L2.22658 7.13174C2.15715 7.20165 2.07457 7.25713 1.98361 7.29498C1.89265 7.33284 1.7951 7.35233 1.69658 7.35233C1.59805 7.35233 1.5005 7.33284 1.40954 7.29498C1.31858 7.25713 1.23601 7.20165 1.16658 7.13174L0.460575 6.42574C0.390672 6.35631 0.335194 6.27374 0.297336 6.18278C0.259478 6.09182 0.239986 5.99427 0.239986 5.89574C0.239986 5.79722 0.259478 5.69967 0.297336 5.60871C0.335194 5.51775 0.390672 5.43517 0.460575 5.36574L4.71558 1.11574C4.78466 1.04596 4.8669 0.990566 4.95753 0.952761C5.04815 0.914956 5.14538 0.895491 5.24358 0.895491C5.34177 0.895491 5.439 0.914956 5.52962 0.952761C5.62025 0.990567 5.70249 1.04596 5.77158 1.11574Z" fill="#222222"/>
</svg>
