<svg width="11" height="8" viewBox="0 0 11 8" fill="none" xmlns="http://www.w3.org/2000/svg">
<path d="M4.71085 7.13316L0.459846 2.88216C0.389943 2.81273 0.334465 2.73015 0.296606 2.63919C0.258748 2.54823 0.239258 2.45068 0.239258 2.35216C0.239258 2.25363 0.258748 2.15608 0.296606 2.06512C0.334465 1.97416 0.389943 1.89159 0.459846 1.82216L1.16585 1.11616C1.23528 1.04625 1.31785 0.990775 1.40881 0.952917C1.49977 0.915059 1.59732 0.895569 1.69585 0.895569C1.79437 0.895569 1.89192 0.915059 1.98288 0.952917C2.07384 0.990775 2.15642 1.04625 2.22585 1.11616L5.24285 4.13016L8.25585 1.11716C8.32528 1.04725 8.40785 0.991775 8.49881 0.953917C8.58977 0.916058 8.68732 0.896568 8.78585 0.896568C8.88437 0.896568 8.98192 0.916058 9.07288 0.953917C9.16384 0.991775 9.24642 1.04725 9.31585 1.11716L10.0218 1.82316C10.0918 1.89259 10.1472 1.97516 10.1851 2.06612C10.2229 2.15708 10.2424 2.25463 10.2424 2.35316C10.2424 2.45168 10.2229 2.54923 10.1851 2.64019C10.1472 2.73115 10.0918 2.81373 10.0218 2.88316L5.76685 7.13316C5.69776 7.20294 5.61552 7.25833 5.5249 7.29614C5.43427 7.33394 5.33704 7.35341 5.23885 7.35341C5.14065 7.35341 5.04343 7.33394 4.9528 7.29614C4.86217 7.25833 4.77993 7.20294 4.71085 7.13316Z" fill="#222222"/>
</svg>
