<svg width="53" height="60" viewBox="0 0 53 60" fill="none" xmlns="http://www.w3.org/2000/svg">
<path d="M30.0444 4.91829L30.0444 4.91834H30.0472H31.0697C31.1745 4.92206 31.2791 4.9047 31.3771 4.86728C31.4756 4.82968 31.5655 4.7726 31.6414 4.69948C31.7173 4.62635 31.7777 4.53867 31.8189 4.44166C31.8602 4.34466 31.8814 4.24034 31.8814 4.13493C31.8814 4.02952 31.8602 3.9252 31.8189 3.8282C31.7777 3.73119 31.7173 3.6435 31.6414 3.57038C31.5655 3.49725 31.4756 3.44018 31.3771 3.40259C31.2791 3.36516 31.1745 3.3478 31.0697 3.35152H30.0472V3.35147L30.0444 3.35157C29.8417 3.35914 29.6498 3.44499 29.5091 3.59107C29.3684 3.73714 29.2897 3.93209 29.2897 4.13493C29.2897 4.33777 29.3684 4.53271 29.5091 4.67879C29.6498 4.82487 29.8417 4.91072 30.0444 4.91829Z" fill="#3AA22B" stroke="#3AA22B" stroke-width="0.15"/>
<path d="M15.2065 4.91902L15.2065 4.91907H15.2093H26.426C26.5308 4.92279 26.6354 4.90543 26.7334 4.86801C26.8319 4.83041 26.9217 4.77334 26.9977 4.70021C27.0736 4.62708 27.134 4.53939 27.1752 4.44239C27.2164 4.34539 27.2377 4.24107 27.2377 4.13566C27.2377 4.03026 27.2164 3.92593 27.1752 3.82893C27.134 3.73193 27.0736 3.64424 26.9977 3.57111C26.9217 3.49798 26.8319 3.44091 26.7334 3.40332C26.6354 3.36589 26.5308 3.34853 26.426 3.35225H15.2093V3.3522L15.2065 3.3523C15.0038 3.35987 14.8119 3.44572 14.6712 3.5918C14.5305 3.73788 14.4519 3.93282 14.4519 4.13566C14.4519 4.3385 14.5305 4.53344 14.6712 4.67952C14.8119 4.8256 15.0038 4.91145 15.2065 4.91902Z" fill="#3AA22B" stroke="#3AA22B" stroke-width="0.15"/>
<path d="M23.1399 51.9475H23.1397C22.6367 51.9475 22.145 52.0966 21.7267 52.3761C21.3085 52.6556 20.9825 53.0528 20.79 53.5175C20.5975 53.9822 20.5471 54.4936 20.6453 54.987C20.7434 55.4803 20.9856 55.9335 21.3413 56.2892C21.697 56.6449 22.1502 56.8871 22.6435 56.9852C23.1369 57.0834 23.6483 57.033 24.113 56.8405C24.5777 56.648 24.9749 56.322 25.2544 55.9038C25.5339 55.4856 25.683 54.9938 25.683 54.4908L25.683 54.4906C25.6812 53.8167 25.4126 53.1709 24.9361 52.6944C24.4596 52.2179 23.8138 51.9493 23.1399 51.9475ZM23.1393 55.4752C22.9451 55.4763 22.755 55.4197 22.5931 55.3127C22.4311 55.2056 22.3046 55.0528 22.2296 54.8738C22.1545 54.6947 22.1343 54.4974 22.1715 54.3069C22.2087 54.1163 22.3017 53.9411 22.4386 53.8034C22.5755 53.6658 22.7501 53.5718 22.9405 53.5336C23.1308 53.4953 23.3282 53.5144 23.5077 53.5884C23.6872 53.6624 23.8406 53.7881 23.9486 53.9495C24.0566 54.1108 24.1142 54.3005 24.1143 54.4947C24.114 54.7537 24.0114 55.0021 23.8287 55.1858C23.6461 55.3695 23.3983 55.4735 23.1393 55.4752Z" fill="#3AA22B" stroke="#3AA22B" stroke-width="0.15"/>
<path d="M23.1357 9.81172L23.1356 9.81172C22.3156 9.81251 21.5142 10.0563 20.8328 10.5124C20.1513 10.9685 19.6203 11.6163 19.3069 12.374C18.9934 13.1318 18.9116 13.9654 19.0718 14.7696C19.232 15.5738 19.6269 16.3125 20.2067 16.8923C20.7866 17.4722 21.5253 17.8671 22.3295 18.0273C23.1337 18.1875 23.9673 18.1057 24.725 17.7922C25.4828 17.4788 26.1306 16.9478 26.5867 16.2663C27.0427 15.5848 27.2866 14.7835 27.2874 13.9635V13.9634C27.2871 12.8624 26.8496 11.8065 26.0711 11.028C25.2925 10.2495 24.2367 9.81199 23.1357 9.81172ZM23.1358 16.5384L23.0607 16.5383V16.5392C22.5765 16.5244 22.1058 16.3735 21.7026 16.1033C21.2786 15.819 20.9484 15.4155 20.7537 14.9436C20.5591 14.4717 20.5087 13.9527 20.6091 13.4522C20.7094 12.9517 20.9559 12.4922 21.3174 12.1318C21.6788 11.7714 22.1391 11.5262 22.6399 11.4274C23.1407 11.3285 23.6595 11.3804 24.1308 11.5765C24.6022 11.7725 25.0048 12.1039 25.2877 12.5288C25.5707 12.9536 25.7213 13.4528 25.7206 13.9633C25.7199 14.3021 25.6526 14.6374 25.5223 14.9502C25.3921 15.263 25.2015 15.547 24.9615 15.7861C24.7215 16.0253 24.4367 16.2148 24.1235 16.3438C23.8102 16.4729 23.4746 16.539 23.1358 16.5384Z" fill="#3AA22B" stroke="#3AA22B" stroke-width="0.15"/>
<path opacity="0.4" d="M22.9971 10.925L22.997 10.925C22.3891 10.9256 21.795 11.1064 21.2898 11.4445C20.7845 11.7826 20.3909 12.2629 20.1585 12.8246C19.9261 13.3864 19.8655 14.0044 19.9842 14.6006C20.103 15.1968 20.3958 15.7445 20.8257 16.1744C21.2555 16.6042 21.8032 16.897 22.3994 17.0158C22.9956 17.1345 23.6136 17.0739 24.1754 16.8415C24.7371 16.6091 25.2174 16.2155 25.5555 15.7102C25.8936 15.205 26.0744 14.6109 26.075 14.003V14.0029C26.0748 13.1866 25.7505 12.4039 25.1733 11.8267C24.5961 11.2495 23.8134 10.9252 22.9971 10.925ZM22.9225 15.8798C22.5766 15.8655 22.2408 15.756 21.9525 15.5627C21.6434 15.3556 21.4027 15.0614 21.2608 14.7174C21.1189 14.3734 21.0822 13.9951 21.1553 13.6302C21.2285 13.2654 21.4081 12.9304 21.6717 12.6677C21.9352 12.405 22.2707 12.2263 22.6357 12.1542C23.0008 12.0822 23.379 12.12 23.7226 12.2629C24.0661 12.4058 24.3596 12.6474 24.5659 12.9571C24.7721 13.2668 24.8819 13.6307 24.8814 14.0028C24.8809 14.2497 24.8318 14.4942 24.7369 14.7222C24.6419 14.9502 24.503 15.1572 24.3281 15.3316C24.1531 15.5059 23.9455 15.644 23.7172 15.7381C23.4888 15.8322 23.2442 15.8804 22.9972 15.8799L22.9225 15.8798Z" fill="#3AA22B" stroke="#3AA22B" stroke-width="0.15"/>
<path d="M29.5349 28.3929C29.654 28.3934 29.7716 28.3667 29.8788 28.3149C29.9861 28.2631 30.0801 28.1875 30.1537 28.094C30.2274 28.0004 30.2788 27.8913 30.304 27.775C30.3286 27.6614 30.3276 27.5438 30.3012 27.4308C30.2242 22.652 27.0533 18.7675 23.1353 18.7675C19.1709 18.7675 15.9763 22.7494 15.9763 27.609C15.9763 27.8169 16.0589 28.0163 16.2059 28.1633C16.3529 28.3103 16.5523 28.3929 16.7602 28.3929H29.5349ZM29.5349 28.3929L29.5352 28.3179M29.5349 28.3929H29.5352V28.3179M29.5352 28.3179C29.6429 28.3183 29.7493 28.2942 29.8462 28.2474C29.9432 28.2005 30.0282 28.1322 30.0948 28.0476C30.1614 27.963 30.2079 27.8643 30.2307 27.7591C30.2535 27.6538 30.252 27.5448 30.2264 27.4402L29.5352 28.3179ZM28.6977 26.8251H17.5758C17.8784 23.1643 20.2679 20.3344 23.1294 20.3344C25.9909 20.3344 28.3937 23.1641 28.6977 26.8251Z" fill="#3AA22B" stroke="#3AA22B" stroke-width="0.15"/>
<path opacity="0.2" d="M29.5349 29.3929C29.654 29.3934 29.7716 29.3667 29.8788 29.3149C29.9861 29.2631 30.0801 29.1875 30.1537 29.094C30.2274 29.0004 30.2788 28.8913 30.304 28.775C30.3286 28.6614 30.3276 28.5438 30.3012 28.4308C30.2242 23.652 27.0533 19.7675 23.1353 19.7675C19.1709 19.7675 15.9763 23.7494 15.9763 28.609C15.9763 28.8169 16.0589 29.0163 16.2059 29.1633C16.3529 29.3103 16.5523 29.3929 16.7602 29.3929H29.5349ZM29.5349 29.3929L29.5352 29.3179M29.5349 29.3929H29.5352V29.3179M29.5352 29.3179C29.6429 29.3183 29.7493 29.2942 29.8462 29.2474C29.9432 29.2005 30.0282 29.1322 30.0948 29.0476C30.1614 28.963 30.2079 28.8643 30.2307 28.7591C30.2535 28.6538 30.252 28.5448 30.2264 28.4402L29.5352 29.3179ZM28.6977 27.8251H17.5758C17.8784 24.1643 20.2679 21.3344 23.1294 21.3344C25.9909 21.3344 28.3937 24.1641 28.6977 27.8251Z" fill="#3AA22B" stroke="#3AA22B" stroke-width="0.15"/>
<path d="M10.0473 34.2301L10.0473 34.2301H10.0501H36.2331V34.2302L36.2359 34.2301C36.4386 34.2225 36.6305 34.1367 36.7712 33.9906C36.9119 33.8445 36.9906 33.6495 36.9906 33.4467C36.9906 33.2438 36.9119 33.0489 36.7712 32.9028C36.6305 32.7567 36.4386 32.6709 36.2359 32.6633L36.2359 32.6633H36.2331H10.0501V32.6632L10.0473 32.6633C9.84464 32.6709 9.65276 32.7567 9.51203 32.9028C9.3713 33.0489 9.29268 33.2438 9.29268 33.4467C9.29268 33.6495 9.3713 33.8445 9.51203 33.9906C9.65276 34.1367 9.84464 34.2225 10.0473 34.2301Z" fill="#3AA22B" stroke="#3AA22B" stroke-width="0.15"/>
<path opacity="0.4" d="M10.0473 35.2301L10.0473 35.2301H10.0501H36.2331V35.2302L36.2359 35.2301C36.4386 35.2225 36.6305 35.1367 36.7712 34.9906C36.9119 34.8445 36.9906 34.6495 36.9906 34.4467C36.9906 34.2438 36.9119 34.0489 36.7712 33.9028C36.6305 33.7567 36.4386 33.6709 36.2359 33.6633L36.2359 33.6633H36.2331H10.0501V33.6632L10.0473 33.6633C9.84464 33.6709 9.65276 33.7567 9.51203 33.9028C9.3713 34.0489 9.29268 34.2438 9.29268 34.4467C9.29268 34.6495 9.3713 34.8445 9.51203 34.9906C9.65276 35.1367 9.84464 35.2225 10.0473 35.2301Z" fill="#3AA22B" stroke="#3AA22B" stroke-width="0.15"/>
<path d="M10.0473 40.7293L10.0473 40.7294H10.0501H36.2331V40.7294L36.2359 40.7293C36.4386 40.7217 36.6305 40.6359 36.7712 40.4898C36.9119 40.3437 36.9906 40.1488 36.9906 39.946C36.9906 39.7431 36.9119 39.5481 36.7712 39.4021C36.6305 39.256 36.4386 39.1702 36.2359 39.1626L36.2359 39.1625H36.2331H10.0501V39.1625L10.0473 39.1626C9.84465 39.1702 9.65276 39.256 9.51203 39.4021C9.3713 39.5481 9.29268 39.7431 9.29268 39.946C9.29268 40.1488 9.3713 40.3437 9.51203 40.4898C9.65276 40.6359 9.84464 40.7217 10.0473 40.7293Z" fill="#3AA22B" stroke="#3AA22B" stroke-width="0.15"/>
<path opacity="0.4" d="M10.0473 41.7293L10.0473 41.7294H10.0501H36.2331V41.7294L36.2359 41.7293C36.4386 41.7217 36.6305 41.6359 36.7712 41.4898C36.9119 41.3437 36.9906 41.1488 36.9906 40.946C36.9906 40.7431 36.9119 40.5481 36.7712 40.4021C36.6305 40.256 36.4386 40.1702 36.2359 40.1626L36.2359 40.1625H36.2331H10.0501V40.1625L10.0473 40.1626C9.84465 40.1702 9.65276 40.256 9.51203 40.4021C9.3713 40.5481 9.29268 40.7431 9.29268 40.946C9.29268 41.1488 9.3713 41.3437 9.51203 41.4898C9.65276 41.6359 9.84464 41.7217 10.0473 41.7293Z" fill="#3AA22B" stroke="#3AA22B" stroke-width="0.15"/>
<path d="M29.6345 45.6597L29.6345 45.6596H29.6317H16.6473V45.6596L16.6445 45.6597C16.4418 45.6672 16.2499 45.7531 16.1092 45.8992C15.9685 46.0452 15.8898 46.2402 15.8898 46.443C15.8898 46.6459 15.9685 46.8408 16.1092 46.9869C16.2499 47.133 16.4418 47.2188 16.6445 47.2264L16.6445 47.2265H16.6473H29.6317V47.2265L29.6345 47.2264C29.8372 47.2188 30.029 47.133 30.1698 46.9869C30.3105 46.8408 30.3891 46.6459 30.3891 46.443C30.3891 46.2402 30.3105 46.0452 30.1698 45.8992C30.029 45.7531 29.8372 45.6672 29.6345 45.6597Z" fill="#3AA22B" stroke="#3AA22B" stroke-width="0.15"/>
<path d="M0.925 4.48807V4.48815L0.925 55.5114L0.925 55.5114C0.926329 56.7213 1.40753 57.8812 2.26303 58.7367C3.11853 59.5922 4.27846 60.0734 5.48831 60.0748H5.4884H40.7884H40.7885C41.9983 60.0734 43.1582 59.5922 44.0138 58.7367C44.8693 57.8812 45.3505 56.7213 45.3518 55.5114V55.5114V22.1196C47.1664 21.9276 48.8482 21.0751 50.076 19.7231C51.3191 18.3542 52.0078 16.5714 52.0078 14.7223C52.0078 12.8732 51.3191 11.0904 50.076 9.72155C48.8482 8.3695 47.1664 7.51701 45.3518 7.32508V4.48815V4.48807C45.3505 3.27821 44.8693 2.11829 44.0138 1.26279C43.1582 0.407288 41.9983 -0.0739156 40.7885 -0.0752441H40.7884L5.4884 -0.0752442L5.48831 -0.0752441C4.27846 -0.0739156 3.11853 0.407288 2.26303 1.26279C1.40753 2.11829 0.926329 3.27821 0.925 4.48807ZM2.49088 4.41315C2.51105 3.6462 2.82453 2.91496 3.36839 2.3711C3.92994 1.80955 4.69128 1.49361 5.48544 1.49256C5.48547 1.49256 5.4855 1.49256 5.48553 1.49256H40.7883C40.7883 1.49256 40.7883 1.49256 40.7884 1.49256C41.5825 1.4936 42.3439 1.80955 42.9054 2.3711C43.467 2.93268 43.783 3.69406 43.784 4.48825V7.32513C41.9703 7.51822 40.2899 8.37114 39.0631 9.72297C37.8211 11.0916 37.133 12.8736 37.133 14.7218C37.133 16.57 37.8211 18.352 39.0631 19.7207C40.2899 21.0725 41.9703 21.9254 43.784 22.1185V55.5113C43.783 56.3055 43.467 57.0668 42.9054 57.6284C42.3439 58.19 41.5825 58.5059 40.7883 58.507H5.48849C4.6943 58.5059 3.93293 58.19 3.37135 57.6284C2.80979 57.0668 2.49385 56.3055 2.49281 55.5114C2.49281 55.5113 2.49281 55.5113 2.49281 55.5113L2.49281 4.48815V4.41315H2.49088ZM44.5737 8.84915C45.7352 8.85012 46.8703 9.19546 47.8355 9.84152C48.8007 10.4876 49.5527 11.4053 49.9963 12.4787C50.4399 13.5521 50.5553 14.733 50.3278 15.8719C50.1003 17.0109 49.5403 18.0569 48.7184 18.8775C47.8965 19.6982 46.8497 20.2567 45.7104 20.4825C44.5711 20.7082 43.3904 20.5911 42.3177 20.1459C41.2449 19.7006 40.3283 18.9473 39.6837 17.9812C39.0391 17.015 38.6954 15.8794 38.6962 14.7179C38.6977 13.1604 39.3178 11.6672 40.4199 10.5667C41.5221 9.46616 43.0162 8.84838 44.5737 8.84915Z" fill="#3AA22B" stroke="#3AA22B" stroke-width="0.15"/>
<path opacity="0.4" d="M1.925 5.33871V5.33879L1.925 54.6612L1.925 54.6613C1.92625 55.8309 2.37975 56.9526 3.18658 57.7802C3.99347 58.6078 5.0879 59.0737 6.22986 59.075H6.22994H39.4973H39.4974C40.6393 59.0737 41.7337 58.6078 42.5406 57.7802C43.3475 56.9526 43.801 55.8309 43.8022 54.6613V54.6612V22.3845C45.5126 22.198 47.0971 21.3735 48.2539 20.0669C49.4259 18.7431 50.075 17.0193 50.075 15.2318C50.075 13.4443 49.4259 11.7205 48.2539 10.3968C47.0971 9.09012 45.5126 8.26556 43.8022 8.07908V5.33879V5.33871C43.801 4.16912 43.3475 3.04743 42.5406 2.21984C41.7337 1.39219 40.6393 0.926286 39.4974 0.925H39.4973L6.22994 0.925L6.22986 0.925C5.0879 0.926286 3.99347 1.39219 3.18658 2.21984C2.37975 3.04743 1.92625 4.16912 1.925 5.33871ZM3.40941 5.26379C3.42902 4.52338 3.72434 3.81794 4.23573 3.29339C4.7643 2.75123 5.48049 2.44655 6.22715 2.44554C6.22719 2.44554 6.22722 2.44554 6.22725 2.44554H39.4972C39.4972 2.44554 39.4972 2.44554 39.4973 2.44554C40.2439 2.44655 40.9601 2.75122 41.4887 3.29339C42.0173 3.83565 42.3151 4.57122 42.3161 5.33888V8.07913C40.6066 8.26673 39.0233 9.09171 37.8675 10.3981C36.6965 11.7217 36.0481 13.4447 36.0481 15.2313C36.0481 17.018 36.6965 18.741 37.8675 20.0645C39.0233 21.371 40.6066 22.1959 42.3161 22.3835V54.6611C42.3151 55.4288 42.0173 56.1643 41.4887 56.7066C40.9601 57.2488 40.2439 57.5535 39.4972 57.5545H6.23004C5.48335 57.5535 4.76711 57.2488 4.23852 56.7066C3.70989 56.1644 3.41215 55.4288 3.41117 54.6612C3.41117 54.6612 3.41116 54.6611 3.41116 54.6611L3.41117 5.33879V5.26379H3.40941ZM43.0647 9.55692C44.158 9.55785 45.2266 9.89128 46.1355 10.5153C47.0444 11.1393 47.7527 12.026 48.1707 13.0633C48.5887 14.1007 48.6974 15.2421 48.4831 16.343C48.2688 17.4439 47.741 18.4546 46.9669 19.2474C46.1928 20.0402 45.2072 20.5796 44.1347 20.7976C43.0622 21.0156 41.9507 20.9025 40.9408 20.4725C39.9308 20.0426 39.0675 19.3149 38.4603 18.3814C37.853 17.4478 37.5291 16.3502 37.5299 15.2276C37.5313 13.722 38.1157 12.279 39.1538 11.2158C40.1918 10.1526 41.5986 9.55617 43.0647 9.55692Z" fill="#3AA22B" stroke="#3AA22B" stroke-width="0.15"/>
</svg>
