<svg width="16" height="20" viewBox="0 0 16 20" fill="none" xmlns="http://www.w3.org/2000/svg">
<path fill-rule="evenodd" clip-rule="evenodd" d="M0.683594 1.59998V18.6312C0.684075 18.7761 0.7417 18.915 0.843894 19.0174C0.946088 19.1199 1.08455 19.1777 1.22908 19.1782H11.594V16.7176C11.5947 16.5002 11.6811 16.2919 11.8344 16.1382C11.9877 15.9845 12.1954 15.8978 12.4122 15.8971H14.868V1.59998C14.8675 1.45474 14.8096 1.31561 14.7071 1.21308C14.6045 1.11055 14.4655 1.05298 14.3207 1.05298H1.22908C1.08455 1.05346 0.946088 1.11125 0.843894 1.21372C0.7417 1.3162 0.684075 1.45506 0.683594 1.59998ZM6.70695 8.29209V3.73357C6.70743 3.58864 6.76506 3.44979 6.86725 3.34731C6.96945 3.24483 7.10791 3.18705 7.25244 3.18657H11.7985C11.943 3.18705 12.0815 3.24483 12.1837 3.34731C12.2859 3.44979 12.3435 3.58864 12.344 3.73357V8.29209C12.3435 8.43701 12.2859 8.57586 12.1837 8.67834C12.0815 8.78082 11.943 8.83861 11.7985 8.83909H7.25266C7.1081 8.83867 6.96958 8.78091 6.86733 8.67842C6.76509 8.57594 6.70743 8.43705 6.70695 8.29209Z" fill="white"/>
<path fill-rule="evenodd" clip-rule="evenodd" d="M6.70703 3.73278V8.29152C6.70751 8.43645 6.76514 8.5753 6.86733 8.67778C6.96952 8.78026 7.10799 8.83804 7.25251 8.83853H11.7986C11.9431 8.83804 12.0816 8.78026 12.1838 8.67778C12.286 8.5753 12.3436 8.43645 12.3441 8.29152V3.73278C12.3437 3.58781 12.2861 3.4489 12.1839 3.34637C12.0817 3.24385 11.9432 3.18603 11.7986 3.18555H7.25251C7.10795 3.18603 6.96945 3.24385 6.86725 3.34637C6.76505 3.4489 6.70745 3.58781 6.70703 3.73278Z" fill="#EDF5E9"/>
<path fill-rule="evenodd" clip-rule="evenodd" d="M12.412 15.8955C12.1952 15.8962 11.9875 15.9829 11.8342 16.1366C11.6809 16.2903 11.5945 16.4986 11.5938 16.716V19.1778L14.8669 15.8955H12.412Z" fill="#CEE4C3"/>
<path fill-rule="evenodd" clip-rule="evenodd" d="M14.8669 15.8955L11.5938 19.1778H14.3214C14.4659 19.1773 14.6044 19.1195 14.7066 19.017C14.8088 18.9145 14.8664 18.7757 14.8669 18.6308V15.8955Z" fill="white"/>
<path fill-rule="evenodd" clip-rule="evenodd" d="M0.683594 1.59998V18.6312C0.684075 18.7761 0.7417 18.915 0.843894 19.0174C0.946088 19.1199 1.08455 19.1777 1.22908 19.1782H2.0473C1.90278 19.1777 1.76431 19.1199 1.66212 19.0174C1.55993 18.915 1.5023 18.7761 1.50182 18.6312V1.59998C1.5023 1.45506 1.55993 1.3162 1.66212 1.21372C1.76431 1.11125 1.90278 1.05346 2.0473 1.05298H1.22908C1.08455 1.05346 0.946088 1.11125 0.843894 1.21372C0.7417 1.3162 0.684075 1.45506 0.683594 1.59998Z" fill="#CEE4C3"/>
<path fill-rule="evenodd" clip-rule="evenodd" d="M6.70703 3.73278V8.29152C6.70751 8.43645 6.76514 8.5753 6.86733 8.67778C6.96952 8.78026 7.10799 8.83804 7.25251 8.83853H8.07074C7.92622 8.83804 7.78775 8.78026 7.68556 8.67778C7.58336 8.5753 7.52574 8.43645 7.52526 8.29152V3.73278C7.52568 3.58781 7.58328 3.4489 7.68548 3.34637C7.78768 3.24385 7.92618 3.18603 8.07074 3.18555H7.25251C7.10795 3.18603 6.96945 3.24385 6.86725 3.34637C6.76505 3.4489 6.70745 3.58781 6.70703 3.73278Z" fill="#CEE4C3"/>
<path d="M14.0484 3.51528H13.5029V2.96827H14.0484V3.51528ZM14.0484 2.42127H13.5029V1.87427H14.0484V2.42127Z" fill="white"/>
<path d="M7.50293 18.9043H8.04841V19.4513H7.50293V18.9043Z" fill="#51A12C"/>
<path d="M14.3219 0.77832H1.22936C1.01243 0.778562 0.804447 0.865086 0.651052 1.01891C0.497658 1.17273 0.411374 1.38129 0.411133 1.59883V18.63C0.411374 18.8476 0.497658 19.0561 0.651052 19.2099C0.804447 19.3638 1.01243 19.4503 1.22936 19.4505H6.9574V18.9035H1.22936C1.15678 18.9035 1.08718 18.8746 1.03586 18.8232C0.984536 18.7717 0.955705 18.7019 0.955705 18.6291V1.59883C0.955705 1.52605 0.984536 1.45625 1.03586 1.40478C1.08718 1.35332 1.15678 1.32441 1.22936 1.32441H14.3219C14.3945 1.32441 14.4641 1.35332 14.5154 1.40478C14.5667 1.45625 14.5955 1.52605 14.5955 1.59883V15.6213H12.4134C12.1241 15.6216 11.8469 15.737 11.6423 15.9421C11.4378 16.1472 11.3228 16.4252 11.3224 16.7153V18.9035H8.59385V19.4505H14.3219C14.5388 19.4503 14.7468 19.3638 14.9002 19.2099C15.0536 19.0561 15.1399 18.8476 15.1401 18.63V1.59883C15.1399 1.38129 15.0536 1.17273 14.9002 1.01891C14.7468 0.865086 14.5388 0.778562 14.3219 0.77832V0.77832ZM12.4125 16.1685H14.2079L11.867 18.5166V16.7153C11.8675 16.5704 11.9252 16.4316 12.0274 16.3292C12.1295 16.2267 12.268 16.169 12.4125 16.1685ZM14.3219 18.9035H12.2528L14.5955 16.5552V18.63C14.5953 18.7026 14.5664 18.7722 14.5151 18.8235C14.4638 18.8747 14.3943 18.9035 14.3219 18.9035Z" fill="#51A12C"/>
<path d="M3.20801 5.05396H5.61731V5.60096H3.20801V5.05396Z" fill="#51A12C"/>
<path d="M3.20801 7.78906H5.61731V8.33607H3.20801V7.78906Z" fill="#51A12C"/>
<path d="M3.20801 9.93213H12.209V10.4791H3.20801V9.93213Z" fill="#51A12C"/>
<path d="M3.20801 6.42236H5.61731V6.96937H3.20801V6.42236Z" fill="#51A12C"/>
<path d="M3.20801 16.7698H10.5725V17.3168H3.20801V16.7698Z" fill="#51A12C"/>
<path d="M3.20801 15.4036H10.5725V15.9506H3.20801V15.4036Z" fill="#51A12C"/>
<path d="M7.98047 14.0352H12.2082V14.5822H7.98047V14.0352Z" fill="#CEE4C3"/>
<path d="M3.20801 12.667H12.209V13.214H3.20801V12.667Z" fill="#CEE4C3"/>
<path d="M3.20801 14.0352H7.43574V14.5822H3.20801V14.0352Z" fill="#CEE4C3"/>
<path d="M7.98047 11.3005H12.2082V11.8475H7.98047V11.3005Z" fill="#CEE4C3"/>
<path d="M3.20801 11.3005H7.43574V11.8475H3.20801V11.3005Z" fill="#CEE4C3"/>
<path d="M6.43548 6.28633V8.29209C6.43572 8.50963 6.52201 8.71819 6.6754 8.87201C6.82879 9.02583 7.03677 9.11235 7.25371 9.1126H11.7998C12.0167 9.11235 12.2247 9.02583 12.3781 8.87201C12.5315 8.71819 12.6178 8.50963 12.618 8.29209V3.73335C12.6178 3.51581 12.5315 3.30725 12.3781 3.15343C12.2247 2.99961 12.0167 2.91308 11.7998 2.91284H7.25371C7.03677 2.91308 6.82879 2.99961 6.6754 3.15343C6.52201 3.30725 6.43572 3.51581 6.43548 3.73335V5.7391H6.98097V3.73335C6.98097 3.66057 7.0098 3.59077 7.06112 3.53931C7.11244 3.48784 7.18204 3.45893 7.25462 3.45893H11.8007C11.8733 3.45893 11.9429 3.48784 11.9942 3.53931C12.0455 3.59077 12.0744 3.66057 12.0744 3.73335V8.29209C12.0744 8.36487 12.0455 8.43467 11.9942 8.48613C11.9429 8.5376 11.8733 8.56651 11.8007 8.56651H7.25371C7.18113 8.56651 7.11153 8.5376 7.06021 8.48613C7.00889 8.43467 6.98005 8.36487 6.98005 8.29209V6.28633H6.43457H6.43548Z" fill="#51A12C"/>
<path d="M8.47758 4.91698L7.56152 7.32887L8.07143 7.52347L8.28899 6.95177H9.1209L9.33617 7.52347L9.84654 7.33024L8.93823 4.91675L8.47758 4.91698ZM8.49651 6.4034L8.70654 5.85022L8.91474 6.4034H8.49651Z" fill="#51A12C"/>
<path d="M10.3433 4.36987V4.91688H9.79785V5.46388H10.3433V6.01088H10.8888V5.46388H11.4341V4.91688H10.8886V4.36987H10.3433Z" fill="#51A12C"/>
</svg>
