<svg width="52" height="62" viewBox="0 0 52 62" fill="none" xmlns="http://www.w3.org/2000/svg">
<path d="M50.4871 35.2865H50.5621V35.2115V33.1205C50.5621 32.3607 50.2602 31.632 49.723 31.0947C49.1857 30.5574 48.457 30.2556 47.6972 30.2556C46.9373 30.2556 46.2086 30.5574 45.6714 31.0947C45.1341 31.632 44.8322 32.3607 44.8322 33.1205V35.2115V35.2865H44.9072H50.4871Z" fill="white" stroke="#3AA22B" stroke-width="0.15"/>
<path d="M50.5622 38.0007V37.9257H50.4872H44.9111H44.8361V38.0007V55.424V55.444L44.846 55.4613L47.634 60.3394L47.6992 60.4533L47.7643 60.3394L50.5523 55.4613L50.5622 55.444V55.424V38.0007Z" stroke="#3AA22B" stroke-width="0.15"/>
<path d="M43.5904 1.75928V1.68428H43.5154H8.41057C6.62244 1.68428 4.90753 2.39448 3.64295 3.65869C2.37838 4.92291 1.66769 6.63763 1.66719 8.42575V8.42578V54.7262V54.8012H1.74219H40.7273H40.8023V54.7262V5.24432C40.8024 4.45829 41.074 3.69641 41.571 3.08753C42.0681 2.47864 42.7603 2.06012 43.5304 1.90274L43.5904 1.89048V1.82926V1.75928Z" stroke="#3AA22B" stroke-width="0.15"/>
<path d="M7 2C4.2 2.4 2.83333 5.5 2.5 7L2 55L40.5 54.5V7L42 2H7Z" fill="white"/>
<path d="M0.97334 8.42454V8.42441C0.976877 6.45238 1.76196 4.56217 3.15657 3.16792C4.55118 1.77366 6.44159 0.989066 8.41361 0.986035L8.41373 0.986035L43.5157 0.986035C43.7204 0.986035 43.9168 1.06737 44.0616 1.21215C44.2064 1.35693 44.2877 1.5533 44.2877 1.75804V1.82803C44.2877 1.95887 44.2545 2.08757 44.1911 2.20205C44.1277 2.31652 44.0362 2.413 43.9253 2.48244C43.8144 2.55187 43.6877 2.59198 43.557 2.59899C43.4323 2.60568 43.3078 2.58198 43.1944 2.53005L8.4138 2.53005L8.41373 2.53005M0.97334 8.42454H2.44235C2.44436 6.84162 3.07418 5.32413 4.19365 4.20501C5.31312 3.0859 6.83081 2.45655 8.41373 2.45505V2.53005M0.97334 8.42454V60.3001C0.97334 60.5048 1.05467 60.7012 1.19945 60.846C1.34423 60.9907 1.5406 61.0721 1.74535 61.0721H40.7276C40.9324 61.0721 41.1288 60.9907 41.2735 60.846C41.4183 60.7012 41.4996 60.5048 41.4996 60.3001V26.8475C41.4996 26.6427 41.4183 26.4464 41.2735 26.3016C41.1288 26.1568 40.9324 26.0755 40.7276 26.0755C40.5229 26.0755 40.3265 26.1568 40.1818 26.3016C40.037 26.4464 39.9556 26.6427 39.9556 26.8475V59.5271H2.51735L2.51735 8.42464L2.51735 8.42454M0.97334 8.42454H2.51735M8.41373 2.53005C6.8507 2.53155 5.35208 3.153 4.24668 4.25806C3.14128 5.36311 2.51936 6.86152 2.51735 8.42454M8.41373 2.53005L2.51735 8.42454" fill="#3AA22B" stroke="#3AA22B" stroke-width="0.15"/>
<path d="M48.465 26.8496V26.8493V5.24549C48.4734 4.68132 48.3696 4.1211 48.1595 3.59741C47.9494 3.07354 47.6372 2.59668 47.2411 2.19458C46.845 1.79248 46.3729 1.47316 45.8523 1.2552C45.3316 1.03725 44.7729 0.925 44.2084 0.925C43.644 0.925 43.0852 1.03725 42.5645 1.2552C42.0439 1.47316 41.5718 1.79248 41.1757 2.19458C40.7796 2.59668 40.4674 3.07354 40.2573 3.59741C40.0473 4.1211 39.9434 4.68132 39.9518 5.24549V26.8465C39.9518 27.0512 40.0332 27.2476 40.1779 27.3924C40.3227 27.5372 40.5191 27.6185 40.7238 27.6185H47.693C47.8972 27.6185 48.0931 27.5376 48.2378 27.3935C48.3824 27.2494 48.4641 27.0538 48.465 26.8496ZM46.9257 5.24493V26.0745H41.4959L41.4996 5.24495L41.4996 5.24481C41.499 4.88837 41.5688 4.53532 41.7049 4.20591C41.841 3.87649 42.0408 3.57718 42.2929 3.32515C42.5449 3.07311 42.8442 2.8733 43.1736 2.73718C43.503 2.60105 43.8561 2.5313 44.2125 2.5319L44.2127 2.5319C44.5691 2.53166 44.922 2.60167 45.2512 2.73793C45.5805 2.87418 45.8797 3.074 46.1316 3.32598C46.3836 3.57795 46.5834 3.87713 46.7197 4.20639C46.8559 4.53565 46.9259 4.88854 46.9257 5.24488V5.24493Z" fill="#3AA22B" stroke="#3AA22B" stroke-width="0.15"/>
<path d="M47.6949 61.075L47.6956 61.075C47.8304 61.0737 47.9626 61.0372 48.0789 60.969C48.1952 60.9008 48.2917 60.8034 48.3586 60.6863L48.3587 60.6863L51.1464 55.8087C51.1464 55.8086 51.1465 55.8085 51.1466 55.8084C51.2142 55.692 51.2503 55.56 51.2511 55.4253V55.4248V33.1234H51.2512L51.2511 33.1222C51.2358 32.1883 50.854 31.2979 50.1881 30.6429C49.5222 29.9879 48.6256 29.6208 47.6916 29.6208C46.7576 29.6208 45.8609 29.9879 45.1951 30.6429C44.5292 31.2979 44.1474 32.1883 44.132 33.1222L44.132 33.1222V33.1234L44.132 55.4248L44.132 55.4253C44.1329 55.5599 44.169 55.692 44.2366 55.8084C44.2366 55.8085 44.2367 55.8086 44.2367 55.8087L47.0245 60.6863L47.0245 60.6863C47.0921 60.8045 47.1897 60.9026 47.3075 60.9708C47.4252 61.0391 47.5588 61.075 47.6949 61.075ZM49.7109 55.2196L47.6949 58.7474L45.6789 55.2196V33.1234C45.6789 32.5887 45.8913 32.076 46.2693 31.6979C46.6474 31.3198 47.1602 31.1074 47.6949 31.1074C48.2296 31.1074 48.7424 31.3198 49.1204 31.6979C49.4985 32.076 49.7109 32.5887 49.7109 33.1234V55.2196Z" fill="#3AA22B" stroke="#3AA22B" stroke-width="0.15"/>
<path d="M44.9031 35.9842H50.4829C50.6876 35.9842 50.884 35.9028 51.0288 35.758C51.1736 35.6133 51.2549 35.4169 51.2549 35.2121C51.2549 35.0074 51.1736 34.811 51.0288 34.6662C50.884 34.5215 50.6876 34.4401 50.4829 34.4401H44.9031C44.6983 34.4401 44.502 34.5215 44.3572 34.6662C44.2124 34.811 44.1311 35.0074 44.1311 35.2121C44.1311 35.4169 44.2124 35.6133 44.3572 35.758C44.502 35.9028 44.6983 35.9842 44.9031 35.9842Z" fill="#3AA22B" stroke="#3AA22B" stroke-width="0.15"/>
<path d="M44.9031 38.7715H50.4829C50.6876 38.7715 50.884 38.6902 51.0288 38.5454C51.1736 38.4006 51.2549 38.2042 51.2549 37.9995C51.2549 37.7948 51.1736 37.5984 51.0288 37.4536C50.884 37.3088 50.6876 37.2275 50.4829 37.2275H44.9031C44.6983 37.2275 44.502 37.3088 44.3572 37.4536C44.2124 37.5984 44.1311 37.7947 44.1311 37.9995C44.1311 38.2042 44.2124 38.4006 44.3572 38.5454C44.502 38.6902 44.6983 38.7715 44.9031 38.7715Z" fill="#3AA22B" stroke="#3AA22B" stroke-width="0.15"/>
<path d="M1.69701 55.4986H40.7209C40.9257 55.4986 41.122 55.4172 41.2668 55.2724C41.4116 55.1277 41.4929 54.9313 41.4929 54.7265C41.4929 54.5218 41.4116 54.3254 41.2668 54.1806C41.122 54.0359 40.9257 53.9545 40.7209 53.9545H1.69701C1.49226 53.9545 1.2959 54.0359 1.15112 54.1806C1.00634 54.3254 0.925 54.5218 0.925 54.7265C0.925 54.9313 1.00634 55.1277 1.15112 55.2724C1.2959 55.4172 1.49226 55.4986 1.69701 55.4986Z" fill="#3AA22B" stroke="#3AA22B" stroke-width="0.15"/>
<path d="M6.57689 38.7215H35.8484C36.0399 38.7215 36.2235 38.6454 36.3589 38.51C36.4943 38.3746 36.5704 38.191 36.5704 37.9995C36.5704 37.808 36.4943 37.6244 36.3589 37.489C36.2235 37.3535 36.0399 37.2775 35.8484 37.2775H6.57689C6.3854 37.2775 6.20176 37.3535 6.06636 37.489C5.93095 37.6244 5.85488 37.808 5.85488 37.9995C5.85488 38.191 5.93095 38.3746 6.06636 38.51C6.20176 38.6454 6.3854 38.7215 6.57689 38.7215Z" fill="#3AA22B" stroke="#3AA22B" stroke-width="0.05"/>
<path d="M6.57689 35.2359H35.8484C36.0399 35.2359 36.2235 35.1599 36.3589 35.0244C36.4943 34.889 36.5704 34.7054 36.5704 34.5139C36.5704 34.3224 36.4943 34.1388 36.3589 34.0034C36.2235 33.868 36.0399 33.7919 35.8484 33.7919H6.57689C6.3854 33.7919 6.20176 33.868 6.06636 34.0034C5.93095 34.1388 5.85488 34.3224 5.85488 34.5139C5.85488 34.7054 5.93095 34.889 6.06636 35.0244C6.20176 35.1599 6.3854 35.2359 6.57689 35.2359Z" fill="#3AA22B" stroke="#3AA22B" stroke-width="0.05"/>
<path d="M6.57689 31.7545H35.8484C36.0399 31.7545 36.2235 31.6784 36.3589 31.543C36.4943 31.4076 36.5704 31.2239 36.5704 31.0325C36.5704 30.841 36.4943 30.6573 36.3589 30.5219C36.2235 30.3865 36.0399 30.3104 35.8484 30.3104H6.57689C6.3854 30.3104 6.20176 30.3865 6.06636 30.5219C5.93095 30.6573 5.85488 30.841 5.85488 31.0325C5.85488 31.2239 5.93095 31.4076 6.06636 31.543C6.20176 31.6784 6.3854 31.7545 6.57689 31.7545Z" fill="#3AA22B" stroke="#3AA22B" stroke-width="0.05"/>
<path d="M6.57689 28.2681H35.8484C36.0399 28.2681 36.2235 28.1921 36.3589 28.0567C36.4943 27.9213 36.5704 27.7376 36.5704 27.5461C36.5704 27.3546 36.4943 27.171 36.3589 27.0356C36.2235 26.9002 36.0399 26.8241 35.8484 26.8241H6.57689C6.3854 26.8241 6.20176 26.9002 6.06636 27.0356C5.93096 27.171 5.85488 27.3546 5.85488 27.5461C5.85488 27.7376 5.93096 27.9213 6.06636 28.0567C6.20176 28.1921 6.3854 28.2681 6.57689 28.2681Z" fill="#3AA22B" stroke="#3AA22B" stroke-width="0.05"/>
<path d="M6.57689 24.7845H35.8484C36.0399 24.7845 36.2235 24.7084 36.3589 24.573C36.4943 24.4376 36.5704 24.254 36.5704 24.0625C36.5704 23.871 36.4943 23.6874 36.3589 23.552C36.2235 23.4166 36.0399 23.3405 35.8484 23.3405H6.57689C6.3854 23.3405 6.20176 23.4166 6.06636 23.552C5.93096 23.6874 5.85488 23.871 5.85488 24.0625C5.85488 24.254 5.93096 24.4376 6.06636 24.573C6.20176 24.7084 6.3854 24.7845 6.57689 24.7845Z" fill="#3AA22B" stroke="#3AA22B" stroke-width="0.05"/>
<path d="M6.57689 21.2982H35.8484C36.0399 21.2982 36.2235 21.2221 36.3589 21.0867C36.4943 20.9513 36.5704 20.7676 36.5704 20.5762C36.5704 20.3847 36.4943 20.201 36.3589 20.0656C36.2235 19.9302 36.0399 19.8542 35.8484 19.8542H6.57689C6.3854 19.8542 6.20176 19.9302 6.06636 20.0656C5.93096 20.201 5.85488 20.3847 5.85488 20.5762C5.85488 20.7676 5.93096 20.9513 6.06636 21.0867C6.20176 21.2221 6.3854 21.2982 6.57689 21.2982Z" fill="#3AA22B" stroke="#3AA22B" stroke-width="0.05"/>
<path d="M6.57689 17.8138H35.8484C36.0399 17.8138 36.2235 17.7377 36.3589 17.6023C36.4943 17.4669 36.5704 17.2833 36.5704 17.0918C36.5704 16.9003 36.4943 16.7167 36.3589 16.5813C36.2235 16.4458 36.0399 16.3698 35.8484 16.3698H6.57689C6.3854 16.3698 6.20176 16.4458 6.06636 16.5813C5.93096 16.7167 5.85488 16.9003 5.85488 17.0918C5.85488 17.2833 5.93096 17.4669 6.06636 17.6023C6.20176 17.7377 6.3854 17.8138 6.57689 17.8138Z" fill="#3AA22B" stroke="#3AA22B" stroke-width="0.05"/>
<path d="M6.57689 14.3299H21.2122C21.307 14.3299 21.4009 14.3112 21.4885 14.2749C21.5761 14.2387 21.6557 14.1855 21.7227 14.1184C21.7897 14.0514 21.8429 13.9718 21.8792 13.8842C21.9155 13.7966 21.9342 13.7027 21.9342 13.6079C21.9342 13.5131 21.9155 13.4192 21.8792 13.3316C21.8429 13.244 21.7897 13.1644 21.7227 13.0974C21.6557 13.0303 21.5761 12.9771 21.4885 12.9409C21.4009 12.9046 21.307 12.8859 21.2122 12.8859H6.57689C6.48207 12.8859 6.38818 12.9046 6.30058 12.9409C6.21299 12.9771 6.1334 13.0303 6.06636 13.0974C5.99931 13.1644 5.94613 13.244 5.90985 13.3316C5.87356 13.4192 5.85488 13.5131 5.85488 13.6079C5.85488 13.7027 5.87356 13.7966 5.90985 13.8842C5.94613 13.9718 5.99931 14.0514 6.06636 14.1184C6.1334 14.1855 6.21299 14.2387 6.30058 14.2749C6.38818 14.3112 6.48207 14.3299 6.57689 14.3299Z" fill="#3AA22B" stroke="#3AA22B" stroke-width="0.05"/>
</svg>
