<svg width="17" height="15" viewBox="0 0 17 15" fill="none" xmlns="http://www.w3.org/2000/svg">
<path d="M1.92802 11.3483H6.44802V12.1243C6.60002 12.2763 6.82402 12.2763 6.97602 12.1243L7.88002 11.2123C8.00002 11.1003 8.00002 10.8443 7.84802 10.7243L6.94402 9.81232C6.79202 9.66032 6.56802 9.66032 6.41602 9.81232V10.5883H1.92802C1.77602 10.5883 1.68002 10.6923 1.68002 10.8363V11.0843C1.68002 11.2523 1.77602 11.3483 1.92802 11.3483ZM11.536 7.48432C12.696 6.77232 13.472 5.50032 13.472 4.05232C13.48 1.83632 11.672 0.0283203 9.45602 0.0283203C7.24002 0.0283203 5.44002 1.83632 5.44002 4.05232C5.44002 5.50832 6.22402 6.78032 7.37602 7.48432C5.92802 7.93232 4.67202 8.84432 3.78402 10.0683H5.94402V9.61232L6.09602 9.46032C6.27202 9.28432 6.47202 9.21232 6.72002 9.21232C6.96802 9.21232 7.17602 9.31632 7.34402 9.46032L8.24802 10.3723C8.60002 10.7243 8.60002 11.2843 8.24802 11.6043L7.32002 12.4843C7.14402 12.6603 6.94402 12.7323 6.69602 12.7323C6.60802 12.7323 6.52802 12.7083 6.44802 12.6843V12.8123C6.44802 13.0363 6.36802 13.2443 6.20002 13.3963L5.40002 14.2043C5.40002 14.2043 5.37602 14.2283 5.35202 14.2283H16.496C16.496 11.1323 14.488 8.40432 11.536 7.48432ZM9.45602 1.40432C9.30402 1.40432 9.20802 1.30032 9.20802 1.15632C9.20802 1.00432 9.31202 0.90832 9.45602 0.90832C9.60802 0.90832 9.70402 1.01232 9.70402 1.15632C9.71202 1.30832 9.60802 1.40432 9.45602 1.40432ZM10.384 1.58832C10.256 1.54032 10.184 1.38032 10.232 1.26032C10.28 1.13232 10.44 1.05232 10.56 1.10832C11.608 1.48432 12.376 2.42032 12.568 3.52432C12.648 3.95632 12.616 4.38032 12.52 4.81232C12.48 4.90832 12.376 4.98032 12.28 4.98032H12.232C12.104 4.95632 12.008 4.79632 12.056 4.67632C12.136 4.32432 12.16 3.94832 12.08 3.59632C11.92 2.66832 11.272 1.89232 10.384 1.58832ZM5.86402 12.6123L5.06402 11.8043C4.94402 11.6763 4.74402 11.6763 4.61602 11.7963L4.60802 11.8043V12.4843H0.640016C0.512016 12.5083 0.416016 12.6123 0.416016 12.7403V12.9643C0.416016 13.0843 0.512016 13.1883 0.632016 13.1883H4.60802V13.8683C4.72802 13.9963 4.92802 13.9963 5.05602 13.8763L5.06402 13.8683L5.86402 13.0603C5.99202 12.9403 5.99202 12.7403 5.86402 12.6123Z" fill="black"/>
</svg>
