<svg width="57" height="60" viewBox="0 0 57 60" fill="none" xmlns="http://www.w3.org/2000/svg">
<path d="M53.9018 42.708L52.6542 43.9502C54.1637 45.4753 55.0299 47.5246 55.0731 49.6729C55.1164 51.8213 54.3334 53.904 52.8865 55.489C51.4397 57.0741 49.44 58.0398 47.3021 58.1861C45.1642 58.3324 43.0522 57.6479 41.4041 56.2746C39.756 54.9014 38.6981 52.9446 38.45 50.8103C38.2019 48.6759 38.7825 46.5277 40.0714 44.8111C41.3603 43.0944 43.2587 41.9411 45.3728 41.5903C47.4869 41.2395 49.6545 41.7181 51.4262 42.9269L52.4162 41.4721C50.2677 40.0055 47.6387 39.4246 45.0745 39.8498C42.5103 40.275 40.2077 41.6737 38.6443 43.7557C37.081 45.8378 36.3769 48.4434 36.678 51.0321C36.9792 53.6209 38.2625 55.994 40.2618 57.6593C42.2611 59.3246 44.8229 60.1542 47.4158 59.9761C50.0088 59.798 52.4339 58.6259 54.1881 56.7028C55.9423 54.7797 56.8909 52.2533 56.8373 49.6476C56.7837 47.0419 55.7319 44.5568 53.9 42.708H53.9018Z" fill="#51A12C"/>
<path d="M17.3696 3.91992H18.9149V5.68131H17.3696V3.91992Z" fill="#51A12C"/>
<path d="M49.2071 18.6795H10.9688V20.4409H49.2071V37.5284H50.9636V3.91992H47.611V5.68131H49.2071V18.6795Z" fill="#51A12C"/>
<path d="M32.4912 3.91992H34.0365V5.68131H32.4912V3.91992Z" fill="#51A12C"/>
<path d="M46.2678 37.1535V23.7139H5.13672V49.166H34.0998V47.4046H30.5182V41.2688H38.3934V33.3716H44.5122V37.1535H46.2678ZM13.0156 47.4046H6.89322V41.2688H13.0156V47.4046ZM13.0156 39.5074H6.89322V33.3716H13.0156V39.5074ZM13.0156 31.6102H6.89322V25.4744H13.0156V31.6102ZM20.8908 47.4037H14.7685V41.2679H20.8873L20.8908 47.4037ZM20.8908 39.5065H14.7685V33.3707H20.8873L20.8908 39.5065ZM20.8908 31.6093H14.7685V25.4735H20.8873L20.8908 31.6093ZM28.7661 47.4028H22.6402V41.267H28.759L28.7661 47.4028ZM28.7661 39.5056H22.6402V33.3698H28.759L28.7661 39.5056ZM28.7661 31.6084H22.6402V25.4726H28.759L28.7661 31.6084ZM36.6414 39.5056H30.5182V33.3698H36.6369L36.6414 39.5056ZM36.6414 31.6084H30.5182V25.4726H36.6369L36.6414 31.6084ZM38.3979 31.6084V25.4726H44.5167V31.6084H38.3979Z" fill="#51A12C"/>
<path d="M45.3726 51.5209L43.3434 49.0767L41.9941 50.2036L45.1747 54.0347L52.3647 47.7291L51.2062 46.4038L45.3726 51.5209Z" fill="#51A12C"/>
<path d="M29.8559 2.21447L28.2144 0H23.1926L21.5493 2.21358V10.2413H29.8568V2.21447H29.8559ZM28.1003 8.48077H23.3058V2.79713L24.0749 1.76139H27.3321L28.1003 2.79713V8.48077Z" fill="#51A12C"/>
<path d="M44.9784 2.21358L43.3351 0H38.3142L36.6709 2.21358V10.2413H44.9784V2.21358ZM43.2219 8.48077H38.4274V2.79713L39.1965 1.76139H42.4528L43.2219 2.79713V8.48077Z" fill="#51A12C"/>
<path d="M14.7357 2.21358L13.0924 0H8.07243L6.42822 2.21358V10.2413H14.7357V2.21358ZM12.9792 8.48077H8.18472V2.79713L8.95469 1.7605H12.2101L12.9792 2.79624V8.48077Z" fill="#51A12C"/>
<path d="M2.19652 20.4409H9.2136V18.6795H2.19742V5.68131H3.7935V3.91992H0.440918V55.8492H35.0549V54.0896H2.19652V20.4409Z" fill="#51A12C"/>
</svg>
