<svg width="5" height="9" viewBox="0 0 5 9" fill="none" xmlns="http://www.w3.org/2000/svg">
<path d="M0.164582 4.33611L3.35283 1.1214C3.4049 1.06854 3.46683 1.02659 3.53505 0.997958C3.60328 0.969329 3.67644 0.95459 3.75033 0.95459C3.82423 0.95459 3.89739 0.969329 3.96561 0.997958C4.03383 1.02659 4.09576 1.06854 4.14783 1.1214L4.67733 1.6553C4.72976 1.7078 4.77137 1.77025 4.79976 1.83903C4.82816 1.90782 4.84277 1.98159 4.84277 2.0561C4.84277 2.1306 4.82816 2.20437 4.79976 2.27316C4.77137 2.34195 4.72976 2.40439 4.67733 2.45689L2.41683 4.73842L4.67658 7.01692C4.72901 7.06943 4.77062 7.13187 4.79901 7.20066C4.82741 7.26944 4.84202 7.34321 4.84202 7.41772C4.84202 7.49223 4.82741 7.566 4.79901 7.63478C4.77062 7.70357 4.72901 7.76601 4.67658 7.81852L4.14708 8.35241C4.09501 8.40527 4.03308 8.44723 3.96486 8.47586C3.89664 8.50449 3.82348 8.51923 3.74958 8.51923C3.67569 8.51923 3.60252 8.50449 3.5343 8.47586C3.46608 8.44723 3.40415 8.40527 3.35208 8.35241L0.164582 5.13468C0.112246 5.08244 0.0706987 5.02025 0.042345 4.95171C0.0139909 4.88318 -0.000607491 4.80965 -0.000607491 4.7354C-0.000607491 4.66114 0.0139909 4.58761 0.042345 4.51908C0.0706987 4.45054 0.112246 4.38836 0.164582 4.33611Z" fill="#222222"/>
</svg>
