<svg width="60" height="42" viewBox="0 0 60 42" fill="none" xmlns="http://www.w3.org/2000/svg">
<path d="M9.49999 0.999995C7.89999 0.599995 6.16665 2.16666 5.49999 2.99999L4.99999 31C4.59999 33 5.83332 34.8333 6.49999 35.5L16 36.5L29.5 39.5V6.5L26 4.5L9.49999 0.999995Z" fill="white"/>
<path d="M50 1.0642C51.6 0.664204 53.3333 2.23087 54 3.0642L54.5 31.0642C54.9 33.0642 53.6667 34.8975 53 35.5642L43.5 36.5642L30 39.5642V6.56421L33.5 4.56421L50 1.0642Z" fill="white"/>
<path d="M56.1625 4.94004V3.26504C56.161 2.82855 56.0722 2.39677 55.9015 1.99507C55.7307 1.59337 55.4813 1.22986 55.1681 0.925907C54.8548 0.621954 54.4839 0.383691 54.0773 0.225121C53.6706 0.066551 53.2363 -0.00912651 52.8 0.00253809C44.9753 0.0945048 37.2389 1.66808 30 4.64004C22.7611 1.66808 15.0247 0.0945048 7.2 0.00253809C6.76179 -0.0149593 6.32468 0.0581601 5.91602 0.217322C5.50736 0.376484 5.13594 0.618265 4.825 0.927538C4.51147 1.23058 4.26239 1.59383 4.09269 1.99551C3.923 2.39718 3.8362 2.82899 3.8375 3.26504V4.94004C2.74254 5.21534 1.77065 5.84791 1.07561 6.73766C0.380573 7.6274 0.00207179 8.72351 0 9.85254V36.6775C0 38.0268 0.536003 39.3209 1.49009 40.2749C2.44419 41.229 3.73821 41.765 5.0875 41.765H54.9125C56.2618 41.765 57.5558 41.229 58.5099 40.2749C59.464 39.3209 60 38.0268 60 36.6775V9.85254C59.9979 8.72351 59.6194 7.6274 58.9244 6.73766C58.2293 5.84791 57.2575 5.21534 56.1625 4.94004ZM52.8625 2.50254C52.9665 2.50105 53.0697 2.52016 53.1663 2.55878C53.2628 2.5974 53.3507 2.65476 53.425 2.72754C53.5003 2.79797 53.5602 2.88316 53.6011 2.97779C53.6419 3.07242 53.6628 3.17446 53.6625 3.27754V33.7525C53.6626 33.9505 53.5857 34.1408 53.4481 34.2831C53.3104 34.4254 53.1229 34.5085 52.925 34.515C45.518 34.6254 38.1856 36.0124 31.25 38.615V6.82754C38.1319 4.08577 45.4555 2.62019 52.8625 2.50254ZM6.325 3.26504C6.32467 3.16196 6.34559 3.05992 6.38645 2.96529C6.42731 2.87066 6.48724 2.78547 6.5625 2.71504C6.63487 2.64319 6.7207 2.58634 6.81508 2.54773C6.90946 2.50912 7.01053 2.48951 7.1125 2.49004C14.5287 2.60864 21.8611 4.07851 28.75 6.82754V38.615C21.8113 36.0067 14.4744 34.6155 7.0625 34.5025C6.86464 34.496 6.67705 34.4129 6.53942 34.2706C6.40179 34.1283 6.32489 33.938 6.325 33.74V3.26504ZM2.5 36.6775V9.85254C2.50146 9.39218 2.6263 8.94064 2.86154 8.54492C3.09677 8.1492 3.43379 7.82378 3.8375 7.60254V33.7525C3.834 34.6005 4.16332 35.416 4.75469 36.0237C5.34606 36.6315 6.15226 36.9829 7 37.0025C12.3007 37.1281 17.5673 37.8877 22.6875 39.265H5.0875C4.40125 39.265 3.74311 38.9924 3.25786 38.5072C2.77261 38.0219 2.5 37.3638 2.5 36.6775ZM57.5 36.6775C57.5 37.3638 57.2274 38.0219 56.7421 38.5072C56.2569 38.9924 55.5987 39.265 54.9125 39.265H37.2875C42.4158 37.8856 47.6909 37.126 53 37.0025C53.8477 36.9829 54.6539 36.6315 55.2453 36.0237C55.8367 35.416 56.166 34.6005 56.1625 33.7525V7.60254C56.5662 7.82378 56.9032 8.1492 57.1385 8.54492C57.3737 8.94064 57.4985 9.39218 57.5 9.85254V36.6775Z" fill="#51A12C"/>
<path d="M8.62206 17.5899C8.60148 17.9196 8.71219 18.2439 8.93001 18.4922C9.14783 18.7405 9.45505 18.8925 9.78456 18.9149C14.8758 19.2346 19.911 20.1578 24.7846 21.6649C24.9088 21.6838 25.0353 21.6838 25.1596 21.6649C25.4911 21.7147 25.8288 21.6307 26.0984 21.4314C26.3679 21.2321 26.5473 20.934 26.5971 20.6024C26.6468 20.2709 26.5628 19.9332 26.3635 19.6636C26.1643 19.394 25.8661 19.2147 25.5346 19.1649C20.4814 17.6431 15.266 16.7243 9.99706 16.4274C9.82985 16.4103 9.66089 16.427 9.50029 16.4766C9.3397 16.5263 9.19076 16.6078 9.0624 16.7163C8.93403 16.8249 8.82888 16.9582 8.75322 17.1083C8.67756 17.2584 8.63295 17.4222 8.62206 17.5899Z" fill="#51A12C"/>
<path d="M25.5759 23.9525C20.5157 22.3857 15.2875 21.4248 10.0009 21.09C9.83673 21.0794 9.67208 21.1011 9.51634 21.1541C9.3606 21.2071 9.21682 21.2902 9.0932 21.3987C8.96958 21.5072 8.86855 21.639 8.79587 21.7866C8.7232 21.9342 8.6803 22.0946 8.66963 22.2588C8.65896 22.4229 8.68073 22.5876 8.73369 22.7433C8.78665 22.8991 8.86977 23.0429 8.9783 23.1665C9.08682 23.2901 9.21864 23.3911 9.36621 23.4638C9.51379 23.5365 9.67423 23.5794 9.83838 23.59C14.9296 23.9101 19.9648 24.8332 24.8384 26.34C24.9627 26.3589 25.0891 26.3589 25.2134 26.34C25.5449 26.3898 25.8826 26.3058 26.1522 26.1065C26.4218 25.9072 26.6012 25.6091 26.6509 25.2775C26.7006 24.946 26.6166 24.6083 26.4173 24.3387C26.2181 24.0692 25.9199 23.8898 25.5884 23.84L25.5759 23.9525Z" fill="#51A12C"/>
<path d="M25.5759 28.7526C20.5132 27.2067 15.285 26.2668 10.0009 25.9526C9.83673 25.9419 9.67208 25.9637 9.51634 26.0166C9.3606 26.0696 9.21682 26.1527 9.0932 26.2613C8.84354 26.4804 8.69118 26.7898 8.66963 27.1213C8.64808 27.4529 8.75911 27.7794 8.9783 28.029C9.19748 28.2787 9.50686 28.431 9.83838 28.4526C14.9296 28.7723 19.9649 29.6954 24.8384 31.2026C24.9627 31.2214 25.0891 31.2214 25.2134 31.2026C25.5449 31.2523 25.8826 31.1683 26.1522 30.9691C26.4218 30.7698 26.6012 30.4716 26.6509 30.1401C26.7006 29.8086 26.6166 29.4709 26.4173 29.2013C26.2181 28.9317 25.9199 28.7523 25.5884 28.7026L25.5759 28.7526Z" fill="#51A12C"/>
<path d="M34.7839 21.7275C34.9082 21.7463 35.0346 21.7463 35.1589 21.7275C40.0324 20.2202 45.0677 19.2971 50.1589 18.9775C50.3231 18.9668 50.4835 18.9239 50.6311 18.8512C50.7787 18.7786 50.9105 18.6775 51.019 18.5539C51.1275 18.4303 51.2106 18.2865 51.2636 18.1308C51.3166 17.975 51.3383 17.8104 51.3277 17.6462C51.317 17.4821 51.2741 17.3216 51.2014 17.1741C51.1287 17.0265 51.0277 16.8947 50.9041 16.7862C50.7805 16.6776 50.6367 16.5945 50.4809 16.5415C50.3252 16.4886 50.1606 16.4668 49.9964 16.4775C44.6929 16.8079 39.4476 17.7688 34.3714 19.34C34.0399 19.3897 33.7417 19.5691 33.5424 19.8387C33.3432 20.1083 33.2592 20.446 33.3089 20.7775C33.3586 21.109 33.538 21.4072 33.8076 21.6065C34.0772 21.8057 34.4149 21.8897 34.7464 21.84L34.7839 21.7275Z" fill="#51A12C"/>
<path d="M34.7839 26.3902C34.9082 26.409 35.0346 26.409 35.1589 26.3902C40.0325 24.8832 45.0677 23.9601 50.1589 23.6402C50.4884 23.6177 50.7956 23.4657 51.0135 23.2174C51.2313 22.9692 51.342 22.6448 51.3214 22.3152C51.3183 22.1466 51.2812 21.9804 51.2123 21.8266C51.1433 21.6728 51.044 21.5345 50.9202 21.4201C50.7964 21.3056 50.6508 21.2174 50.492 21.1607C50.3333 21.104 50.1647 21.08 49.9964 21.0902C44.6929 21.4209 39.4477 22.3818 34.3714 23.9527C34.0399 24.0024 33.7417 24.1818 33.5424 24.4514C33.3432 24.7209 33.2592 25.0586 33.3089 25.3902C33.3586 25.7217 33.538 26.0199 33.8076 26.2191C34.0772 26.4184 34.4149 26.5024 34.7464 26.4527L34.7839 26.3902Z" fill="#51A12C"/>
<path d="M9.78838 8.25244C11.0384 8.33994 12.2884 8.45245 13.5384 8.60245H13.7509C14.0824 8.62234 14.4082 8.50972 14.6567 8.28936C14.9052 8.069 15.056 7.75897 15.0759 7.42745C15.0958 7.09592 14.9832 6.77008 14.7628 6.52159C14.5424 6.27311 14.2324 6.12233 13.9009 6.10244C12.6509 5.93994 11.2884 5.82744 10.0009 5.73994C9.66936 5.7184 9.34286 5.82943 9.0932 6.04861C8.84354 6.26779 8.69118 6.57717 8.66963 6.90869C8.64808 7.24021 8.75911 7.56672 8.9783 7.81638C9.19748 8.06603 9.50686 8.2184 9.83838 8.23995L9.78838 8.25244Z" fill="#51A12C"/>
<path d="M8.62206 10.8775C8.60148 11.2072 8.71219 11.5315 8.93001 11.7798C9.14783 12.0281 9.45505 12.18 9.78456 12.2025C12.1135 12.355 14.4332 12.6262 16.7346 13.015H16.9471C17.2786 13.0432 17.6077 12.9385 17.8621 12.724C18.1164 12.5095 18.2751 12.2028 18.3033 11.8713C18.3315 11.5398 18.2268 11.2106 18.0123 10.9563C17.7978 10.7019 17.4911 10.5432 17.1596 10.515C14.7871 10.1273 12.3966 9.86025 9.99706 9.71503C9.82985 9.69787 9.66089 9.71461 9.50029 9.76425C9.3397 9.81389 9.19076 9.89541 9.0624 10.0039C8.93403 10.1125 8.82888 10.2458 8.75322 10.3959C8.67756 10.546 8.63295 10.7098 8.62206 10.8775Z" fill="#51A12C"/>
<path d="M34.7874 31.2526C34.9117 31.2715 35.0381 31.2715 35.1624 31.2526C40.0359 29.7453 45.0712 28.8222 50.1624 28.5026C50.4939 28.4811 50.8033 28.3287 51.0225 28.0791C51.2417 27.8294 51.3527 27.5029 51.3312 27.1714C51.3096 26.8399 51.1573 26.5305 50.9076 26.3113C50.658 26.0921 50.3314 25.9811 49.9999 26.0026C44.7136 26.2994 39.4812 27.2225 34.4124 28.7526C34.0809 28.8024 33.7827 28.9818 33.5835 29.2513C33.3842 29.5209 33.3002 29.8586 33.3499 30.1901C33.3997 30.5217 33.579 30.8198 33.8486 31.0191C34.1182 31.2184 34.4559 31.3024 34.7874 31.2526Z" fill="#51A12C"/>
</svg>
