<svg width="15" height="16" viewBox="0 0 15 16" fill="none" xmlns="http://www.w3.org/2000/svg">
<path d="M0 12.7515C0 14.0265 0.975 15.0015 2.25 15.0015H12.75C14.025 15.0015 15 14.0265 15 12.7515V6.75147H0V12.7515ZM12.75 1.50146H11.25V0.751465C11.25 0.301465 10.95 0.00146484 10.5 0.00146484C10.05 0.00146484 9.75 0.301465 9.75 0.751465V1.50146H5.25V0.751465C5.25 0.301465 4.95 0.00146484 4.5 0.00146484C4.05 0.00146484 3.75 0.301465 3.75 0.751465V1.50146H2.25C0.975 1.50146 0 2.47646 0 3.75147V5.25147H15V3.75147C15 2.47646 14.025 1.50146 12.75 1.50146Z" fill="#222222"/>
</svg>
