<svg width="24" height="24" viewBox="0 0 24 24" fill="none" xmlns="http://www.w3.org/2000/svg">
<path d="M8.64682 1.11987H18.4868V18.6619H5.36682V4.40901L8.64682 1.11987Z" fill="white"/>
<path d="M17.3947 1.11987H18.4881V18.6619H17.3947V1.11987Z" fill="#CEE4C3"/>
<path d="M5.36682 4.40901H8.64682V1.11987L5.36682 4.40901Z" fill="#CEE4C3"/>
<path d="M7.18936 5.87085H16.6654V7.33305H7.18936V5.87085Z" fill="#CEE4C3"/>
<path d="M19.2178 15.7389L18.489 16.4697L17.7599 15.7389V4.04346H19.2178V15.7389Z" fill="#CEE4C3"/>
<path d="M17.7599 4.04346H19.2178V5.50539H17.7599V4.04346Z" fill="#CEE4C3"/>
<path d="M19.2178 13.9116V15.7391L18.489 16.4699L17.7599 15.7391V13.9116H19.2178Z" fill="#CEE4C3"/>
<path d="M5.68723 4.77456H8.96723V1.48515H18.1243V2.58153H18.8072V0.800049H8.50616L5.00296 4.26728V13.9117H5.68723V4.77456ZM6.19389 4.08945L8.28456 1.94724V4.08919L6.19389 4.08945Z" fill="#51A12C"/>
<path d="M18.1228 18.3432H10.1049V19.0283H18.8066V17.5664H18.1228V18.3432Z" fill="#51A12C"/>
<path d="M6.82623 7.69868H15.5729V7.01331H7.50943V6.23783H15.5732V5.55005H6.8265L6.82623 7.69868Z" fill="#51A12C"/>
<path d="M6.82623 10.6846H16.6662V11.3699H6.82623V10.6846Z" fill="#CEE4C3"/>
<path d="M10.1049 16.4702H17.3943V17.1553H10.1049V16.4702Z" fill="#51A12C"/>
<path d="M6.82623 8.88989H15.5729V9.57526H6.82623V8.88989Z" fill="#51A12C"/>
<path d="M6.82623 12.479H16.6662V13.1641H6.82623V12.479Z" fill="#CEE4C3"/>
<path d="M18.8067 3.72455V3.31274H18.1233V3.72455H17.3945V5.18648H16.3011V9.52734H16.9846V5.87105H17.3945V15.881L18.4651 16.9546L19.5358 15.881V3.72455H18.8067ZM18.0779 4.40966H18.8513V5.18514H18.0779V4.40966ZM18.8513 5.87158V13.592H18.0779V5.87105L18.8513 5.87158ZM18.4641 15.9861L18.0769 15.5975V14.2773H18.8502V15.5975L18.4641 15.9861Z" fill="#51A12C"/>
<path d="M9.00293 17.7257V18.0017C9.00256 18.6486 8.79308 19.2781 8.40573 19.7963C8.01838 20.3144 7.47391 20.6935 6.85354 20.8769C6.23316 21.0603 5.57011 21.0383 4.96327 20.8141C4.35643 20.5899 3.83833 20.1755 3.48622 19.6328C3.13411 19.0901 2.96687 18.4481 3.00943 17.8026C3.052 17.1571 3.30209 16.5426 3.72241 16.0508C4.14274 15.5591 4.71076 15.2163 5.34179 15.0738C5.97281 14.9312 6.63301 14.9964 7.22393 15.2597M9.00293 15.6017L6.00293 18.6047L5.10293 17.7047" stroke="#51A12C" stroke-width="0.7" stroke-linecap="round" stroke-linejoin="round"/>
</svg>
