<svg width="18" height="20" viewBox="0 0 18 20" fill="none" xmlns="http://www.w3.org/2000/svg">
<path d="M15.266 18.5037V1.49592C15.266 1.1419 15.1253 0.802377 14.875 0.552047C14.6247 0.301717 14.2851 0.161084 13.9311 0.161084H2.16413C1.81011 0.161084 1.47059 0.301718 1.22026 0.552047C0.969931 0.802377 0.829297 1.1419 0.829297 1.49592V18.5037C0.829297 18.8577 0.969931 19.1972 1.22026 19.4475C1.47059 19.6979 1.81011 19.8385 2.16413 19.8385H13.9311C14.2851 19.8385 14.6247 19.6979 14.875 19.4475C15.1253 19.1972 15.266 18.8577 15.266 18.5037Z" fill="white" stroke="#3AA22B" stroke-width="0.15"/>
<path d="M10.3458 1.68948L10.3458 1.68953H10.3486H10.6886C10.7299 1.69087 10.7711 1.68397 10.8097 1.66922C10.8488 1.65429 10.8845 1.63162 10.9147 1.60258C10.9448 1.57355 10.9688 1.53873 10.9852 1.5002C11.0015 1.46168 11.01 1.42025 11.01 1.37839C11.01 1.33653 11.0015 1.2951 10.9852 1.25658C10.9688 1.21806 10.9448 1.18324 10.9147 1.1542C10.8845 1.12516 10.8488 1.1025 10.8097 1.08757C10.7711 1.07281 10.7299 1.06591 10.6886 1.06725H10.3486V1.0672L10.3458 1.06731C10.2653 1.07031 10.1891 1.1044 10.1332 1.16241C10.0773 1.22042 10.0461 1.29784 10.0461 1.37839C10.0461 1.45895 10.0773 1.53636 10.1332 1.59437C10.1891 1.65238 10.2653 1.68647 10.3458 1.68948Z" fill="#3AA22B" stroke="#3AA22B" stroke-width="0.15"/>
<path d="M5.39851 1.68972L5.39851 1.68977H5.40131H9.13935C9.18068 1.69112 9.22187 1.68421 9.26051 1.66946C9.29961 1.65453 9.33531 1.63187 9.36545 1.60283C9.3956 1.57379 9.41958 1.53896 9.43595 1.50044C9.45233 1.46192 9.46078 1.4205 9.46078 1.37864C9.46078 1.33678 9.45233 1.29535 9.43595 1.25683C9.41958 1.21831 9.3956 1.18348 9.36545 1.15444C9.3353 1.1254 9.29961 1.10274 9.26051 1.08781C9.22187 1.07306 9.18068 1.06615 9.13935 1.0675H5.40131V1.06745L5.39851 1.06755C5.31802 1.07056 5.24182 1.10465 5.18594 1.16266C5.13005 1.22067 5.09883 1.29808 5.09883 1.37864C5.09883 1.45919 5.13005 1.5366 5.18594 1.59461C5.24182 1.65262 5.31802 1.68671 5.39851 1.68972Z" fill="#3AA22B" stroke="#3AA22B" stroke-width="0.15"/>
<path d="M8.04564 17.2658H8.04543C7.86787 17.2658 7.69429 17.3185 7.54665 17.4171C7.39902 17.5158 7.28394 17.656 7.21599 17.82C7.14804 17.9841 7.13027 18.1646 7.16491 18.3387C7.19955 18.5129 7.28505 18.6729 7.41061 18.7984C7.53616 18.924 7.69613 19.0095 7.87028 19.0441C8.04443 19.0788 8.22495 19.061 8.389 18.993C8.55304 18.9251 8.69326 18.81 8.79191 18.6624C8.89055 18.5147 8.94321 18.3412 8.94321 18.1636L8.94321 18.1634C8.94254 17.9255 8.84776 17.6976 8.67958 17.5294C8.5114 17.3613 8.28349 17.2665 8.04564 17.2658ZM8.04501 18.4417C7.99019 18.442 7.93652 18.4261 7.8908 18.3958C7.84507 18.3656 7.80935 18.3225 7.78816 18.2719C7.76697 18.2214 7.76126 18.1657 7.77177 18.1119C7.78227 18.0581 7.80851 18.0086 7.84717 17.9697C7.88582 17.9309 7.93514 17.9043 7.98888 17.8935C8.04263 17.8827 8.09836 17.8881 8.14903 17.909C8.1997 17.9299 8.24303 17.9654 8.27351 18.011C8.304 18.0565 8.32028 18.1101 8.32028 18.1649C8.32019 18.238 8.29121 18.3082 8.23965 18.36C8.18809 18.4119 8.11813 18.4412 8.04501 18.4417Z" fill="#3AA22B" stroke="#3AA22B" stroke-width="0.15"/>
<path d="M8.04378 3.22065L8.04369 3.22065C7.76047 3.22093 7.48369 3.30515 7.24832 3.46267C7.01294 3.62019 6.82954 3.84394 6.72128 4.10565C6.61303 4.36736 6.58477 4.65529 6.64009 4.93305C6.69542 5.21082 6.83183 5.46595 7.0321 5.66622C7.23236 5.86648 7.48749 6.00289 7.76526 6.05821C8.04302 6.11354 8.33095 6.08528 8.59266 5.97703C8.85437 5.86877 9.07813 5.68537 9.23565 5.45C9.39317 5.21462 9.47738 4.93784 9.47766 4.65462V4.65453C9.47757 4.27427 9.32646 3.90961 9.05758 3.64073C8.7887 3.37184 8.42404 3.22075 8.04378 3.22065ZM8.01092 5.46282C7.86222 5.45655 7.71788 5.40942 7.5939 5.32631C7.46078 5.23707 7.35711 5.11037 7.296 4.96221C7.23489 4.81406 7.21908 4.65111 7.25058 4.49397C7.28208 4.33683 7.35947 4.19256 7.47296 4.07941C7.58645 3.96626 7.73095 3.8893 7.88818 3.85826C8.04541 3.82723 8.20831 3.84352 8.35628 3.90507C8.50426 3.96662 8.63065 4.07067 8.71949 4.20405C8.80833 4.33743 8.85562 4.49416 8.85539 4.65441C8.85519 4.76078 8.83404 4.86606 8.79315 4.96426C8.75226 5.06245 8.69244 5.15164 8.61709 5.22671C8.54173 5.30178 8.45233 5.36128 8.35398 5.4018C8.25564 5.44232 8.15027 5.46308 8.0439 5.46288L8.01092 5.46282Z" fill="#3AA22B" stroke="#3AA22B" stroke-width="0.15"/>
<path d="M10.1781 9.51423C10.2253 9.51438 10.272 9.50379 10.3145 9.48324C10.3571 9.46267 10.3944 9.43267 10.4237 9.39551C10.453 9.35836 10.4734 9.31503 10.4834 9.26882C10.4927 9.22554 10.4928 9.1808 10.4835 9.13757C10.4554 7.52989 9.386 6.20576 8.04495 6.20576C6.68643 6.20576 5.60859 7.56593 5.60859 9.20293C5.60859 9.2855 5.64139 9.36467 5.69977 9.42305C5.75815 9.48143 5.83733 9.51423 5.91989 9.51423H10.1781ZM10.1781 9.51423C10.1781 9.51423 10.178 9.51423 10.178 9.51423L10.1782 9.43923M10.1781 9.51423H10.1782V9.43923M10.1782 9.43923H5.91989C5.85722 9.43923 5.79712 9.41433 5.7528 9.37002C5.70849 9.3257 5.68359 9.2656 5.68359 9.20293C5.68359 7.59161 6.74201 6.28076 8.04495 6.28076C9.33342 6.28076 10.3843 7.561 10.4086 9.14665C10.4172 9.18151 10.4177 9.21786 10.4101 9.25294C10.4025 9.28803 10.387 9.32092 10.3648 9.34912C10.3426 9.37732 10.3142 9.40009 10.2819 9.41571C10.2496 9.43132 10.2141 9.43936 10.1782 9.43923ZM9.84428 8.89163H6.24656C6.36478 7.71273 7.13915 6.82804 8.04298 6.82804C8.94692 6.82804 9.72547 7.7128 9.84428 8.89163Z" fill="#3AA22B" stroke="#3AA22B" stroke-width="0.15"/>
<path d="M3.67977 11.4601L3.67976 11.4601H3.68256H12.4102V11.4602L12.413 11.4601C12.4935 11.4571 12.5697 11.423 12.6256 11.365C12.6815 11.307 12.7127 11.2295 12.7127 11.149C12.7127 11.0684 12.6815 10.991 12.6256 10.933C12.5697 10.875 12.4935 10.8409 12.413 10.8379L12.413 10.8378H12.4102H3.68256V10.8378L3.67977 10.8379C3.59927 10.8409 3.52307 10.875 3.46719 10.933C3.4113 10.991 3.38008 11.0684 3.38008 11.149C3.38008 11.2295 3.4113 11.307 3.46719 11.365C3.52307 11.423 3.59927 11.4571 3.67977 11.4601Z" fill="#3AA22B" stroke="#3AA22B" stroke-width="0.15"/>
<path d="M3.67977 13.6263L3.67976 13.6264H3.68256H12.4102V13.6264L12.413 13.6263C12.4935 13.6233 12.5697 13.5892 12.6256 13.5312C12.6815 13.4732 12.7127 13.3958 12.7127 13.3152C12.7127 13.2347 12.6815 13.1573 12.6256 13.0993C12.5697 13.0412 12.4935 13.0072 12.413 13.0042L12.413 13.0041H12.4102H3.68256V13.004L3.67977 13.0042C3.59928 13.0072 3.52308 13.0412 3.46719 13.0993C3.4113 13.1573 3.38008 13.2347 3.38008 13.3152C3.38008 13.3958 3.4113 13.4732 3.46719 13.5312C3.52307 13.5892 3.59927 13.6233 3.67977 13.6263Z" fill="#3AA22B" stroke="#3AA22B" stroke-width="0.15"/>
<path d="M10.2127 15.1702L10.2127 15.1701H10.2099H5.88178V15.1701L5.87898 15.1702C5.79849 15.1732 5.72229 15.2073 5.66641 15.2653C5.61052 15.3233 5.5793 15.4007 5.5793 15.4813C5.5793 15.5618 5.61052 15.6392 5.66641 15.6972C5.72229 15.7552 5.79849 15.7893 5.87898 15.7923L5.87898 15.7924H5.88178H10.2099V15.7925L10.2127 15.7923C10.2932 15.7893 10.3694 15.7552 10.4253 15.6972C10.4812 15.6392 10.5124 15.5618 10.5124 15.4813C10.5124 15.4007 10.4812 15.3233 10.4253 15.2653L10.3713 15.3173L10.4253 15.2653C10.3694 15.2073 10.2932 15.1732 10.2127 15.1702Z" fill="#3AA22B" stroke="#3AA22B" stroke-width="0.15"/>
<path d="M0.591016 1.49605V1.49613L0.591016 18.5039L0.591016 18.5039C0.591473 18.9205 0.757141 19.3198 1.05167 19.6143C1.3462 19.9089 1.74554 20.0745 2.16207 20.075H2.16215H13.9288H13.9289C14.3454 20.0745 14.7448 19.9089 15.0393 19.6143C15.3338 19.3198 15.4995 18.9205 15.4999 18.5039V18.5039V7.41785C16.0999 7.34358 16.6543 7.0567 17.0617 6.60806C17.4844 6.14256 17.7186 5.53631 17.7186 4.90752C17.7186 4.27873 17.4844 3.67248 17.0617 3.20698C16.6543 2.75834 16.0999 2.47146 15.4999 2.39719V1.49613V1.49605C15.4995 1.07952 15.3338 0.680185 15.0393 0.385655C14.7448 0.0911252 14.3454 -0.0745426 13.9289 -0.075H13.9288L2.16215 -0.075L2.16207 -0.075C1.74554 -0.0745426 1.3462 0.0911252 1.05167 0.385655C0.757141 0.680185 0.591473 1.07952 0.591016 1.49605ZM1.21362 1.4541C1.2244 1.21794 1.32296 0.993681 1.49083 0.825805C1.66867 0.647973 1.90976 0.547924 2.16126 0.547601H13.9287C13.9287 0.547601 13.9287 0.547602 13.9288 0.547602C14.1802 0.547936 14.4213 0.647983 14.5991 0.825805C14.777 1.00364 14.877 1.24474 14.8773 1.49623V2.39723C14.2777 2.47187 13.7238 2.7589 13.3167 3.20747C12.8943 3.67288 12.6604 4.27887 12.6604 4.90735C12.6604 5.53584 12.8943 6.14183 13.3167 6.60724C13.7238 7.05581 14.2777 7.34284 14.8773 7.41748V18.5038C14.877 18.7553 14.777 18.9964 14.5991 19.1742C14.4213 19.352 14.1802 19.4521 13.9287 19.4524H2.16224C1.91075 19.4521 1.66965 19.352 1.49182 19.1742C1.31399 18.9964 1.21394 18.7553 1.21362 18.5038L1.21362 1.49613V1.4541ZM15.1906 2.9998C15.5678 3.00011 15.9365 3.11229 16.25 3.32214C16.5636 3.53199 16.8078 3.83009 16.9519 4.17875C17.096 4.52742 17.1335 4.91098 17.0596 5.28094C16.9857 5.6509 16.8038 5.99064 16.5368 6.25721C16.2698 6.52378 15.9298 6.7052 15.5598 6.77853C15.1897 6.85186 14.8062 6.81381 14.4577 6.66919C14.1093 6.52457 13.8116 6.27988 13.6022 5.96605C13.3928 5.65223 13.2812 5.28337 13.2814 4.90611C13.2819 4.40019 13.4833 3.91517 13.8413 3.55769C14.1993 3.20022 14.6846 2.99955 15.1906 2.9998Z" fill="#3AA22B" stroke="#3AA22B" stroke-width="0.15"/>
<path d="M17.0873 4.81418C17.0873 5.84094 16.255 6.78948 15.2282 6.78948C14.2015 6.78948 13.3691 5.84094 13.3691 4.81418C13.3691 3.78743 14.2015 2.95508 15.2282 2.95508C16.255 2.95508 17.0873 3.78743 17.0873 4.81418Z" fill="white"/>
<path d="M16.239 4.54101L16.2389 4.54099L15.0674 5.71257L15.0673 5.71262L15.0143 5.65959C14.9923 5.68155 14.9663 5.69898 14.9377 5.71086C14.909 5.72275 14.8783 5.72887 14.8472 5.72887C14.8162 5.72887 14.7855 5.72275 14.7568 5.71086C14.7282 5.69898 14.7021 5.68155 14.6802 5.65959L16.239 4.54101ZM16.239 4.54101L16.2404 4.53947C16.2961 4.48057 16.3266 4.40229 16.3254 4.32126C16.3243 4.24023 16.2916 4.16284 16.2343 4.10553C16.177 4.04823 16.0996 4.01553 16.0186 4.01439C15.9375 4.01324 15.8592 4.04374 15.8003 4.0994L15.8003 4.09938L15.7988 4.10088L14.8474 5.05232L14.5805 4.78573L14.5805 4.78571L14.579 4.78428C14.5201 4.72862 14.4418 4.69812 14.3608 4.69926C14.2798 4.70041 14.2024 4.73311 14.1451 4.79041C14.0878 4.84771 14.0551 4.9251 14.0539 5.00613C14.0528 5.08717 14.0833 5.16545 14.139 5.22435L14.1389 5.22437L14.1404 5.22587L14.6271 5.71257C14.6271 5.71257 14.6271 5.71258 14.6272 5.71258L16.239 4.54101Z" fill="#3AA22B" stroke="#3AA22B" stroke-width="0.15"/>
</svg>
