<svg width="25" height="24" viewBox="0 0 25 24" fill="none" xmlns="http://www.w3.org/2000/svg">
<path d="M9.64328 1.11987H19.4833V18.6619H6.36328V4.40901L9.64328 1.11987Z" fill="white"/>
<path d="M18.3906 1.11987H19.484V18.6619H18.3906V1.11987Z" fill="#CEE4C3"/>
<path d="M6.36328 4.40901H9.64328V1.11987L6.36328 4.40901Z" fill="#CEE4C3"/>
<path d="M8.18555 5.87085H17.6616V7.33305H8.18555V5.87085Z" fill="#CEE4C3"/>
<path d="M20.2137 15.7389L19.4849 16.4697L18.7559 15.7389V4.04346H20.2137V15.7389Z" fill="#CEE4C3"/>
<path d="M18.7559 4.04346H20.2137V5.50539H18.7559V4.04346Z" fill="#CEE4C3"/>
<path d="M20.2137 13.9116V15.7391L19.4849 16.4699L18.7559 15.7391V13.9116H20.2137Z" fill="#CEE4C3"/>
<path d="M6.68329 4.77456H9.96329V1.48515H19.1204V2.58153H19.8033V0.800049H9.50223L5.99902 4.26728V13.9117H6.68329V4.77456ZM7.18996 4.08945L9.28063 1.94724V4.08918L7.18996 4.08945Z" fill="#51A12C"/>
<path d="M19.1185 18.3432H11.1006V19.0283H19.8022V17.5664H19.1185V18.3432Z" fill="#51A12C"/>
<path d="M7.82227 7.69868H16.5689V7.01331H8.50547V6.23783H16.5692V5.55005H7.82253L7.82227 7.69868Z" fill="#51A12C"/>
<path d="M7.82227 10.6846H17.6623V11.3699H7.82227V10.6846Z" fill="#CEE4C3"/>
<path d="M11.1006 16.4702H18.3899V17.1553H11.1006V16.4702Z" fill="#51A12C"/>
<path d="M7.82227 8.88989H16.5689V9.57526H7.82227V8.88989Z" fill="#51A12C"/>
<path d="M7.82227 12.479H17.6623V13.1641H7.82227V12.479Z" fill="#CEE4C3"/>
<path d="M19.8025 3.72455V3.31274H19.119V3.72455H18.3902V5.18648H17.2969V9.52734H17.9803V5.87105H18.3902V15.881L19.4609 16.9546L20.5315 15.881V3.72455H19.8025ZM19.0737 4.40966H19.847V5.18514H19.0737V4.40966ZM19.847 5.87158V13.592H19.0737V5.87105L19.847 5.87158ZM19.4598 15.9861L19.0726 15.5975V14.2773H19.8459V15.5975L19.4598 15.9861Z" fill="#51A12C"/>
<path d="M9.99902 17.7257V18.0017C9.99865 18.6486 9.78917 19.2781 9.40182 19.7963C9.01447 20.3144 8.47001 20.6935 7.84963 20.8769C7.22925 21.0603 6.5662 21.0383 5.95936 20.8141C5.35253 20.5899 4.83442 20.1755 4.48231 19.6328C4.1302 19.0901 3.96296 18.4481 4.00553 17.8026C4.04809 17.1571 4.29819 16.5426 4.71851 16.0508C5.13883 15.5591 5.70686 15.2163 6.33788 15.0738C6.9689 14.9312 7.6291 14.9964 8.22002 15.2597M9.99902 15.6017L6.99902 18.6047L6.09902 17.7047" stroke="#51A12C" stroke-width="0.7" stroke-linecap="round" stroke-linejoin="round"/>
</svg>
