<svg width="24" height="17" viewBox="0 0 24 17" fill="none" xmlns="http://www.w3.org/2000/svg">
<path d="M6.66294 0.585825H22.8739C23.1736 0.586341 23.461 0.705651 23.6729 0.917616C23.8849 1.12958 24.0042 1.41692 24.0047 1.71668V13.7245C24.005 13.9509 23.9369 14.1721 23.8094 14.3593C23.7855 14.4197 23.7489 14.4744 23.702 14.5194C23.6708 14.5493 23.6352 14.5743 23.5965 14.5936C23.3939 14.7634 23.1382 14.8567 22.8739 14.8573H13.2821C13.3514 14.5731 13.3791 14.2803 13.3641 13.9882H22.5868L16.5633 7.662L14.5751 9.35731C14.4972 9.42212 14.399 9.45761 14.2977 9.45761C14.1964 9.45761 14.0983 9.42212 14.0204 9.35731L11.9344 7.662L10.0419 9.55848C9.78121 9.38191 9.48864 9.25785 9.18052 9.19325L11.2586 7.11122L7.40513 3.96864C7.38887 3.74132 7.34425 3.51692 7.27232 3.30067L7.11802 2.61903L14.2879 8.46473L22.5126 1.45692H6.85826L6.66294 0.585825ZM3.41099 6.05457C3.59364 7.06066 3.9041 8.03929 4.33482 8.96668C4.84311 10.0261 5.53176 10.989 6.36997 11.8124C6.39923 11.843 6.43489 11.8667 6.47439 11.8819C6.5139 11.8971 6.55628 11.9034 6.59849 11.9003C6.73614 11.8832 6.86897 11.8387 6.98911 11.7694C7.13186 11.6905 7.26891 11.6018 7.39927 11.5038C8.01255 11.078 8.76646 10.5487 9.40904 11.1425C9.42466 11.1561 9.43247 11.1698 9.4481 11.1815L11.493 13.4335C11.5001 13.4415 11.5067 13.4499 11.5126 13.4589C11.6304 13.6189 11.7062 13.8058 11.7331 14.0027C11.7601 14.1996 11.7373 14.4 11.6669 14.5858C11.5071 15.0186 11.2427 15.4051 10.8973 15.7108C10.4666 16.0971 9.92273 16.3341 9.34654 16.3866C8.80647 16.436 8.26214 16.4097 7.72935 16.3085C6.93224 16.1729 6.17666 15.8569 5.52036 15.3847C4.80337 14.8544 4.15631 14.2355 3.59458 13.5429L3.54771 13.4862C3.25083 13.1347 2.93052 12.7577 2.63169 12.3378C1.44981 10.6435 0.621472 8.72843 0.196145 6.70692C-0.139792 4.99793 -0.0714327 3.2909 0.651224 1.87879C1.04185 1.09754 1.6395 0.472544 2.40904 0.181528C3.08091 -0.0762846 3.87583 -0.0801908 4.77818 0.304575C4.82833 0.325481 4.87246 0.358585 4.90657 0.40088C4.94068 0.443175 4.96368 0.49332 4.97349 0.546762L5.70201 3.78504C5.76963 3.94252 5.79049 4.11614 5.76209 4.28516C5.73369 4.45417 5.65723 4.61144 5.54185 4.73817C5.31119 4.97286 5.02186 5.14146 4.70396 5.22645C4.59458 5.27332 4.46763 5.31434 4.33286 5.35731C3.88951 5.50184 3.38365 5.67176 3.40904 6.0702L3.41099 6.05457ZM17.2235 7.09559L23.1336 13.2929V2.06629L17.2235 7.10145V7.09559Z" fill="#47A838"/>
</svg>
