<svg width="25" height="24" viewBox="0 0 25 24" fill="none" xmlns="http://www.w3.org/2000/svg">
<g clip-path="url(#clip0_1848_19027)">
<path d="M24.0421 12.3825H24.0921V12.3325V11.6493C24.0921 11.395 23.9952 11.1506 23.8222 10.9702C23.6491 10.7896 23.4138 10.6878 23.168 10.6878C22.9223 10.6878 22.687 10.7896 22.5139 10.9702C22.3408 11.1506 22.2439 11.395 22.2439 11.6493V12.3325V12.3825H22.2939H24.0421Z" fill="white" stroke="#51A12C" stroke-width="0.1"/>
<path d="M24.0919 13.2432V13.1932H24.0419H22.2949H22.2449V13.2432V18.9357V18.9485L22.2511 18.9597L23.1246 20.5535L23.1684 20.6335L23.2123 20.5535L24.0858 18.9597L24.0919 18.9485V18.9357V13.2432Z" fill="#CEE4C3" stroke="#51A12C" stroke-width="0.1"/>
<path d="M21.9086 1.40259V1.35259H21.8586H10.8602C10.2923 1.35259 9.74802 1.58784 9.34704 2.00588C8.94612 2.42385 8.72116 2.99034 8.721 3.58065V3.58067V18.7079V18.7579H8.771H20.9851H21.0351V18.7079V2.54122C21.0351 2.28974 21.1184 2.04624 21.2706 1.85188C21.4227 1.65756 21.6342 1.52439 21.869 1.47435L21.9086 1.46592V1.42545V1.40259Z" fill="white" stroke="#51A12C" stroke-width="0.1"/>
<path d="M8.50225 3.58061V3.58052C8.50336 2.93014 8.75164 2.30633 9.19329 1.84588C9.635 1.38537 10.2342 1.12581 10.8597 1.1248L10.8598 1.1248L21.8573 1.1248C21.9292 1.1248 21.9977 1.1546 22.0478 1.2069C22.0979 1.25913 22.1257 1.32954 22.1257 1.40253V1.4254C22.1257 1.47208 22.1143 1.51811 22.0925 1.55917C22.0707 1.60024 22.0391 1.6351 22.0005 1.6603C21.9619 1.68551 21.9176 1.70017 21.8718 1.70274C21.8301 1.70507 21.7887 1.69732 21.7506 1.68026L10.8599 1.68026L10.8598 1.68026M8.50225 3.58061H8.98899C8.98962 3.06344 9.18694 2.56764 9.53768 2.202C9.88841 1.83637 10.3639 1.63075 10.8598 1.63026V1.68026M8.50225 3.58061V20.5294C8.50225 20.6024 8.53003 20.6728 8.58012 20.725C8.63027 20.7773 8.69875 20.8071 8.77062 20.8071H20.9838C21.0557 20.8071 21.1242 20.7773 21.1743 20.725C21.2244 20.6728 21.2522 20.6024 21.2522 20.5294V9.59975C21.2522 9.52675 21.2244 9.45635 21.1743 9.40412C21.1242 9.35182 21.0557 9.32202 20.9838 9.32202C20.9119 9.32202 20.8435 9.35182 20.7933 9.40412C20.7432 9.45634 20.7154 9.52675 20.7154 9.59975V20.2513M8.50225 3.58061L20.7154 20.2513M10.8598 1.68026C10.3778 1.68075 9.91529 1.88057 9.57376 2.23662C9.23215 2.59275 9.0396 3.07608 9.03899 3.58067M10.8598 1.68026L9.03899 3.58067M9.03899 20.2513L9.03899 3.58067M9.03899 20.2513H8.98899L9.03899 3.58067M9.03899 20.2513H20.7154M9.03899 20.2513V20.3013M9.03899 20.3013H20.7154V20.2513M9.03899 20.3013L21.7619 1.63026C21.7952 1.64712 21.832 1.65488 21.869 1.65281C21.906 1.65075 21.9418 1.63892 21.9732 1.61844C22.0046 1.59795 22.0304 1.56949 22.0483 1.53573C22.0663 1.50196 22.0757 1.46399 22.0757 1.4254V1.40253C22.0757 1.34213 22.0527 1.28421 22.0117 1.2415C21.9708 1.1988 21.9152 1.1748 21.8573 1.1748H10.8598C10.2482 1.17578 9.66191 1.42955 9.22937 1.88049C8.79683 2.33144 8.55334 2.94279 8.55225 3.58061V20.5294C8.55225 20.5898 8.57525 20.6477 8.6162 20.6904C8.65716 20.7331 8.7127 20.7571 8.77062 20.7571H20.9838C21.0417 20.7571 21.0973 20.7331 21.1382 20.6904C21.1792 20.6477 21.2022 20.5898 21.2022 20.5294V9.59975C21.2022 9.53935 21.1792 9.48143 21.1382 9.43872C21.0973 9.39602 21.0417 9.37202 20.9838 9.37202C20.9259 9.37202 20.8704 9.39602 20.8294 9.43872C20.7884 9.48143 20.7654 9.53935 20.7654 9.59975V20.2513H20.7154M9.03899 20.3013L20.7154 20.2513" fill="#51A12C" stroke="#51A12C" stroke-width="0.1"/>
<path d="M23.435 9.59979V9.59998C23.4347 9.67279 23.4068 9.74291 23.3567 9.7949C23.3066 9.84696 23.2383 9.87659 23.1666 9.87659H20.9832C20.9113 9.87659 20.8428 9.84679 20.7927 9.79449C20.7426 9.74226 20.7148 9.67186 20.7148 9.59886V2.54156V2.5412H20.7648L23.435 9.59979ZM23.435 9.59979V2.54155V9.59979ZM22.8997 2.54117V2.5412V9.32114H21.2516L21.2527 2.54121L21.2527 2.54112C21.2525 2.42773 21.2738 2.31547 21.3153 2.21079C21.3568 2.10611 21.4176 2.01113 21.4942 1.93125C21.5708 1.85137 21.6617 1.78816 21.7615 1.74514C21.8613 1.70212 21.9682 1.6801 22.0761 1.6803L22.0763 1.6803C22.1841 1.68022 22.291 1.70232 22.3908 1.74538C22.4906 1.78844 22.5814 1.85166 22.658 1.93152C22.7345 2.01139 22.7954 2.10633 22.8369 2.21096C22.8784 2.3156 22.8998 2.42781 22.8997 2.54117Z" fill="#51A12C" stroke="#51A12C" stroke-width="0.1"/>
<path d="M23.167 20.8072L23.1674 20.8072C23.2147 20.8068 23.2609 20.7934 23.3015 20.7686C23.342 20.7439 23.3753 20.7087 23.3984 20.6666L23.3984 20.6666L24.2717 19.0732C24.2717 19.0731 24.2718 19.0731 24.2718 19.073C24.295 19.0313 24.3074 18.984 24.3077 18.936V18.9357V11.6494H24.3077L24.3076 11.6486C24.3027 11.3375 24.1808 11.0404 23.9674 10.8215C23.754 10.6026 23.4662 10.4795 23.1659 10.4795C22.8657 10.4795 22.5779 10.6026 22.3644 10.8215C22.1511 11.0404 22.0291 11.3375 22.0242 11.6486L22.0242 11.6486V11.6494L22.0242 18.9357L22.0242 18.9361C22.0245 18.9841 22.0368 19.0313 22.0601 19.073C22.0601 19.0731 22.0601 19.0731 22.0602 19.0732L22.9335 20.6666L22.9335 20.6666C22.9568 20.709 22.9905 20.7445 23.0315 20.7693C23.0725 20.7941 23.1193 20.8073 23.167 20.8072ZM23.7721 18.8624L23.167 19.9666L22.5619 18.8624V11.6494C22.5619 11.4808 22.6261 11.3195 22.7398 11.2009C22.8535 11.0824 23.0072 11.0162 23.167 11.0162C23.3268 11.0162 23.4805 11.0824 23.5941 11.2009C23.7078 11.3195 23.7721 11.4808 23.7721 11.6494V18.8624Z" fill="#51A12C" stroke="#51A12C" stroke-width="0.1"/>
<path d="M22.2916 12.6099H24.0398C24.1117 12.6099 24.1801 12.5802 24.2303 12.5279C24.2804 12.4756 24.3082 12.4052 24.3082 12.3322C24.3082 12.2592 24.2804 12.1888 24.2303 12.1366C24.1801 12.0843 24.1117 12.0545 24.0398 12.0545H22.2916C22.2197 12.0545 22.1513 12.0843 22.1011 12.1366C22.051 12.1888 22.0232 12.2592 22.0232 12.3322C22.0232 12.4052 22.051 12.4756 22.1011 12.5279C22.1513 12.5802 22.2197 12.6099 22.2916 12.6099Z" fill="#51A12C" stroke="#51A12C" stroke-width="0.1"/>
<path d="M22.2916 13.5208H24.0398C24.1117 13.5208 24.1801 13.491 24.2303 13.4387C24.2804 13.3865 24.3082 13.3161 24.3082 13.2431C24.3082 13.1701 24.2804 13.0997 24.2303 13.0475C24.1801 12.9952 24.1117 12.9654 24.0398 12.9654H22.2916C22.2197 12.9654 22.1513 12.9952 22.1011 13.0475C22.051 13.0997 22.0232 13.1701 22.0232 13.2431C22.0232 13.3161 22.051 13.3865 22.1011 13.4387C22.1513 13.491 22.2197 13.5208 22.2916 13.5208Z" fill="#51A12C" stroke="#51A12C" stroke-width="0.1"/>
<path d="M8.75597 18.9854H20.9822C21.0541 18.9854 21.1226 18.9556 21.1727 18.9033C21.2228 18.8511 21.2506 18.7807 21.2506 18.7077C21.2506 18.6347 21.2228 18.5643 21.1727 18.5121C21.1226 18.4598 21.0541 18.43 20.9822 18.43H8.75597C8.6841 18.43 8.61562 18.4598 8.56547 18.5121C8.51539 18.5643 8.4876 18.6347 8.4876 18.7077C8.4876 18.7807 8.51539 18.8511 8.56547 18.9033C8.61562 18.9556 8.6841 18.9854 8.75597 18.9854Z" fill="#51A12C" stroke="#51A12C" stroke-width="0.1"/>
<path d="M19.4556 13.4708H10.2848C10.2269 13.4708 10.1713 13.4468 10.1304 13.4041C10.0894 13.3614 10.0664 13.3035 10.0664 13.2431C10.0664 13.1827 10.0894 13.1248 10.1304 13.0821C10.1713 13.0394 10.2269 13.0154 10.2848 13.0154H19.4556C19.5135 13.0154 19.569 13.0394 19.61 13.0821C19.6509 13.1248 19.6739 13.1827 19.6739 13.2431C19.6739 13.3035 19.6509 13.3614 19.61 13.4041C19.569 13.4468 19.5135 13.4708 19.4556 13.4708Z" fill="#51A12C"/>
<path d="M19.4556 12.3322H10.2848C10.2269 12.3322 10.1713 12.3082 10.1304 12.2655C10.0894 12.2228 10.0664 12.1648 10.0664 12.1044C10.0664 12.044 10.0894 11.9861 10.1304 11.9434C10.1713 11.9007 10.2269 11.8767 10.2848 11.8767H19.4556C19.5135 11.8767 19.569 11.9007 19.61 11.9434C19.6509 11.9861 19.6739 12.044 19.6739 12.1044C19.6739 12.1648 19.6509 12.2228 19.61 12.2655C19.569 12.3082 19.5135 12.3322 19.4556 12.3322Z" fill="#51A12C"/>
<path d="M19.4556 11.1937H10.2848C10.2269 11.1937 10.1713 11.1697 10.1304 11.127C10.0894 11.0843 10.0664 11.0264 10.0664 10.966C10.0664 10.9056 10.0894 10.8477 10.1304 10.805C10.1713 10.7623 10.2269 10.7383 10.2848 10.7383H19.4556C19.5135 10.7383 19.569 10.7623 19.61 10.805C19.6509 10.8477 19.6739 10.9056 19.6739 10.966C19.6739 11.0264 19.6509 11.0843 19.61 11.127C19.569 11.1697 19.5135 11.1937 19.4556 11.1937Z" fill="#51A12C"/>
<path d="M19.4556 10.0553H10.2848C10.2269 10.0553 10.1713 10.0313 10.1304 9.9886C10.0894 9.9459 10.0664 9.88798 10.0664 9.82758C10.0664 9.76718 10.0894 9.70926 10.1304 9.66655C10.1713 9.62385 10.2269 9.59985 10.2848 9.59985H19.4556C19.5135 9.59985 19.569 9.62385 19.61 9.66655C19.6509 9.70926 19.6739 9.76718 19.6739 9.82758C19.6739 9.88798 19.6509 9.9459 19.61 9.9886C19.569 10.0313 19.5135 10.0553 19.4556 10.0553Z" fill="#CEE4C3"/>
<path d="M19.4556 8.91663H10.2848C10.2269 8.91663 10.1713 8.89264 10.1304 8.84993C10.0894 8.80723 10.0664 8.7493 10.0664 8.68891C10.0664 8.62851 10.0894 8.57059 10.1304 8.52788C10.1713 8.48518 10.2269 8.46118 10.2848 8.46118H19.4556C19.5135 8.46118 19.569 8.48518 19.61 8.52788C19.6509 8.57059 19.6739 8.62851 19.6739 8.68891C19.6739 8.7493 19.6509 8.80723 19.61 8.84993C19.569 8.89264 19.5135 8.91663 19.4556 8.91663Z" fill="#CEE4C3"/>
<path d="M19.4556 7.77821H10.2848C10.2269 7.77821 10.1713 7.75421 10.1304 7.71151C10.0894 7.6688 10.0664 7.61088 10.0664 7.55048C10.0664 7.49008 10.0894 7.43216 10.1304 7.38945C10.1713 7.34675 10.2269 7.32275 10.2848 7.32275H19.4556C19.5135 7.32275 19.569 7.34675 19.61 7.38945C19.6509 7.43216 19.6739 7.49008 19.6739 7.55048C19.6739 7.61088 19.6509 7.6688 19.61 7.71151C19.569 7.75421 19.5135 7.77821 19.4556 7.77821Z" fill="#CEE4C3"/>
<path d="M19.4556 6.63953H10.2848C10.2269 6.63953 10.1713 6.61554 10.1304 6.57283C10.0894 6.53013 10.0664 6.4722 10.0664 6.41181C10.0664 6.35141 10.0894 6.29349 10.1304 6.25078C10.1713 6.20808 10.2269 6.18408 10.2848 6.18408H19.4556C19.5135 6.18408 19.569 6.20808 19.61 6.25078C19.6509 6.29349 19.6739 6.35141 19.6739 6.41181C19.6739 6.4722 19.6509 6.53013 19.61 6.57283C19.569 6.61554 19.5135 6.63953 19.4556 6.63953Z" fill="#51A12C"/>
<path d="M14.87 5.50135H10.2848C10.2561 5.50135 10.2277 5.49546 10.2012 5.48401C10.1747 5.47257 10.1506 5.4558 10.1304 5.43465C10.1101 5.4135 10.094 5.3884 10.083 5.36077C10.0721 5.33314 10.0664 5.30353 10.0664 5.27362C10.0664 5.24372 10.0721 5.2141 10.083 5.18648C10.094 5.15885 10.1101 5.13375 10.1304 5.1126C10.1506 5.09145 10.1747 5.07468 10.2012 5.06323C10.2277 5.05179 10.2561 5.0459 10.2848 5.0459H14.87C14.8987 5.0459 14.9271 5.05179 14.9536 5.06323C14.9801 5.07468 15.0042 5.09145 15.0244 5.1126C15.0447 5.13375 15.0608 5.15885 15.0718 5.18648C15.0827 5.2141 15.0884 5.24372 15.0884 5.27362C15.0884 5.30353 15.0827 5.33314 15.0718 5.36077C15.0608 5.3884 15.0447 5.4135 15.0244 5.43465C15.0042 5.4558 14.9801 5.47257 14.9536 5.48401C14.9271 5.49546 14.8987 5.50135 14.87 5.50135Z" fill="#51A12C"/>
</g>
<defs>
<clipPath id="clip0_1848_19027">
<rect width="24" height="24" fill="white" transform="translate(0.99707)"/>
</clipPath>
</defs>
</svg>
