<svg width="12" height="12" viewBox="0 0 12 12" fill="none" xmlns="http://www.w3.org/2000/svg">
<path d="M0.0869141 9.5625C0.0869141 10.5188 0.801354 11.25 1.73562 11.25L9.42959 11.25C10.3639 11.25 11.0783 10.5188 11.0783 9.5625V5.0625L0.0869141 5.0625V9.5625ZM9.42959 1.125L8.33045 1.125V0.5625C8.33045 0.225 8.11062 0 7.78088 0C7.45114 0 7.23131 0.225 7.23131 0.5625V1.125L3.9339 1.125V0.5625C3.9339 0.225 3.71407 0 3.38433 0C3.05459 0 2.83476 0.225 2.83476 0.5625V1.125L1.73562 1.125C0.801354 1.125 0.0869141 1.85625 0.0869141 2.8125V3.9375L11.0783 3.9375V2.8125C11.0783 1.85625 10.3639 1.125 9.42959 1.125Z" fill="#222222"/>
</svg>
