<svg width="11" height="7" viewBox="0 0 11 7" fill="none" xmlns="http://www.w3.org/2000/svg">
<path d="M5.29776 6.73319L1.04676 2.48219C0.976857 2.41276 0.921379 2.33019 0.88352 2.23923C0.845662 2.14827 0.826172 2.05072 0.826172 1.95219C0.826172 1.85367 0.845662 1.75612 0.88352 1.66516C0.921379 1.5742 0.976857 1.49162 1.04676 1.42219L1.75276 0.716194C1.82219 0.646291 1.90476 0.590812 1.99572 0.552954C2.08668 0.515095 2.18424 0.495605 2.28276 0.495605C2.38128 0.495605 2.47884 0.515095 2.5698 0.552954C2.66076 0.590812 2.74333 0.64629 2.81276 0.716194L5.82976 3.73019L8.84276 0.717194C8.91219 0.647291 8.99476 0.591812 9.08572 0.553954C9.17668 0.516095 9.27424 0.496605 9.37276 0.496605C9.47128 0.496605 9.56884 0.516095 9.6598 0.553954C9.75076 0.591812 9.83333 0.647291 9.90276 0.717194L10.6088 1.42319C10.6787 1.49262 10.7341 1.5752 10.772 1.66616C10.8099 1.75712 10.8293 1.85467 10.8293 1.95319C10.8293 2.05172 10.8099 2.14927 10.772 2.24023C10.7341 2.33119 10.6787 2.41376 10.6088 2.48319L6.35376 6.73319C6.28467 6.80298 6.20244 6.85837 6.11181 6.89618C6.02118 6.93398 5.92396 6.95345 5.82576 6.95345C5.72756 6.95345 5.63034 6.93398 5.53971 6.89618C5.44908 6.85837 5.36685 6.80298 5.29776 6.73319Z" fill="#222222"/>
</svg>
