<svg width="47" height="60" viewBox="0 0 47 60" fill="none" xmlns="http://www.w3.org/2000/svg">
<path d="M18.6936 0.825684H44.0098V45.9577H10.2549V9.28793L18.6936 0.825684Z" fill="white"/>
<path d="M41.1963 0.825684H44.0092V45.9577H41.1963V0.825684Z" fill="#CEE4C3"/>
<path d="M10.2549 9.28793H18.6936V0.825684L10.2549 9.28793Z" fill="#CEE4C3"/>
<path d="M14.9395 13.0459H39.3192V16.8078H14.9395V13.0459Z" fill="#CEE4C3"/>
<path d="M45.8885 38.4353L44.0134 40.3155L42.1377 38.4353V8.34546H45.8885V38.4353Z" fill="#CEE4C3"/>
<path d="M42.1377 8.34546H45.8885V12.1067H42.1377V8.34546Z" fill="#CEE4C3"/>
<path d="M45.8885 33.7358V38.4376L44.0134 40.3178L42.1377 38.4376V33.7358H45.8885Z" fill="#CEE4C3"/>
<path d="M19.6302 45.9576C19.6302 47.8173 19.0802 49.6353 18.0499 51.1815C17.0196 52.7278 15.5552 53.933 13.8418 54.6446C12.1285 55.3563 10.2432 55.5425 8.42428 55.1797C6.60539 54.8169 4.93464 53.9214 3.6233 52.6064C2.31196 51.2914 1.41892 49.616 1.05713 47.792C0.695328 45.9681 0.881016 44.0775 1.59071 42.3594C2.3004 40.6413 3.50222 39.1728 5.0442 38.1396C6.58617 37.1064 8.39904 36.5549 10.2536 36.5549C11.4849 36.5549 12.7042 36.7981 13.8418 37.2707C14.9795 37.7432 16.0131 38.4358 16.8838 39.3089C17.7545 40.182 18.4452 41.2186 18.9164 42.3594C19.3876 43.5002 19.6302 44.7229 19.6302 45.9576Z" fill="#EDF5E9"/>
<path d="M10.2551 36.5549C9.78432 36.5551 9.31421 36.5903 8.84863 36.6602C11.0664 36.998 13.0899 38.1217 14.5521 39.8275C16.0143 41.5334 16.8183 43.7082 16.8183 45.9577C16.8183 48.2071 16.0143 50.3819 14.5521 52.0878C13.0899 53.7936 11.0664 54.9173 8.84863 55.2551C10.125 55.4495 11.4277 55.3776 12.675 55.0437C13.9224 54.7099 15.0875 54.1213 16.0975 53.315C17.1076 52.5086 17.9406 51.5018 18.5446 50.3576C19.1486 49.2134 19.5105 47.9565 19.6076 46.6655C19.7047 45.3746 19.5349 44.0775 19.1089 42.8554C18.6829 41.6333 18.0098 40.5126 17.1318 39.5634C16.2538 38.6143 15.1899 37.8571 14.0066 37.3395C12.8233 36.8218 11.5461 36.5547 10.2551 36.5549Z" fill="#CEE4C3"/>
<path d="M10.2563 51.596C9.88688 51.596 9.52109 51.523 9.17981 51.3813C8.83854 51.2395 8.52845 51.0318 8.26724 50.7698C8.00604 50.5079 7.79884 50.1969 7.65748 49.8547C7.51612 49.5125 7.44336 49.1457 7.44336 48.7753V46.8943H13.0692V48.7753C13.0692 49.1457 12.9964 49.5125 12.8551 49.8547C12.7137 50.1969 12.5065 50.5079 12.2453 50.7698C11.9841 51.0318 11.674 51.2395 11.3327 51.3813C10.9914 51.523 10.6257 51.596 10.2563 51.596Z" fill="#CEE4C3"/>
<path d="M11.0788 10.2256H19.5176V1.76262H43.0767V4.58337H44.8338V0H18.3313L9.31836 8.92044V33.7334H11.0788V10.2256ZM12.3824 8.46293L17.7612 2.95147V8.46224L12.3824 8.46293Z" fill="#51A12C"/>
<path d="M43.0726 45.1356H22.4443V46.8982H44.8317V43.137H43.0726V45.1356Z" fill="#51A12C"/>
<path d="M14.0059 17.7487H36.5092V15.9854H15.7636V13.9902H36.5098V12.2207H14.0065L14.0059 17.7487Z" fill="#51A12C"/>
<path d="M14.0059 25.4331H39.3221V27.1964H14.0059V25.4331Z" fill="#CEE4C3"/>
<path d="M22.4443 40.3176H41.1982V42.0803H22.4443V40.3176Z" fill="#51A12C"/>
<path d="M14.0059 20.8127H36.5092V22.576H14.0059V20.8127Z" fill="#51A12C"/>
<path d="M14.0059 30.0481H39.3221V31.8107H14.0059V30.0481Z" fill="#CEE4C3"/>
<path d="M44.8302 7.52361V6.46411H43.0718V7.52361H41.1967V11.2848H38.3838V22.4529H40.1422V13.0461H41.1967V38.7995L43.9513 41.5618L46.7059 38.7995V7.52361H44.8302ZM42.9551 9.28624H44.9447V11.2814H42.9551V9.28624ZM44.9447 13.0475V32.9103H42.9551V13.0461L44.9447 13.0475ZM43.9485 39.0699L42.9524 38.0702V34.6737H44.942V38.0702L43.9485 39.0699Z" fill="#51A12C"/>
<path d="M17.1772 56.0213C15.1171 57.4757 12.6562 58.2503 10.1367 58.2373V59.9999C12.9775 60.0025 15.7522 59.1408 18.0943 57.5287C20.4364 55.9166 22.2357 53.6299 23.2545 50.9708L21.6079 50.3406C20.7318 52.6364 19.1882 54.6155 17.1772 56.0213Z" fill="#51A12C"/>
<path d="M20.5123 45.9551C20.5123 43.921 19.9108 41.9326 18.7838 40.2413C17.6569 38.5499 16.0551 37.2317 14.181 36.4533C12.3069 35.6749 10.2448 35.4712 8.25528 35.868C6.26578 36.2649 4.43831 37.2444 3.00396 38.6827C1.56961 40.1211 0.59281 41.9537 0.197074 43.9487C-0.198662 45.9437 0.0044438 48.0116 0.780708 49.8909C1.55697 51.7702 2.87153 53.3765 4.55814 54.5066C6.24476 55.6367 8.22768 56.2399 10.2562 56.2399C12.9753 56.2368 15.5822 55.1522 17.5049 53.2241C19.4277 51.296 20.5092 48.6819 20.5123 45.9551ZM1.75842 45.9551C1.75842 44.2698 2.2568 42.6222 3.19055 41.2209C4.12429 39.8196 5.45145 38.7273 7.00421 38.0824C8.55697 37.4374 10.2656 37.2686 11.914 37.5975C13.5624 37.9263 15.0765 38.7378 16.265 39.9296C17.4534 41.1213 18.2627 42.6397 18.5906 44.2927C18.9185 45.9457 18.7502 47.6591 18.107 49.2161C17.4639 50.7732 16.3747 52.1041 14.9772 53.0404C13.5798 53.9768 11.9369 54.4765 10.2562 54.4765C8.00284 54.4745 5.84236 53.5762 4.24883 51.9786C2.6553 50.381 1.7589 48.2147 1.75636 45.9551H1.75842Z" fill="#51A12C"/>
<path d="M13.8881 48.7773V46.0742H6.50391V48.7773C6.50391 49.2635 6.59941 49.745 6.78495 50.1942C6.9705 50.6434 7.24246 51.0515 7.5853 51.3953C7.92815 51.7391 8.33516 52.0118 8.78311 52.1979C9.23106 52.384 9.71117 52.4797 10.196 52.4797C10.6809 52.4797 11.161 52.384 11.6089 52.1979C12.0569 52.0118 12.4639 51.7391 12.8067 51.3953C13.1496 51.0515 13.4216 50.6434 13.6071 50.1942C13.7926 49.745 13.8881 49.2635 13.8881 48.7773ZM8.26232 48.7773V47.8368H12.1304V48.7773C12.1304 49.032 12.0804 49.2842 11.9832 49.5195C11.886 49.7548 11.7435 49.9686 11.5639 50.1487C11.3844 50.3288 11.1711 50.4716 10.9365 50.5691C10.7018 50.6666 10.4504 50.7167 10.1964 50.7167C9.94239 50.7167 9.69089 50.6666 9.45624 50.5691C9.22159 50.4716 9.00838 50.3288 8.82879 50.1487C8.6492 49.9686 8.50673 49.7548 8.40954 49.5195C8.31234 49.2842 8.26232 49.032 8.26232 48.7773Z" fill="#51A12C"/>
<path d="M7.49917 44.0776H9.2569C9.26266 43.7112 9.19568 43.3474 9.05986 43.0072C8.92403 42.667 8.72207 42.3574 8.46575 42.0963C8.20942 41.8351 7.90384 41.6277 7.56681 41.4862C7.22978 41.3446 6.86804 41.2717 6.50264 41.2717C6.13725 41.2717 5.7755 41.3446 5.43847 41.4862C5.10144 41.6277 4.79587 41.8351 4.53954 42.0963C4.28321 42.3574 4.08125 42.667 3.94543 43.0072C3.8096 43.3474 3.74262 43.7112 3.74839 44.0776H5.50611C5.5195 43.8221 5.63015 43.5814 5.81525 43.4053C6.00034 43.2292 6.24577 43.131 6.50093 43.131C6.75608 43.131 7.00151 43.2292 7.1866 43.4053C7.3717 43.5814 7.48235 43.8221 7.49574 44.0776H7.49917Z" fill="#51A12C"/>
<path d="M14.0075 43.078C14.2716 43.0784 14.5248 43.1837 14.7115 43.371C14.8983 43.5583 15.0033 43.8121 15.0037 44.077H16.7621C16.7621 43.3444 16.4719 42.6418 15.9553 42.1237C15.4387 41.6057 14.7381 41.3147 14.0075 41.3147C13.277 41.3147 12.5763 41.6057 12.0597 42.1237C11.5431 42.6418 11.2529 43.3444 11.2529 44.077H13.0107C13.011 43.812 13.1162 43.558 13.3031 43.3707C13.49 43.1835 13.7433 43.0782 14.0075 43.078Z" fill="#51A12C"/>
</svg>
