<svg width="16" height="13" viewBox="0 0 16 13" fill="none" xmlns="http://www.w3.org/2000/svg">
<path fill-rule="evenodd" clip-rule="evenodd" d="M0 6.4933C1.06812 3.09192 4.24565 0.624512 8 0.624512C11.7543 0.624512 14.9319 3.09192 16 6.4933C14.9319 9.89469 11.7543 12.3621 8 12.3621C4.24565 12.3621 1.06812 9.89469 0 6.4933ZM11.3536 6.4933C11.3536 7.38273 11.0003 8.23573 10.3714 8.86465C9.74243 9.49357 8.88943 9.8469 8 9.8469C7.11057 9.8469 6.25757 9.49357 5.62865 8.86465C4.99973 8.23573 4.64641 7.38273 4.64641 6.4933C4.64641 5.60387 4.99973 4.75087 5.62865 4.12195C6.25757 3.49303 7.11057 3.13971 8 3.13971C8.88943 3.13971 9.74243 3.49303 10.3714 4.12195C11.0003 4.75087 11.3536 5.60387 11.3536 6.4933Z" fill="black"/>
</svg>
