<svg width="24" height="23" viewBox="0 0 24 23" fill="none" xmlns="http://www.w3.org/2000/svg">
<path d="M3.46094 8.87305V4.125H6.74219V5.16406H4.72852V5.98047H6.54102V7.01758H4.72852V8.87305H3.46094ZM3.25586 0H16.2441C17.1072 0.00154897 17.9344 0.345073 18.5447 0.95533C19.1549 1.56559 19.4985 2.39283 19.5 3.25586V10.0312C19.4969 10.8933 19.1527 11.719 18.5426 12.328C17.9325 12.937 17.1062 13.2797 16.2441 13.2812H8.87891L3.9375 17.5352C3.85551 17.6045 3.75496 17.6483 3.64833 17.6611C3.5417 17.6739 3.43366 17.6551 3.3376 17.607C3.24154 17.559 3.16168 17.4838 3.10792 17.3909C3.05416 17.2979 3.02886 17.1912 3.03516 17.084L3.29883 13.2812H3.25586C2.39384 13.2797 1.56748 12.937 0.957392 12.328C0.347303 11.719 0.0030957 10.8933 0 10.0312L0 3.25586C0.00154897 2.39283 0.345073 1.56559 0.95533 0.95533C1.56559 0.345073 2.39283 0.00154897 3.25586 0ZM21.4199 4.81445C22.1458 4.95678 22.8001 5.34564 23.2721 5.91515C23.7441 6.48465 24.0047 7.1998 24.0098 7.93945V15.2051C24.0072 16.05 23.6703 16.8596 23.0726 17.4568C22.475 18.0541 21.6652 18.3905 20.8203 18.3926H20.7031L20.9648 22.2656C20.9679 22.3576 20.9446 22.4484 20.8976 22.5275C20.8505 22.6065 20.7818 22.6704 20.6995 22.7115C20.6173 22.7527 20.5249 22.7693 20.4335 22.7595C20.342 22.7497 20.2553 22.7139 20.1836 22.6562L15.2129 18.2676H7.47266L10.6914 14.9941H18.7148C19.4318 14.9916 20.1187 14.7055 20.6255 14.1983C21.1323 13.6911 21.4179 13.0041 21.4199 12.2871V5.0293C21.4199 4.95703 21.4199 4.88477 21.4199 4.81445ZM16.252 1.10352H3.25586C2.68596 1.10864 2.141 1.33798 1.73891 1.74189C1.33683 2.1458 1.10997 2.6918 1.10742 3.26172V10.0312C1.11255 10.6012 1.34189 11.1461 1.7458 11.5482C2.14971 11.9503 2.6957 12.1771 3.26562 12.1797H3.93359C4.00548 12.1846 4.07567 12.2037 4.14014 12.2359C4.20462 12.2681 4.2621 12.3127 4.30929 12.3671C4.35648 12.4216 4.39244 12.4848 4.41512 12.5532C4.43779 12.6216 4.44672 12.6938 4.44141 12.7656L4.21875 15.8535L8.29492 12.3379C8.34627 12.2869 8.40725 12.2467 8.47432 12.2195C8.54139 12.1923 8.61319 12.1788 8.68555 12.1797H16.2422C16.8104 12.1746 17.3539 11.9466 17.7557 11.5448C18.1575 11.143 18.3855 10.5995 18.3906 10.0312V3.25586C18.3855 2.68764 18.1575 2.14413 17.7557 1.74232C17.3539 1.34051 16.8104 1.11252 16.2422 1.10742L16.252 1.10352ZM7.85352 8.87891H6.48633L8.00781 4.125H9.74023L11.2793 8.87305H9.91211L8.89258 5.43359H8.85547L7.83594 8.87305L7.85352 8.87891ZM7.59766 7.00586H10.1562V7.9707H7.58008V7L7.59766 7.00586ZM13.3301 7.11719H14.3066L14.6484 7.56641L15.25 8.25977L16.0312 9.23633H14.916L14.3613 8.57812L13.9863 8.0293L13.3125 7.12109L13.3301 7.11719ZM16.0469 6.50586C16.0617 6.96995 15.9568 7.43004 15.7422 7.8418C15.5555 8.18989 15.271 8.47572 14.9238 8.66406C14.5687 8.84829 14.1745 8.94446 13.7744 8.94446C13.3743 8.94446 12.9801 8.84829 12.625 8.66406C12.2786 8.47355 11.995 8.18654 11.8086 7.83789C11.5962 7.42755 11.4927 6.9696 11.5078 6.50781C11.4922 6.04411 11.5957 5.58414 11.8086 5.17188C11.995 4.82375 12.2787 4.53737 12.625 4.34766C12.9803 4.16406 13.3745 4.06825 13.7744 4.06825C14.1744 4.06825 14.5685 4.16406 14.9238 4.34766C15.2707 4.53734 15.555 4.82368 15.7422 5.17188C15.9573 5.58344 16.0623 6.04367 16.0469 6.50781V6.50586ZM14.7422 6.50586C14.7488 6.26152 14.7111 6.01799 14.6309 5.78711C14.5707 5.60856 14.4576 5.45255 14.3066 5.33984C14.1473 5.24149 13.9637 5.1894 13.7764 5.1894C13.5891 5.1894 13.4055 5.24149 13.2461 5.33984C13.0951 5.45296 12.9815 5.60876 12.9199 5.78711C12.8413 6.01836 12.8043 6.2617 12.8105 6.50586C12.7985 6.74962 12.8296 6.99359 12.9023 7.22656C12.9639 7.40437 13.0776 7.55953 13.2285 7.67188C13.3875 7.77132 13.5713 7.82405 13.7588 7.82405C13.9463 7.82405 14.1301 7.77132 14.2891 7.67188C14.44 7.55995 14.5531 7.40457 14.6133 7.22656C14.6934 6.99565 14.7311 6.75215 14.7246 6.50781L14.7422 6.50586Z" fill="#47A838"/>
</svg>
