<svg width="119" height="43" viewBox="0 0 119 43" fill="none" xmlns="http://www.w3.org/2000/svg">
<path d="M42.111 5.48256L51.1453 24.5838L51.175 24.6478L51.2553 24.8144H48.8125L48.7798 24.7475L48.7667 24.7217L45.7868 18.5371H37.6067L34.6441 24.7217L34.6316 24.7469L34.6001 24.815H32.0752L32.1555 24.6478L32.1864 24.5838L41.3283 5.48256L41.3408 5.45732L41.3741 5.38984H42.0676L42.1003 5.4585L42.1128 5.48373L42.111 5.48256ZM41.7197 9.94204L38.6494 16.3484H44.7757L41.7197 9.9391V9.94204ZM53.9812 5.3916H56.0874V22.6275H63.5573V24.8144H53.8153V5.38867H53.9806L53.9812 5.3916ZM66.4349 5.3916H70.2956C70.8377 5.3916 71.3472 5.39747 71.8242 5.40921C72.2933 5.42016 72.7138 5.43777 73.0858 5.46202C73.4593 5.4849 73.793 5.51541 74.0826 5.55179C74.3295 5.58017 74.5744 5.62308 74.816 5.6803C75.0938 5.7475 75.366 5.83538 75.6303 5.94317C75.8865 6.04702 76.1336 6.17165 76.369 6.31577C76.8034 6.58152 77.1942 6.91118 77.5276 7.29334L77.6115 7.39133C77.793 7.6059 77.9536 7.83695 78.0909 8.08137C78.2289 8.32854 78.3438 8.5876 78.4341 8.85533C78.5263 9.13376 78.5945 9.41935 78.6381 9.70909C78.6842 10.0178 78.707 10.3294 78.7065 10.6415C78.7072 10.9546 78.6849 11.2674 78.6399 11.5774C78.5977 11.8669 78.5312 12.1524 78.4412 12.4311C78.3543 12.6984 78.2428 12.9572 78.1082 13.2045C77.9743 13.448 77.8174 13.6785 77.6395 13.8928C77.4635 14.1047 77.2691 14.3011 77.0584 14.4796C76.8458 14.6595 76.618 14.821 76.3773 14.9625C76.1284 15.1083 75.868 15.2343 75.5988 15.3392C75.314 15.4507 75.0216 15.5422 74.7238 15.6132C74.4534 15.6744 74.1798 15.721 73.9042 15.7529C73.587 15.792 73.2206 15.8246 72.805 15.8508C72.3964 15.8761 71.9361 15.896 71.4239 15.9095C70.9118 15.923 70.3533 15.9289 69.7585 15.9289H68.5386V24.8144H66.2695V5.38867H66.4343L66.4349 5.3916ZM68.541 7.57851V13.7437L71.6101 13.7813H71.6571C71.9894 13.7813 72.2959 13.7739 72.5766 13.759C72.8574 13.7449 73.1185 13.7226 73.3606 13.6933C73.6026 13.6639 73.812 13.6276 74.0035 13.5847C74.176 13.5467 74.3453 13.4963 74.5103 13.4339C74.6539 13.3786 74.7931 13.3127 74.9267 13.2368C75.055 13.165 75.1773 13.0831 75.2924 12.9921C75.5242 12.8082 75.725 12.5891 75.8872 12.3431C75.9692 12.2185 76.0422 12.0883 76.1055 11.9535C76.1675 11.8205 76.2196 11.6832 76.2613 11.5428C76.3031 11.4 76.3343 11.2545 76.3547 11.1074C76.3758 10.9549 76.3863 10.8012 76.3863 10.6473C76.3874 10.3513 76.3453 10.0567 76.2613 9.77246C76.1341 9.34941 75.9153 8.95864 75.6202 8.62707C75.5247 8.52158 75.4211 8.4235 75.3103 8.33369C75.2008 8.2444 75.0844 8.16358 74.9623 8.09194C74.8369 8.01967 74.7061 7.9569 74.571 7.90417C74.4164 7.84472 74.2573 7.79762 74.0951 7.76334C73.8895 7.71777 73.6817 7.68272 73.4724 7.65831C73.2386 7.63015 72.9835 7.60961 72.7075 7.59553C72.4315 7.58144 72.1317 7.57558 71.8016 7.57558L68.541 7.57851ZM82.3674 5.3916H84.476V13.3952H94.0152V5.38867H96.2878V24.8144H94.0152V15.5833H84.476V24.8144H82.2033V5.38867H82.3686L82.3674 5.3916ZM108.895 5.48549L117.929 24.5867L117.96 24.6507L118.038 24.8173H115.596L115.563 24.7504L115.551 24.7246L112.571 18.54H104.386L101.424 24.7246L101.411 24.7504L101.379 24.8173H98.8573L98.9382 24.6501L98.9691 24.5861L108.111 5.4849L108.124 5.45967L108.155 5.39219H108.85L108.881 5.45967L108.894 5.48607L108.895 5.48549ZM108.504 9.94497L105.433 16.3543H111.56L108.502 9.9391L108.504 9.94497Z" fill="#FF6601"/>
<path d="M0 40.7201L0.910478 34.3982H1.01503L3.62013 39.5855L6.19909 34.3982H6.30364L7.22283 40.7201H6.59116L5.96385 36.199L3.69854 40.7201H3.53736L1.24156 36.1646L0.618602 40.7201H0Z" fill="#101010"/>
<path d="M10.6339 35.9239C11.3628 35.9239 11.9669 36.1846 12.4461 36.7061C12.8817 37.1817 13.0996 37.7447 13.0996 38.3951C13.0996 39.0483 12.8687 39.6199 12.4069 40.1098C11.948 40.5969 11.357 40.8404 10.6339 40.8404C9.9078 40.8404 9.31388 40.5969 8.85211 40.1098C8.39324 39.6199 8.16381 39.0483 8.16381 38.3951C8.16381 37.7476 8.38162 37.186 8.81726 36.7104C9.29646 36.1861 9.90199 35.9239 10.6339 35.9239ZM10.6339 36.5127C10.1285 36.5127 9.69434 36.6975 9.33131 37.0671C8.96828 37.4367 8.78676 37.8836 8.78676 38.408C8.78676 38.746 8.86953 39.0612 9.03508 39.3534C9.20062 39.6457 9.42424 39.872 9.70595 40.0325C9.98766 40.1901 10.297 40.2688 10.6339 40.2688C10.9707 40.2688 11.28 40.1901 11.5618 40.0325C11.8435 39.872 12.0671 39.6457 12.2326 39.3534C12.3982 39.0612 12.481 38.746 12.481 38.408C12.481 37.8836 12.298 37.4367 11.932 37.0671C11.569 36.6975 11.1363 36.5127 10.6339 36.5127Z" fill="#101010"/>
<path d="M14.2758 40.7201V34.2392H14.8813V36.8479C15.1369 36.5385 15.4229 36.3078 15.7395 36.156C16.0561 36.0013 16.4031 35.9239 16.7807 35.9239C17.4515 35.9239 18.0237 36.1646 18.4971 36.6459C18.9734 37.1244 19.2115 37.706 19.2115 38.3908C19.2115 39.0669 18.9719 39.6443 18.4927 40.1227C18.0135 40.6012 17.437 40.8404 16.7632 40.8404C16.377 40.8404 16.027 40.7588 15.7134 40.5955C15.3997 40.4322 15.1224 40.1872 14.8813 39.8606V40.7201H14.2758ZM16.7153 40.2603C17.0551 40.2603 17.3688 40.1786 17.6563 40.0153C17.9438 39.8491 18.1718 39.617 18.3402 39.3191C18.5116 39.0211 18.5973 38.7059 18.5973 38.3736C18.5973 38.0412 18.5116 37.7246 18.3402 37.4238C18.1689 37.123 17.938 36.8895 17.6476 36.7233C17.3601 36.5542 17.0522 36.4697 16.724 36.4697C16.3901 36.4697 16.072 36.5542 15.77 36.7233C15.4709 36.8895 15.24 37.1144 15.0773 37.398C14.9176 37.6817 14.8377 38.0011 14.8377 38.3564C14.8377 38.8979 15.0178 39.3506 15.3779 39.7144C15.741 40.0783 16.1868 40.2603 16.7153 40.2603Z" fill="#101010"/>
<path d="M20.5402 34.1189C20.6796 34.1189 20.7987 34.1676 20.8974 34.265C20.9962 34.3624 21.0455 34.4799 21.0455 34.6174C21.0455 34.7521 20.9962 34.8681 20.8974 34.9655C20.7987 35.0629 20.6796 35.1117 20.5402 35.1117C20.4037 35.1117 20.2861 35.0629 20.1873 34.9655C20.0886 34.8681 20.0392 34.7521 20.0392 34.6174C20.0392 34.4799 20.0886 34.3624 20.1873 34.265C20.2861 34.1676 20.4037 34.1189 20.5402 34.1189ZM20.2353 36.0442H20.8495V40.7201H20.2353V36.0442Z" fill="#101010"/>
<path d="M22.0214 34.2392H22.6313V40.7201H22.0214V34.2392Z" fill="#101010"/>
<path d="M27.8894 39.1686L28.4034 39.4351C28.235 39.7617 28.0404 40.0253 27.8197 40.2259C27.5989 40.4264 27.3506 40.5797 27.0747 40.6857C26.7988 40.7889 26.4866 40.8404 26.1381 40.8404C25.3656 40.8404 24.7615 40.5912 24.3259 40.0926C23.8902 39.5912 23.6724 39.0254 23.6724 38.3951C23.6724 37.802 23.8568 37.2734 24.2257 36.8092C24.6933 36.219 25.3191 35.9239 26.1033 35.9239C26.9106 35.9239 27.5554 36.2262 28.0375 36.8307C28.3802 37.2576 28.5544 37.7905 28.5602 38.4294H24.2997C24.3114 38.9738 24.4871 39.4208 24.8269 39.7703C25.1666 40.117 25.5863 40.2903 26.0858 40.2903C26.3269 40.2903 26.5607 40.2488 26.7872 40.1657C27.0166 40.0826 27.2112 39.9723 27.371 39.8348C27.5307 39.6973 27.7035 39.4752 27.8894 39.1686ZM27.8894 37.9094C27.8081 37.5885 27.689 37.3321 27.5321 37.1402C27.3782 36.9482 27.1735 36.7935 26.9179 36.676C26.6623 36.5585 26.3937 36.4998 26.112 36.4998C25.6473 36.4998 25.248 36.6474 24.914 36.9425C24.67 37.1573 24.4856 37.4797 24.3607 37.9094H27.8894Z" fill="#101010"/>
<path d="M36.1664 39.1686L36.6805 39.4351C36.512 39.7617 36.3175 40.0253 36.0967 40.2259C35.876 40.4264 35.6277 40.5797 35.3518 40.6857C35.0759 40.7889 34.7637 40.8404 34.4152 40.8404C33.6427 40.8404 33.0386 40.5912 32.6029 40.0926C32.1673 39.5912 31.9495 39.0254 31.9495 38.3951C31.9495 37.802 32.1339 37.2734 32.5027 36.8092C32.9703 36.219 33.5962 35.9239 34.3803 35.9239C35.1877 35.9239 35.8325 36.2262 36.3146 36.8307C36.6573 37.2576 36.8315 37.7905 36.8373 38.4294H32.5768C32.5884 38.9738 32.7641 39.4208 33.1039 39.7703C33.4437 40.117 33.8634 40.2903 34.3629 40.2903C34.604 40.2903 34.8378 40.2488 35.0643 40.1657C35.2937 40.0826 35.4883 39.9723 35.648 39.8348C35.8078 39.6973 35.9806 39.4752 36.1664 39.1686ZM36.1664 37.9094C36.0851 37.5885 35.966 37.3321 35.8092 37.1402C35.6553 36.9482 35.4505 36.7935 35.195 36.676C34.9394 36.5585 34.6708 36.4998 34.389 36.4998C33.9244 36.4998 33.525 36.6474 33.1911 36.9425C32.9471 37.1573 32.7627 37.4797 32.6378 37.9094H36.1664Z" fill="#101010"/>
<path d="M38.0789 34.3982H38.7236V40.1098H41.185V40.7201H38.0789V34.3982Z" fill="#101010"/>
<path d="M46.0902 39.1686L46.6043 39.4351C46.4358 39.7617 46.2412 40.0253 46.0205 40.2259C45.7998 40.4264 45.5515 40.5797 45.2756 40.6857C44.9997 40.7889 44.6875 40.8404 44.339 40.8404C43.5664 40.8404 42.9623 40.5912 42.5267 40.0926C42.0911 39.5912 41.8733 39.0254 41.8733 38.3951C41.8733 37.802 42.0577 37.2734 42.4265 36.8092C42.8941 36.219 43.52 35.9239 44.3041 35.9239C45.1115 35.9239 45.7562 36.2262 46.2383 36.8307C46.581 37.2576 46.7553 37.7905 46.7611 38.4294H42.5006C42.5122 38.9738 42.6879 39.4208 43.0277 39.7703C43.3675 40.117 43.7872 40.2903 44.2867 40.2903C44.5277 40.2903 44.7615 40.2488 44.9881 40.1657C45.2175 40.0826 45.4121 39.9723 45.5718 39.8348C45.7315 39.6973 45.9043 39.4752 46.0902 39.1686ZM46.0902 37.9094C46.0089 37.5885 45.8898 37.3321 45.733 37.1402C45.5791 36.9482 45.3743 36.7935 45.1187 36.676C44.8632 36.5585 44.5945 36.4998 44.3128 36.4998C43.8481 36.4998 43.4488 36.6474 43.1148 36.9425C42.8709 37.1573 42.6864 37.4797 42.5616 37.9094H46.0902Z" fill="#101010"/>
<path d="M52.6247 36.0442V40.7201H52.0236V39.9164C51.768 40.223 51.4805 40.4536 51.161 40.6084C50.8444 40.7631 50.4974 40.8404 50.1198 40.8404C49.449 40.8404 48.8754 40.6012 48.3991 40.1227C47.9257 39.6414 47.689 39.0569 47.689 38.3693C47.689 37.696 47.9286 37.1201 48.4078 36.6416C48.887 36.1631 49.4635 35.9239 50.1373 35.9239C50.5264 35.9239 50.8778 36.0056 51.1915 36.1689C51.5081 36.3322 51.7854 36.5772 52.0236 36.9038V36.0442H52.6247ZM50.1852 36.5041C49.8454 36.5041 49.5317 36.5872 49.2442 36.7534C48.9567 36.9167 48.7273 37.1473 48.5559 37.4453C48.3875 37.7433 48.3032 38.0584 48.3032 38.3908C48.3032 38.7203 48.3889 39.0354 48.5603 39.3363C48.7316 39.6371 48.961 39.872 49.2486 40.0411C49.539 40.2072 49.8497 40.2903 50.1808 40.2903C50.5148 40.2903 50.8314 40.2072 51.1305 40.0411C51.4296 39.8749 51.6591 39.65 51.8188 39.3663C51.9815 39.0827 52.0628 38.7632 52.0628 38.408C52.0628 37.8665 51.8813 37.4138 51.5182 37.0499C51.1581 36.686 50.7138 36.5041 50.1852 36.5041Z" fill="#101010"/>
<path d="M53.7705 36.0442H54.3934V36.7276C54.5793 36.4583 54.7753 36.2577 54.9815 36.1259C55.1877 35.9912 55.4026 35.9239 55.6263 35.9239C55.7947 35.9239 55.9748 35.9769 56.1665 36.0829L55.8484 36.5901C55.7207 36.5356 55.6132 36.5084 55.5261 36.5084C55.3228 36.5084 55.1267 36.5915 54.938 36.7577C54.7492 36.921 54.6054 37.176 54.5067 37.5226C54.4312 37.7891 54.3934 38.3277 54.3934 39.1386V40.7201H53.7705V36.0442Z" fill="#101010"/>
<path d="M56.6849 36.0442H57.2948V36.8823C57.5387 36.5614 57.8088 36.3222 58.105 36.1646C58.4013 36.0041 58.7236 35.9239 59.0721 35.9239C59.4265 35.9239 59.7401 36.0127 60.0131 36.1904C60.289 36.368 60.4923 36.6072 60.623 36.9081C60.7537 37.2089 60.819 37.6774 60.819 38.3134V40.7201H60.2135V38.4896C60.2135 37.951 60.1903 37.5914 60.1438 37.4109C60.0712 37.1015 59.9347 36.8694 59.7343 36.7147C59.5339 36.5571 59.2725 36.4783 58.9502 36.4783C58.5813 36.4783 58.2502 36.5986 57.9569 36.8393C57.6665 37.08 57.4748 37.378 57.3819 37.7332C57.3238 37.9653 57.2948 38.3893 57.2948 39.0053V40.7201H56.6849V36.0442Z" fill="#101010"/>
<path d="M62.3438 34.1189C62.4832 34.1189 62.6022 34.1676 62.701 34.265C62.7997 34.3624 62.8491 34.4799 62.8491 34.6174C62.8491 34.7521 62.7997 34.8681 62.701 34.9655C62.6022 35.0629 62.4832 35.1117 62.3438 35.1117C62.2073 35.1117 62.0896 35.0629 61.9909 34.9655C61.8922 34.8681 61.8428 34.7521 61.8428 34.6174C61.8428 34.4799 61.8922 34.3624 61.9909 34.265C62.0896 34.1676 62.2073 34.1189 62.3438 34.1189ZM62.0388 36.0442H62.6531V40.7201H62.0388V36.0442Z" fill="#101010"/>
<path d="M63.9164 36.0442H64.5263V36.8823C64.7703 36.5614 65.0403 36.3222 65.3366 36.1646C65.6328 36.0041 65.9552 35.9239 66.3037 35.9239C66.658 35.9239 66.9717 36.0127 67.2447 36.1904C67.5206 36.368 67.7239 36.6072 67.8546 36.9081C67.9852 37.2089 68.0506 37.6774 68.0506 38.3134V40.7201H67.4451V38.4896C67.4451 37.951 67.4218 37.5914 67.3754 37.4109C67.3027 37.1015 67.1662 36.8694 66.9659 36.7147C66.7655 36.5571 66.5041 36.4783 66.1817 36.4783C65.8129 36.4783 65.4818 36.5986 65.1885 36.8393C64.898 37.08 64.7064 37.378 64.6134 37.7332C64.5553 37.9653 64.5263 38.3893 64.5263 39.0053V40.7201H63.9164V36.0442Z" fill="#101010"/>
<path d="M73.4437 36.0442H74.058V39.7703C74.058 40.4264 73.9999 40.9063 73.8837 41.21C73.724 41.6398 73.4467 41.9707 73.0517 42.2028C72.6567 42.4349 72.1819 42.5509 71.6272 42.5509C71.2206 42.5509 70.8546 42.4936 70.5294 42.379C70.207 42.2673 69.9441 42.1154 69.7409 41.9234C69.5376 41.7343 69.3502 41.4564 69.1789 41.0897H69.841C70.0211 41.3991 70.2534 41.6283 70.5381 41.7773C70.8227 41.9263 71.1755 42.0008 71.5967 42.0008C72.012 42.0008 72.3619 41.9234 72.6465 41.7687C72.9341 41.6169 73.1388 41.4249 73.2608 41.1928C73.3828 40.9608 73.4437 40.5869 73.4437 40.0712V39.8305C73.2143 40.117 72.9341 40.3376 72.603 40.4923C72.2719 40.6442 71.9205 40.7201 71.5487 40.7201C71.1131 40.7201 70.7036 40.6141 70.3202 40.4021C69.9369 40.1872 69.6407 39.8992 69.4315 39.5382C69.2224 39.1772 69.1179 38.7804 69.1179 38.3478C69.1179 37.9152 69.2268 37.5126 69.4446 37.1402C69.6624 36.7648 69.963 36.4683 70.3464 36.2505C70.7327 36.0328 71.1392 35.9239 71.5662 35.9239C71.9205 35.9239 72.2501 35.997 72.5551 36.1431C72.8629 36.2863 73.1591 36.5242 73.4437 36.8565V36.0442ZM71.6446 36.5041C71.299 36.5041 70.9781 36.5872 70.6818 36.7534C70.3856 36.9167 70.1533 37.1444 69.9848 37.4367C69.8164 37.7261 69.7321 38.0398 69.7321 38.3779C69.7321 38.8907 69.9064 39.3148 70.2549 39.65C70.6034 39.9852 71.055 40.1528 71.6097 40.1528C72.1702 40.1528 72.6204 39.9866 72.9602 39.6543C73.3029 39.3219 73.4742 38.885 73.4742 38.3435C73.4742 37.9911 73.3958 37.6774 73.239 37.4023C73.0822 37.1244 72.86 36.9052 72.5725 36.7448C72.285 36.5843 71.9757 36.5041 71.6446 36.5041Z" fill="#101010"/>
<path d="M77.9352 34.3982H79.2116C79.9434 34.3982 80.4371 34.4298 80.6927 34.4928C81.0587 34.5816 81.3578 34.765 81.5901 35.0429C81.8225 35.3179 81.9386 35.6646 81.9386 36.0829C81.9386 36.5041 81.8254 36.8522 81.5988 37.1273C81.3723 37.3994 81.0601 37.5828 80.6622 37.6774C80.3718 37.7461 79.8287 37.7805 79.033 37.7805H78.5755V40.7201H77.9352V34.3982ZM78.5755 35.0128V37.1616L79.6603 37.1745C80.0988 37.1745 80.4197 37.1359 80.623 37.0585C80.8263 36.9783 80.986 36.8508 81.1022 36.676C81.2184 36.4984 81.2765 36.3007 81.2765 36.0829C81.2765 35.8709 81.2184 35.6775 81.1022 35.5027C80.986 35.3251 80.8321 35.199 80.6404 35.1245C80.4517 35.0501 80.1409 35.0128 79.7082 35.0128H78.5755Z" fill="#101010"/>
<path d="M83.0277 34.2392H83.6376V40.7201H83.0277V34.2392Z" fill="#101010"/>
<path d="M89.6276 36.0442V40.7201H89.0264V39.9164C88.7709 40.223 88.4833 40.4536 88.1639 40.6084C87.8473 40.7631 87.5003 40.8404 87.1227 40.8404C86.4518 40.8404 85.8782 40.6012 85.4019 40.1227C84.9286 39.6414 84.6919 39.0569 84.6919 38.3693C84.6919 37.696 84.9314 37.1201 85.4107 36.6416C85.8898 36.1631 86.4663 35.9239 87.1401 35.9239C87.5293 35.9239 87.8807 36.0056 88.1944 36.1689C88.5109 36.3322 88.7883 36.5772 89.0264 36.9038V36.0442H89.6276ZM87.188 36.5041C86.8483 36.5041 86.5346 36.5872 86.2471 36.7534C85.9595 36.9167 85.7301 37.1473 85.5588 37.4453C85.3903 37.7433 85.3061 38.0584 85.3061 38.3908C85.3061 38.7203 85.3918 39.0354 85.5631 39.3363C85.7345 39.6371 85.9639 39.872 86.2514 40.0411C86.5419 40.2072 86.8526 40.2903 87.1837 40.2903C87.5177 40.2903 87.8342 40.2072 88.1334 40.0411C88.4325 39.8749 88.6619 39.65 88.8217 39.3663C88.9843 39.0827 89.0656 38.7632 89.0656 38.408C89.0656 37.8665 88.8841 37.4138 88.5211 37.0499C88.161 36.686 87.7166 36.5041 87.188 36.5041Z" fill="#101010"/>
<path d="M91.5357 34.308H92.1499V36.0442H93.117V36.56H92.1499V40.7201H91.5357V36.56H90.7036V36.0442H91.5357V34.308Z" fill="#101010"/>
<path d="M95.9792 34.2392V34.828C95.7555 34.7335 95.5639 34.6862 95.4041 34.6862C95.285 34.6862 95.1863 34.7105 95.1079 34.7592C95.0295 34.8051 94.9801 34.8595 94.9598 34.9226C94.9394 34.9827 94.9293 35.146 94.9293 35.4125V36.0442H95.9182V36.56H94.9249V40.7201H94.315V36.56H93.6921V36.0442H94.315V35.3136C94.315 34.9784 94.3455 34.7392 94.4065 34.5959C94.4704 34.4527 94.5764 34.3381 94.7245 34.2521C94.8756 34.1633 95.0571 34.1189 95.2691 34.1189C95.4666 34.1189 95.7033 34.159 95.9792 34.2392Z" fill="#101010"/>
<path d="M99.0765 35.9239C99.8055 35.9239 100.41 36.1846 100.889 36.7061C101.324 37.1817 101.542 37.7447 101.542 38.3951C101.542 39.0483 101.311 39.6199 100.85 40.1098C100.391 40.5969 99.7997 40.8404 99.0765 40.8404C98.3505 40.8404 97.7566 40.5969 97.2948 40.1098C96.8359 39.6199 96.6065 39.0483 96.6065 38.3951C96.6065 37.7476 96.8243 37.186 97.2599 36.7104C97.7391 36.1861 98.3447 35.9239 99.0765 35.9239ZM99.0765 36.5127C98.5712 36.5127 98.137 36.6975 97.774 37.0671C97.4109 37.4367 97.2294 37.8836 97.2294 38.408C97.2294 38.746 97.3122 39.0612 97.4777 39.3534C97.6433 39.6457 97.8669 39.872 98.1486 40.0325C98.4303 40.1901 98.7396 40.2688 99.0765 40.2688C99.4134 40.2688 99.7227 40.1901 100.004 40.0325C100.286 39.872 100.51 39.6457 100.675 39.3534C100.841 39.0612 100.924 38.746 100.924 38.408C100.924 37.8836 100.741 37.4367 100.375 37.0671C100.012 36.6975 99.579 36.5127 99.0765 36.5127Z" fill="#101010"/>
<path d="M102.448 36.0442H103.071V36.7276C103.257 36.4583 103.453 36.2577 103.659 36.1259C103.866 35.9912 104.081 35.9239 104.304 35.9239C104.473 35.9239 104.653 35.9769 104.844 36.0829L104.526 36.5901C104.399 36.5356 104.291 36.5084 104.204 36.5084C104.001 36.5084 103.805 36.5915 103.616 36.7577C103.427 36.921 103.283 37.176 103.185 37.5226C103.109 37.7891 103.071 38.3277 103.071 39.1386V40.7201H102.448V36.0442Z" fill="#101010"/>
<path d="M105.358 36.0442H105.964V36.8522C106.176 36.5542 106.394 36.3365 106.617 36.199C106.925 36.0156 107.249 35.9239 107.589 35.9239C107.818 35.9239 108.036 35.9683 108.242 36.0571C108.448 36.146 108.617 36.2649 108.748 36.4138C108.878 36.56 108.992 36.7706 109.087 37.0456C109.291 36.6789 109.545 36.401 109.85 36.2119C110.155 36.0199 110.483 35.9239 110.834 35.9239C111.163 35.9239 111.451 36.0056 111.701 36.1689C111.954 36.3322 112.141 36.56 112.263 36.8522C112.385 37.1444 112.446 37.5828 112.446 38.1673V40.7201H111.823V38.1673C111.823 37.6659 111.787 37.3221 111.714 37.1359C111.642 36.9468 111.517 36.7949 111.34 36.6803C111.165 36.5657 110.956 36.5084 110.712 36.5084C110.416 36.5084 110.145 36.5943 109.898 36.7663C109.654 36.9382 109.475 37.1674 109.362 37.4539C109.249 37.7404 109.192 38.2189 109.192 38.8893V40.7201H108.586V38.3263C108.586 37.7619 108.55 37.3794 108.478 37.1788C108.408 36.9754 108.284 36.8135 108.107 36.6932C107.93 36.57 107.72 36.5084 107.476 36.5084C107.194 36.5084 106.93 36.5929 106.683 36.762C106.439 36.9281 106.257 37.153 106.138 37.4367C106.022 37.7203 105.964 38.1544 105.964 38.7389V40.7201H105.358V36.0442Z" fill="#101010"/>
<path fill-rule="evenodd" clip-rule="evenodd" d="M2.04147 0.0509776H27.3758C27.9119 0.0519084 28.4257 0.262397 28.8048 0.636337C29.1838 1.01028 29.3972 1.51718 29.3981 2.04601V25.9183C29.3972 26.4471 29.1838 26.954 28.8048 27.328C28.4257 27.7019 27.9119 27.9124 27.3758 27.9133H2.0379C1.50185 27.9124 0.988024 27.7019 0.608978 27.328C0.229932 26.954 0.0165685 26.4471 0.015625 25.9183V2.04483C0.0165685 1.51601 0.229932 1.0091 0.608978 0.635164C0.988024 0.261224 1.50185 0.0507355 2.0379 0.0498047L2.04147 0.0509776Z" fill="#465511"/>
<path d="M18.8779 19.9093C18.4336 18.6096 17.9917 17.3081 17.542 16.009C16.8413 13.9911 16.1306 11.9767 15.4311 9.95877C15.0147 8.75354 14.5984 7.54537 14.2106 6.33075C14.1861 6.24177 14.181 6.14866 14.1958 6.0576C14.2105 5.96655 14.2448 5.87964 14.2962 5.80265C15.7832 4.0705 17.2833 2.35477 18.7833 0.634937C18.8287 0.591653 18.877 0.551464 18.9279 0.514648V19.8946L18.8773 19.9093H18.8779Z" fill="#838E39"/>
<path d="M0.581481 21.4876C4.58083 16.8897 8.53974 12.3375 12.498 7.78589L12.5944 7.83518C12.5189 8.02823 12.4386 8.22128 12.3696 8.41608C11.8705 9.81789 11.3775 11.2209 10.8743 12.6203C10.2848 14.2592 9.68173 15.8939 9.09348 17.5316C8.72828 18.5485 8.37974 19.5724 8.02286 20.5893C7.94911 20.7976 8.02881 20.8633 8.22034 20.8674C8.32085 20.8674 8.42018 20.8674 8.51773 20.8674C11.6618 20.8573 14.806 20.8471 17.9505 20.8369C18.1122 20.8369 18.2752 20.8269 18.4358 20.814C18.9116 20.7735 18.9295 20.7876 18.9295 21.2435V25.7118C18.9295 26.315 18.9295 26.9182 18.9295 27.5214C18.9295 27.9398 18.8986 27.9709 18.5131 27.8371C17.4342 27.4634 16.36 27.0743 15.2828 26.6959C14.008 26.2433 12.7324 25.7908 11.456 25.3386C9.8221 24.7577 8.18941 24.1704 6.55434 23.5912C5.06737 23.0631 3.5804 22.5462 2.09343 22.0228C1.6176 21.855 1.13761 21.6836 0.579102 21.4853L0.581481 21.4876Z" fill="#838E39"/>
<path d="M25.6973 22.9328L27.0451 23.6334L27.0844 23.6534L27.2426 23.7349L27.1617 23.8904L27.1415 23.9297C27.0277 24.1464 26.9087 24.3536 26.7846 24.5511C26.6605 24.7487 26.5334 24.9356 26.4033 25.1121C26.2719 25.2881 26.1339 25.4577 25.9941 25.6138C25.8544 25.7698 25.7057 25.9165 25.5552 26.0533C25.4023 26.1894 25.2477 26.3173 25.0912 26.4329C24.9348 26.5485 24.7695 26.6606 24.5994 26.7656C24.4292 26.8706 24.2532 26.9657 24.0759 27.0514C23.8976 27.1385 23.715 27.2169 23.5287 27.2861C23.3379 27.3581 23.1433 27.4202 22.9458 27.4721C22.7454 27.5243 22.5384 27.5689 22.3273 27.6035C22.1161 27.6381 21.8972 27.6622 21.673 27.6821C21.4488 27.7021 21.2204 27.7085 20.9866 27.7085C20.4894 27.712 19.9928 27.6705 19.5032 27.5847C19.0506 27.5052 18.6079 27.3779 18.1828 27.2051C17.7747 27.0374 17.3879 26.8233 17.0301 26.5673C16.6685 26.3076 16.3388 26.0073 16.0475 25.6724C15.7612 25.3468 15.5025 24.9985 15.2743 24.6309C15.0553 24.2767 14.8696 23.9036 14.7193 23.5161C14.5711 23.1343 14.4596 22.7396 14.3863 22.3372C14.3113 21.9275 14.2739 21.512 14.2744 21.0956C14.2734 20.7051 14.3051 20.3151 14.369 19.9297C14.4939 19.1774 14.7494 18.4521 15.1244 17.7856C15.2575 17.5492 15.404 17.3204 15.5633 17.1003H15.5532L15.781 16.8151C16.0857 16.4293 16.4326 16.0779 16.8154 15.7671C17.1842 15.4701 17.588 15.2182 18.018 15.0166C18.4525 14.8135 18.9099 14.662 19.3807 14.5654C19.879 14.4633 20.3867 14.4127 20.8956 14.4146C21.4192 14.4129 21.9416 14.4644 22.4545 14.5683C22.9389 14.6681 23.4098 14.8233 23.8577 15.0307C24.3 15.2374 24.7154 15.4961 25.0948 15.8011C25.4374 16.0762 25.752 16.3835 26.034 16.7189L26.1589 16.8732C26.3921 17.1617 26.5982 17.4707 26.7745 17.7962C26.9524 18.1253 27.1005 18.4693 27.217 18.8242C27.3387 19.1934 27.4288 19.572 27.4865 19.9561C27.5483 20.3641 27.5809 20.7758 27.584 21.1883V21.2341V21.4101H16.3693C16.3826 21.6707 16.4142 21.9301 16.4638 22.1864C16.5205 22.48 16.6041 22.768 16.7137 23.0466C16.933 23.5978 17.2625 24.0999 17.6826 24.523C17.8896 24.733 18.1166 24.9228 18.3606 25.0898C18.5949 25.2503 18.8459 25.3854 19.1095 25.4929C19.3749 25.6019 19.6512 25.6831 19.9338 25.7352C20.2325 25.7902 20.5358 25.8173 20.8397 25.8162C20.9908 25.8162 21.1424 25.8103 21.2935 25.7968C21.4446 25.7833 21.5909 25.7646 21.742 25.7382C21.8931 25.7118 22.0394 25.6795 22.1833 25.6408C22.3273 25.602 22.476 25.5563 22.6175 25.5052C22.7591 25.4542 22.9024 25.3967 23.0339 25.3374C23.1653 25.2781 23.2932 25.2142 23.4163 25.1455C23.5394 25.0769 23.6542 25.0053 23.7655 24.9296C23.8767 24.8539 23.9754 24.7758 24.0789 24.6884C24.1868 24.5963 24.2895 24.4984 24.3864 24.395C24.4929 24.2818 24.6017 24.1556 24.71 24.0183C24.8182 23.881 24.9342 23.7249 25.0484 23.5589C25.1626 23.3928 25.275 23.2174 25.397 23.0185L25.4196 22.9821L25.5064 22.8389L25.6563 22.917L25.6944 22.9363L25.6973 22.9328ZM25.3155 19.6081C25.2822 19.4949 25.2465 19.3846 25.2096 19.279C25.1481 19.1064 25.0815 18.9429 25.0098 18.7884C24.9394 18.6343 24.86 18.4844 24.7718 18.3395C24.6901 18.205 24.5992 18.076 24.5 17.9534C24.4021 17.8343 24.2968 17.7212 24.1848 17.6149C24.0701 17.5065 23.9489 17.405 23.822 17.3109C23.6903 17.2128 23.5533 17.122 23.4116 17.0387C23.2623 16.9526 23.1087 16.8742 22.9512 16.8039C22.7913 16.7305 22.6275 16.6656 22.4605 16.6097C22.2967 16.5551 22.1299 16.5096 21.9609 16.4736C21.7912 16.436 21.6194 16.4082 21.4464 16.3903C20.988 16.343 20.5252 16.357 20.0706 16.4319C19.8038 16.4765 19.5417 16.5456 19.2879 16.6385C19.0372 16.7293 18.7959 16.8438 18.5676 16.9806C18.3337 17.1222 18.113 17.284 17.908 17.4641C17.7525 17.6003 17.6094 17.7497 17.4803 17.9106C17.3411 18.085 17.2158 18.2698 17.1056 18.4633C16.9883 18.6688 16.884 18.8812 16.7934 19.0994C16.7256 19.2614 16.6613 19.4321 16.6018 19.6105L25.3155 19.6081Z" fill="white"/>
</svg>
