<svg width="46" height="46" viewBox="0 0 46 46" fill="none" xmlns="http://www.w3.org/2000/svg">
<path d="M5.37242 1.08325H15.9493C18.3177 1.08325 20.2377 3.00325 20.2377 5.37169V15.9486C20.2377 18.317 18.3177 20.237 15.9493 20.237H5.37242C3.00398 20.237 1.08398 18.317 1.08398 15.9486V5.37169C1.08398 3.00325 3.00398 1.08325 5.37242 1.08325Z" fill="white" stroke="#51A12C" stroke-width="2"/>
<path d="M14.25 3H6.75C4.67893 3 3 4.67893 3 6.75V14.25C3 16.3211 4.67893 18 6.75 18H14.25C16.3211 18 18 16.3211 18 14.25V6.75C18 4.67893 16.3211 3 14.25 3Z" fill="#D9FFC8" fill-opacity="0.4"/>
<path d="M30.0463 1.08325H40.6231C42.9916 1.08325 44.9116 3.00325 44.9116 5.37169V15.9486C44.9116 18.317 42.9916 20.237 40.6231 20.237H30.0463C27.6778 20.237 25.7578 18.317 25.7578 15.9486V5.37169C25.7578 3.00325 27.6778 1.08325 30.0463 1.08325Z" fill="white" stroke="#51A12C" stroke-width="2"/>
<path d="M38.25 3H30.75C28.6789 3 27 4.67893 27 6.75V14.25C27 16.3211 28.6789 18 30.75 18H38.25C40.3211 18 42 16.3211 42 14.25V6.75C42 4.67893 40.3211 3 38.25 3Z" fill="#D9FFC8" fill-opacity="0.4"/>
<path d="M5.37242 25.7627H15.9493C18.3177 25.7627 20.2377 27.6827 20.2377 30.0511V40.628C20.2377 42.9965 18.3177 44.9165 15.9493 44.9165H5.37242C3.00398 44.9165 1.08398 42.9965 1.08398 40.628V30.0511C1.08398 27.6827 3.00398 25.7627 5.37242 25.7627Z" fill="white" stroke="#51A12C" stroke-width="2"/>
<path d="M14.25 29H6.75C4.67893 29 3 30.6789 3 32.75V40.25C3 42.3211 4.67893 44 6.75 44H14.25C16.3211 44 18 42.3211 18 40.25V32.75C18 30.6789 16.3211 29 14.25 29Z" fill="#D9FFC8" fill-opacity="0.4"/>
<path d="M44.1488 33.5768H37.0975V26.5255C37.0975 26.058 36.9118 25.6096 36.5812 25.279C36.2506 24.9484 35.8022 24.7627 35.3347 24.7627C34.8672 24.7627 34.4188 24.9484 34.0882 25.279C33.7576 25.6096 33.5719 26.058 33.5719 26.5255V33.5768H26.5206C26.0531 33.5768 25.6047 33.7625 25.2741 34.0931C24.9435 34.4237 24.7578 34.872 24.7578 35.3396C24.7578 35.8071 24.9435 36.2555 25.2741 36.5861C25.6047 36.9167 26.0531 37.1024 26.5206 37.1024H33.5719V44.1536C33.5719 44.6212 33.7576 45.0695 34.0882 45.4001C34.4188 45.7307 34.8672 45.9165 35.3347 45.9165C35.8022 45.9165 36.2506 45.7307 36.5812 45.4001C36.9118 45.0695 37.0975 44.6212 37.0975 44.1536V37.1024H44.1488C44.6163 37.1024 45.0647 36.9167 45.3953 36.5861C45.7259 36.2555 45.9116 35.8071 45.9116 35.3396C45.9116 34.872 45.7259 34.4237 45.3953 34.0931C45.0647 33.7625 44.6163 33.5768 44.1488 33.5768Z" fill="#51A12C"/>
</svg>
