<svg width="21" height="21" viewBox="0 0 21 21" fill="none" xmlns="http://www.w3.org/2000/svg">
<path d="M17.446 4.11182H4.11292C3.67235 4.11402 3.25057 4.29059 2.93982 4.60291C2.62906 4.91523 2.45462 5.3379 2.45462 5.77848L2.44629 15.7785C2.44761 16.2201 2.62362 16.6433 2.93589 16.9555C3.24816 17.2678 3.67131 17.4438 4.11292 17.4452H17.446C17.8876 17.4438 18.3108 17.2678 18.623 16.9555C18.9353 16.6433 19.1113 16.2201 19.1126 15.7785V5.77848C19.1113 5.33686 18.9353 4.9137 18.623 4.60143C18.3108 4.28915 17.8876 4.11314 17.446 4.11182ZM17.1127 7.65348L11.2211 11.3368C11.0883 11.4186 10.9354 11.4619 10.7795 11.4619C10.6235 11.4619 10.4706 11.4186 10.3378 11.3368L4.44625 7.65348C4.36746 7.60424 4.29914 7.53995 4.24519 7.4643C4.19124 7.38865 4.15272 7.30312 4.13183 7.21258C4.11093 7.12205 4.10808 7.02828 4.12342 6.93664C4.13877 6.845 4.17201 6.75728 4.22126 6.67848C4.2705 6.59969 4.33478 6.53137 4.41043 6.47742C4.48608 6.42347 4.57161 6.38495 4.66215 6.36405C4.75268 6.34316 4.84645 6.34031 4.93809 6.35565C5.02973 6.37099 5.11744 6.40424 5.19624 6.45348L10.7795 9.94515L16.3627 6.45348C16.4415 6.40424 16.5292 6.37099 16.6208 6.35565C16.7125 6.34031 16.8062 6.34316 16.8968 6.36405C16.9873 6.38495 17.0728 6.42347 17.1485 6.47742C17.2241 6.53137 17.2884 6.59969 17.3377 6.67848C17.3869 6.75728 17.4202 6.845 17.4355 6.93664C17.4508 7.02828 17.448 7.12205 17.4271 7.21258C17.4062 7.30312 17.3677 7.38865 17.3137 7.4643C17.2598 7.53995 17.1915 7.60424 17.1127 7.65348Z" fill="#222222"/>
</svg>
