<svg width="18" height="18" viewBox="0 0 18 18" fill="none" xmlns="http://www.w3.org/2000/svg">
<g clip-path="url(#clip0_2501_2935)">
<path d="M8.58537 12.794H9.8645L10.2114 1.15176C9.89341 1.05059 9.54652 1 9.17073 1C8.80939 1 8.47696 1.05059 8.17344 1.15176L8.58537 12.794ZM9.17073 17C8.85276 17 8.57814 16.8844 8.34688 16.6531C8.11563 16.4219 8 16.1472 8 15.8293C8 15.4968 8.11563 15.2222 8.34688 15.0054C8.57814 14.7742 8.85276 14.6585 9.17073 14.6585C9.50316 14.6585 9.77778 14.7742 9.99458 15.0054C10.2258 15.2222 10.3415 15.4968 10.3415 15.8293C10.3415 16.1472 10.2258 16.4219 9.99458 16.6531C9.77778 16.8844 9.50316 17 9.17073 17Z" fill="#1E81CE" stroke="#1E81CE" stroke-width="0.5"/>
</g>
<defs>
<clipPath id="clip0_2501_2935">
<rect width="18" height="18" fill="white"/>
</clipPath>
</defs>
</svg>
