<svg width="17" height="20" viewBox="0 0 17 20" fill="none" xmlns="http://www.w3.org/2000/svg">
<g clip-path="url(#clip0_1929_24465)">
<path d="M0.00057903 9.99128C0.00057903 7.03396 0.00057903 4.07679 0.00057903 1.11976C0.00057903 0.51971 0.279883 0.13454 0.795244 0.02462C0.891088 0.00732621 0.988456 -7.09237e-05 1.08581 0.00254569C5.04112 0.00254569 8.99658 0.00164482 12.9522 -0.000157144C13.007 -0.00429827 13.0621 0.00368606 13.1135 0.0232287C13.1649 0.0427714 13.2113 0.0733931 13.2495 0.112917C14.1271 0.997681 15.0081 1.87839 15.8925 2.75505C15.9302 2.7903 15.9599 2.83324 15.9796 2.88096C15.9993 2.92868 16.0084 2.98007 16.0065 3.03165C16.0038 8.33153 16.0026 13.6302 16.0029 18.9277C16.0029 19.6034 15.5952 19.9971 14.915 19.9971C10.3143 19.9971 5.71356 19.9971 1.11284 19.9971C0.392056 19.9971 0.00102996 19.6075 0.00102996 18.8831C-0.000171349 15.9197 -0.000321952 12.9558 0.00057903 9.99128ZM0.667305 9.99714V18.8448C0.667305 19.2462 0.750195 19.3286 1.15564 19.3286H14.8438C15.2592 19.3286 15.3371 19.2489 15.3371 18.8272V7.72802C15.3371 6.3315 15.3339 4.93497 15.3411 3.53845C15.3411 3.37087 15.3029 3.32447 15.133 3.32897C14.6681 3.34204 14.2023 3.33438 13.7365 3.33303C13.0716 3.33303 12.6765 2.9393 12.6706 2.27032C12.6666 1.81262 12.6589 1.35447 12.6747 0.897221C12.681 0.706663 12.6265 0.665669 12.4409 0.66612C8.68109 0.672126 4.92129 0.673627 1.16149 0.670624C0.744339 0.670624 0.665954 0.74901 0.665954 1.17022L0.667305 9.99714ZM14.7952 2.66495L13.3378 1.21121C13.3378 1.58602 13.3293 1.9793 13.3414 2.37168C13.3468 2.55188 13.4599 2.66179 13.6478 2.6636C14.0352 2.66495 14.4226 2.66495 14.7952 2.66495Z" fill="#3AA22B"/>
<path d="M8.01659 9.00398C10.0438 9.00398 12.071 9.00668 14.0982 8.99902C14.2937 8.99902 14.3455 9.04137 14.3451 9.24274C14.3376 12.1998 14.3376 15.1568 14.3451 18.1138C14.3451 18.2854 14.3082 18.3391 14.1266 18.3391C10.044 18.3336 5.96115 18.3336 1.8782 18.3391C1.71332 18.3391 1.66557 18.3048 1.66602 18.1318C1.67172 15.1586 1.67172 12.1867 1.66602 9.21616C1.66602 9.02335 1.73494 9.00263 1.89667 9.00308C3.93529 9.00608 5.97527 9.00638 8.01659 9.00398ZM2.33365 14.3198C2.33365 15.3627 2.3368 16.406 2.33049 17.4489C2.33049 17.6043 2.34986 17.6678 2.53141 17.6669C4.18321 17.6585 5.83411 17.6585 7.48411 17.6669C7.62692 17.6669 7.67557 17.6372 7.67512 17.4836C7.66971 15.3813 7.66971 13.2802 7.67512 11.1803C7.67512 11.028 7.62692 10.9956 7.48321 10.996C5.83141 11.0012 4.18066 11.0012 2.53096 10.996C2.37554 10.996 2.32914 11.0325 2.33004 11.1934C2.33725 12.234 2.33365 13.2773 2.33365 14.3202V14.3198ZM13.6707 14.3409C13.6707 13.2981 13.668 12.2552 13.6739 11.2118C13.6739 11.0578 13.6567 10.9911 13.4729 10.9924C11.8211 11.0006 10.1704 11.0006 8.52069 10.9924C8.37473 10.9924 8.32968 11.0276 8.33013 11.178C8.33464 13.2803 8.33464 15.3814 8.33013 17.4813C8.33013 17.6372 8.38149 17.6638 8.52204 17.6615C10.1738 17.657 11.8247 17.657 13.4747 17.6615C13.6585 17.6615 13.6752 17.5953 13.6743 17.4421C13.668 16.4128 13.6707 15.3771 13.6707 14.3414V14.3409ZM4.98389 9.67071H2.75846C2.3332 9.67071 2.34806 9.6707 2.32779 10.0852C2.31653 10.3063 2.40032 10.3352 2.59133 10.3343C4.13516 10.3275 5.67899 10.3302 7.22238 10.3302C7.67647 10.3302 7.66611 10.3302 7.67647 9.87072C7.68053 9.69053 7.6125 9.66665 7.45708 9.668C6.63268 9.67431 5.80873 9.67071 4.98389 9.67071ZM10.9948 10.3302H13.2427C13.6716 10.3302 13.6608 10.3302 13.6752 9.89595C13.682 9.70314 13.6189 9.66575 13.4378 9.66665C11.8944 9.67386 10.3506 9.67071 8.80675 9.67071C8.32247 9.67071 8.33013 9.67071 8.32878 10.1505C8.32878 10.3054 8.38284 10.3338 8.52159 10.3307C9.34644 10.3275 10.1708 10.3302 10.9952 10.3302H10.9948Z" fill="#3AA22B"/>
<path d="M8.01346 4.00475C10.0407 4.00475 12.0679 4.00745 14.0951 4.00024C14.2852 4.00024 14.3546 4.03313 14.3456 4.24126C14.3271 4.67193 14.3406 4.67238 13.9036 4.67238C9.90928 4.67238 5.91612 4.67388 1.92417 4.67688C1.7219 4.67688 1.65388 4.63183 1.66289 4.42055C1.68091 4.0052 1.66784 4.00475 2.09311 4.00475H8.01346Z" fill="#3AA22B"/>
<path d="M7.99059 6.33839C5.96338 6.33839 3.93617 6.33569 1.90896 6.3429C1.71525 6.3429 1.65038 6.30506 1.65894 6.09873C1.67651 5.67167 1.66345 5.67122 2.10042 5.67122C6.08577 5.67122 10.0714 5.66956 14.0574 5.66626C14.274 5.66626 14.3569 5.7014 14.3421 5.94106C14.3182 6.33749 14.3358 6.33839 13.9335 6.33839H7.99059Z" fill="#CEE4C3"/>
<path d="M6.67352 8.00469C5.08239 8.00469 3.49125 8.00199 1.89832 8.0092C1.71542 8.0092 1.6537 7.9691 1.65956 7.77674C1.67352 7.33796 1.66316 7.33751 2.11005 7.33751C5.21723 7.33751 8.32442 7.33601 11.4316 7.33301C11.6141 7.33301 11.6744 7.36905 11.6677 7.56231C11.6528 8.00469 11.6636 8.00469 11.2172 8.00469H6.67352Z" fill="#CEE4C3"/>
<path d="M8.00239 2.33856C8.72318 2.33856 9.44081 2.34307 10.1598 2.33496C10.3103 2.33496 10.3449 2.38001 10.344 2.52282C10.3409 3.00619 10.3472 3.00619 9.87058 3.00619C8.54434 3.00619 7.21854 3.00169 5.89275 3.0107C5.70039 3.0107 5.65714 2.95439 5.66254 2.77239C5.67516 2.33902 5.66615 2.33856 6.09231 2.33856H8.00239Z" fill="#CEE4C3"/>
<path d="M3.88284 16.9118C3.77292 16.7906 3.68192 16.6694 3.56975 16.5726C3.45757 16.4757 3.44451 16.4032 3.56704 16.2964C3.74183 16.1437 3.89275 15.964 4.06529 15.8085C4.17791 15.7076 4.19548 15.6401 4.07159 15.5301C3.88104 15.3616 3.68642 15.1891 3.53326 14.9895C3.35081 14.7508 3.68597 14.7386 3.75039 14.6003C3.78193 14.5318 3.85716 14.3751 3.99997 14.5278C4.18016 14.7201 4.37432 14.8963 4.55317 15.0882C4.63741 15.1783 4.69057 15.1923 4.78112 15.0936C4.95861 14.9003 5.15277 14.7229 5.33432 14.5332C5.40415 14.4598 5.44694 14.4463 5.53118 14.5242C5.92266 14.8823 5.92491 14.8787 5.5465 15.2594C5.41541 15.3918 5.19737 15.5211 5.18611 15.6648C5.17304 15.8175 5.41856 15.9311 5.54109 16.0703C5.54605 16.0757 5.55191 16.0811 5.55731 16.086C5.91095 16.4406 5.90779 16.437 5.55236 16.7893C5.46226 16.8767 5.41361 16.8902 5.32441 16.7929C5.15728 16.6127 4.97122 16.4455 4.80364 16.2635C4.70859 16.1604 4.64642 16.1387 4.541 16.2577C4.37252 16.4482 4.18331 16.6212 4.00267 16.801C3.97203 16.8321 3.93915 16.86 3.88284 16.9118Z" fill="#3AA22B"/>
<path d="M5.77027 11.4258C5.92344 11.5889 6.1586 11.7276 6.18202 11.8961C6.20455 12.0574 5.94236 12.1894 5.80316 12.3313C5.36123 12.7818 4.91119 13.2214 4.46971 13.671C4.376 13.767 4.31969 13.799 4.21203 13.6809C3.99489 13.4426 3.76153 13.2178 3.52908 12.9957C3.44844 12.9192 3.44259 12.8674 3.53223 12.8052C3.53797 12.8003 3.54338 12.795 3.54845 12.7894C3.88407 12.4398 3.88947 12.4344 4.2323 12.7682C4.33906 12.8728 4.38456 12.8219 4.4598 12.7457C4.89092 12.3078 5.32564 11.8731 5.77027 11.4258Z" fill="#3AA22B"/>
<path d="M11.7526 11.4434C11.7685 11.4506 11.7836 11.4595 11.7977 11.4699C11.9328 11.6082 12.1581 11.7339 12.1806 11.8902C12.2063 12.0547 11.949 12.1659 11.8247 12.3088C11.717 12.4326 11.517 12.5457 11.513 12.6691C11.5089 12.7836 11.7103 12.9048 11.8215 13.0228C11.8423 13.0444 11.8639 13.0651 11.8851 13.0863C12.2621 13.4638 12.2594 13.4607 11.8544 13.8183C11.7778 13.8859 11.7396 13.8783 11.6742 13.8116C11.4873 13.617 11.29 13.4323 11.1053 13.2363C11.0255 13.1516 10.9769 13.1485 10.8953 13.2363C10.7115 13.4332 10.5349 13.6454 10.3205 13.8035C10.0763 13.9837 10.061 13.6377 9.91506 13.5719C9.84163 13.5386 9.7209 13.4625 9.8592 13.3368C10.0475 13.1656 10.2137 12.9701 10.4047 12.802C10.5304 12.6921 10.5093 12.6277 10.398 12.5272C10.2146 12.3619 10.0507 12.175 9.86911 12.0074C9.77901 11.9254 9.78847 11.8785 9.86911 11.7947C10.2227 11.4226 10.2196 11.4199 10.5827 11.7835C10.6886 11.8893 10.8003 11.9903 10.898 12.1033C10.9782 12.1957 11.0332 12.1781 11.1071 12.0984C11.3201 11.8754 11.5386 11.66 11.7526 11.4434Z" fill="#3AA22B"/>
<path d="M12.5796 15.2085C12.5345 15.2612 12.512 15.2887 12.4895 15.3135C11.9124 15.891 11.3344 16.4667 10.7596 17.0465C10.6916 17.115 10.6515 17.1208 10.5821 17.0492C10.3425 16.8014 10.0983 16.5586 9.85277 16.3172C9.70141 16.168 9.88295 16.1095 9.94287 16.0712C10.0641 15.9942 10.0866 15.7185 10.3114 15.85C10.4506 15.9315 10.5456 16.1789 10.6718 16.1532C10.82 16.123 10.9362 15.9279 11.0632 15.804C11.3786 15.4928 11.6912 15.1824 11.9985 14.8652C12.0818 14.7792 12.1296 14.7801 12.2097 14.8652C12.3206 14.9851 12.4485 15.0891 12.5796 15.2085Z" fill="#3AA22B"/>
</g>
<defs>
<clipPath id="clip0_1929_24465">
<rect width="16.0059" height="20" fill="white"/>
</clipPath>
</defs>
</svg>
