<svg width="17" height="20" viewBox="0 0 17 20" fill="none" xmlns="http://www.w3.org/2000/svg">
<g clip-path="url(#clip0_1968_14406)">
<path d="M0.000456959 9.99123C0.000456959 7.03391 0.000456959 4.07673 0.000456959 1.11971C0.000456959 0.519656 0.279761 0.134486 0.795122 0.0245666C0.890966 0.00727281 0.988334 -0.000124329 1.08569 0.00249229C5.041 0.00249229 8.99646 0.00159141 12.9521 -0.00021055C13.0069 -0.00435167 13.062 0.00363265 13.1133 0.0231753C13.1647 0.042718 13.2112 0.0733397 13.2494 0.112863C14.127 0.997628 15.008 1.87834 15.8924 2.75499C15.9301 2.79025 15.9598 2.83319 15.9795 2.88091C15.9991 2.92863 16.0083 2.98002 16.0064 3.03159C16.0037 8.33147 16.0025 13.6301 16.0028 18.9276C16.0028 19.6034 15.5951 19.9971 14.9149 19.9971C10.3141 19.9971 5.71343 19.9971 1.11272 19.9971C0.391934 19.9971 0.00090789 19.6074 0.00090789 18.883C-0.000293419 15.9197 -0.000444023 12.9558 0.000456959 9.99123ZM0.667183 9.99709V18.8447C0.667183 19.2461 0.750073 19.3286 1.15552 19.3286H14.8437C15.259 19.3286 15.337 19.2488 15.337 18.8272V7.72796C15.337 6.33144 15.3338 4.93492 15.341 3.5384C15.341 3.37081 15.3027 3.32441 15.1329 3.32892C14.668 3.34198 14.2022 3.33432 13.7364 3.33297C13.0715 3.33297 12.6764 2.93924 12.6705 2.27026C12.6665 1.81257 12.6588 1.35442 12.6746 0.897168C12.6809 0.70661 12.6264 0.665616 12.4408 0.666066C8.68097 0.672073 4.92117 0.673574 1.16137 0.670571C0.744217 0.670571 0.665832 0.748957 0.665832 1.17017L0.667183 9.99709ZM14.795 2.66489L13.3377 1.21116C13.3377 1.58597 13.3291 1.97925 13.3413 2.37163C13.3467 2.55182 13.4598 2.66174 13.6476 2.66354C14.0351 2.66489 14.4225 2.66489 14.795 2.66489Z" fill="#3AA22B"/>
<path d="M8.01647 9.00396C10.0437 9.00396 12.0709 9.00667 14.0981 8.99901C14.2936 8.99901 14.3454 9.04135 14.345 9.24272C14.3375 12.1997 14.3375 15.1568 14.345 18.1138C14.345 18.2854 14.308 18.339 14.1265 18.339C10.0438 18.3336 5.96103 18.3336 1.87808 18.339C1.7132 18.339 1.66545 18.3048 1.6659 18.1318C1.6716 15.1586 1.6716 12.1867 1.6659 9.21615C1.6659 9.02334 1.73482 9.00261 1.89655 9.00306C3.93517 9.00607 5.97514 9.00637 8.01647 9.00396ZM2.33352 14.3198C2.33352 15.3626 2.33668 16.406 2.33037 17.4489C2.33037 17.6043 2.34974 17.6678 2.53129 17.6669C4.18309 17.6585 5.83399 17.6585 7.48399 17.6669C7.62679 17.6669 7.67545 17.6372 7.675 17.4836C7.66959 15.3813 7.66959 13.2802 7.675 11.1803C7.675 11.028 7.62679 10.9956 7.48309 10.996C5.83129 11.0011 4.18054 11.0011 2.53084 10.996C2.37542 10.996 2.32902 11.0325 2.32992 11.1933C2.33713 12.234 2.33352 13.2773 2.33352 14.3202V14.3198ZM13.6706 14.3409C13.6706 13.298 13.6679 12.2552 13.6737 11.2118C13.6737 11.0578 13.6566 10.9911 13.4728 10.9924C11.821 11.0005 10.1703 11.0005 8.52057 10.9924C8.37461 10.9924 8.32956 11.0276 8.33001 11.178C8.33452 13.2803 8.33452 15.3814 8.33001 17.4813C8.33001 17.6372 8.38137 17.6638 8.52192 17.6615C10.1737 17.657 11.8246 17.657 13.4746 17.6615C13.6584 17.6615 13.6751 17.5953 13.6742 17.4421C13.6679 16.4127 13.6706 15.3771 13.6706 14.3414V14.3409ZM4.98376 9.67069H2.75834C2.33307 9.67069 2.34794 9.67069 2.32767 10.0851C2.31641 10.3063 2.4002 10.3352 2.59121 10.3343C4.13504 10.3275 5.67887 10.3302 7.22225 10.3302C7.67635 10.3302 7.66599 10.3302 7.67635 9.87071C7.6804 9.69051 7.61238 9.66664 7.45696 9.66799C6.63256 9.67429 5.80861 9.67069 4.98376 9.67069ZM10.9947 10.3302H13.2426C13.6715 10.3302 13.6607 10.3302 13.6751 9.89594C13.6818 9.70313 13.6188 9.66574 13.4377 9.66664C11.8943 9.67384 10.3505 9.67069 8.80663 9.67069C8.32235 9.67069 8.33001 9.67069 8.32866 10.1505C8.32866 10.3054 8.38272 10.3338 8.52147 10.3307C9.34632 10.3275 10.1707 10.3302 10.9951 10.3302H10.9947Z" fill="#3AA22B"/>
<path d="M8.01334 4.00486C10.0405 4.00486 12.0678 4.00757 14.095 4.00036C14.2851 4.00036 14.3545 4.03324 14.3454 4.24137C14.327 4.67204 14.3405 4.67249 13.9035 4.67249C9.90916 4.67249 5.916 4.67399 1.92405 4.677C1.72178 4.677 1.65376 4.63195 1.66277 4.42067C1.68079 4.00531 1.66772 4.00486 2.09299 4.00486H8.01334Z" fill="#3AA22B"/>
<path d="M7.99084 6.33841C5.96363 6.33841 3.93642 6.33571 1.90921 6.34291C1.7155 6.34291 1.65063 6.30507 1.65918 6.09875C1.67675 5.67168 1.66369 5.67123 2.10067 5.67123C6.08601 5.67123 10.0717 5.66958 14.0576 5.66628C14.2743 5.66628 14.3572 5.70141 14.3423 5.94107C14.3184 6.33751 14.336 6.33841 13.9337 6.33841H7.99084Z" fill="#CEE4C3"/>
<path d="M6.67352 8.00477C5.08239 8.00477 3.49125 8.00207 1.89832 8.00928C1.71542 8.00928 1.6537 7.96919 1.65956 7.77683C1.67352 7.33805 1.66316 7.3376 2.11005 7.3376C5.21723 7.3376 8.32442 7.3361 11.4316 7.33309C11.6141 7.33309 11.6744 7.36913 11.6677 7.56239C11.6528 8.00477 11.6636 8.00477 11.2172 8.00477H6.67352Z" fill="#CEE4C3"/>
<path d="M8.00203 2.3385C8.72281 2.3385 9.44045 2.343 10.1594 2.33489C10.3099 2.33489 10.3446 2.37994 10.3437 2.52275C10.3405 3.00612 10.3468 3.00612 9.87021 3.00612C8.54397 3.00612 7.21817 3.00162 5.89238 3.01063C5.70002 3.01063 5.65677 2.95432 5.66218 2.77232C5.67479 2.33895 5.66578 2.3385 6.09195 2.3385H8.00203Z" fill="#CEE4C3"/>
<path d="M3.8832 16.9119C3.77328 16.7907 3.68228 16.6695 3.57011 16.5727C3.45794 16.4758 3.44488 16.4033 3.56741 16.2965C3.7422 16.1438 3.89311 15.9641 4.06565 15.8086C4.17827 15.7077 4.19584 15.6402 4.07196 15.5302C3.8814 15.3617 3.68679 15.1892 3.53362 14.9896C3.35117 14.7509 3.68634 14.7387 3.75076 14.6004C3.78229 14.5319 3.85753 14.3752 4.00033 14.5279C4.18053 14.7202 4.37469 14.8964 4.55353 15.0883C4.63778 15.1784 4.69093 15.1924 4.78148 15.0937C4.95898 14.9004 5.15314 14.723 5.33469 14.5333C5.40451 14.4599 5.44731 14.4464 5.53155 14.5243C5.92303 14.8824 5.92528 14.8788 5.54687 15.2595C5.41577 15.3919 5.19774 15.5212 5.18647 15.6649C5.17341 15.8176 5.41893 15.9312 5.54146 16.0704C5.54642 16.0758 5.55227 16.0812 5.55768 16.0861C5.91131 16.4407 5.90816 16.4371 5.55272 16.7894C5.46262 16.8768 5.41397 16.8903 5.32477 16.793C5.15764 16.6128 4.97159 16.4456 4.80401 16.2636C4.70895 16.1605 4.64679 16.1388 4.54137 16.2578C4.37289 16.4483 4.18368 16.6213 4.00303 16.8011C3.9724 16.8321 3.93951 16.8601 3.8832 16.9119Z" fill="#3AA22B"/>
<path d="M5.7704 11.4258C5.92356 11.5889 6.15872 11.7276 6.18215 11.8961C6.20467 12.0574 5.94248 12.1894 5.80328 12.3313C5.36135 12.7818 4.91131 13.2215 4.46983 13.6711C4.37613 13.767 4.31982 13.799 4.21215 13.681C3.99501 13.4427 3.76166 13.2179 3.5292 12.9958C3.44857 12.9192 3.44271 12.8674 3.53236 12.8052C3.53809 12.8003 3.5435 12.795 3.54858 12.7894C3.88419 12.4399 3.8896 12.4345 4.23242 12.7683C4.33919 12.8728 4.38469 12.8219 4.45992 12.7457C4.89104 12.3079 5.32576 11.8731 5.7704 11.4258Z" fill="#3AA22B"/>
<path d="M11.7529 11.4434C11.7688 11.4506 11.7839 11.4595 11.7979 11.47C11.9331 11.6083 12.1583 11.7339 12.1808 11.8903C12.2065 12.0547 11.9493 12.166 11.8249 12.3088C11.7173 12.4327 11.5173 12.5457 11.5132 12.6692C11.5091 12.7836 11.7105 12.9048 11.8218 13.0228C11.8425 13.0444 11.8641 13.0651 11.8853 13.0863C12.2624 13.4638 12.2597 13.4607 11.8547 13.8184C11.7781 13.8859 11.7398 13.8783 11.6745 13.8116C11.4875 13.617 11.2902 13.4323 11.1055 13.2363C11.0258 13.1516 10.9771 13.1485 10.8956 13.2363C10.7118 13.4332 10.5352 13.6454 10.3207 13.8035C10.0766 13.9837 10.0613 13.6377 9.91531 13.5719C9.84188 13.5386 9.72114 13.4625 9.85945 13.3368C10.0478 13.1656 10.214 12.9701 10.405 12.8021C10.5307 12.6921 10.5095 12.6277 10.3982 12.5273C10.2149 12.3619 10.0509 12.175 9.86936 12.0074C9.77926 11.9254 9.78872 11.8785 9.86936 11.7948C10.223 11.4227 10.2198 11.4199 10.5829 11.7835C10.6888 11.8894 10.8005 11.9903 10.8983 12.1033C10.9785 12.1957 11.0334 12.1781 11.1073 12.0984C11.3204 11.8754 11.5389 11.6601 11.7529 11.4434Z" fill="#3AA22B"/>
<path d="M12.58 15.2086C12.5349 15.2613 12.5124 15.2888 12.4899 15.3135C11.9128 15.8911 11.3348 16.4668 10.76 17.0466C10.692 17.1151 10.6519 17.1209 10.5825 17.0493C10.3428 16.8015 10.0987 16.5587 9.85314 16.3172C9.70177 16.1681 9.88332 16.1096 9.94323 16.0713C10.0644 15.9942 10.0869 15.7185 10.3117 15.8501C10.4509 15.9316 10.546 16.1789 10.6721 16.1533C10.8203 16.1231 10.9366 15.928 11.0636 15.8041C11.379 15.4928 11.6916 15.1825 11.9988 14.8653C12.0822 14.7793 12.1299 14.7802 12.2101 14.8653C12.3209 14.9851 12.4489 15.0892 12.58 15.2086Z" fill="#3AA22B"/>
</g>
<defs>
<clipPath id="clip0_1968_14406">
<rect width="16.0059" height="20" fill="white"/>
</clipPath>
</defs>
</svg>
