<svg width="45" height="60" viewBox="0 0 45 60" fill="none" xmlns="http://www.w3.org/2000/svg">
<path d="M43.3382 0.880371V48.6791L32.8231 59.1225H0.945312V0.880371H43.3382Z" fill="white"/>
<path d="M43.355 48.6753L32.8398 59.1187V48.6753H43.355Z" fill="#CEE4C3"/>
<path d="M35.1872 56.7732L32.8209 59.1225H0.945312V0.880371H3.55351V56.7732H35.1872Z" fill="#CEE4C3"/>
<path d="M22.1997 27.0193C28.1402 27.0193 32.956 22.1902 32.956 16.2331C32.956 10.276 28.1402 5.44678 22.1997 5.44678C16.2591 5.44678 11.4434 10.276 11.4434 16.2331C11.4434 22.1902 16.2591 27.0193 22.1997 27.0193Z" fill="#EDF5E9"/>
<path d="M23.6577 26.9198C22.1361 27.1285 20.5877 27.0081 19.1164 26.5667C17.6451 26.1253 16.2852 25.373 15.128 24.3606C13.9709 23.3482 13.0433 22.099 12.4078 20.6971C11.7722 19.2952 11.4434 17.773 11.4434 16.2331C11.4434 14.6931 11.7722 13.171 12.4078 11.7691C13.0433 10.3671 13.9709 9.11797 15.128 8.10552C16.2852 7.09308 17.6451 6.34085 19.1164 5.89941C20.5877 5.45798 22.1361 5.33759 23.6577 5.54632C21.0824 5.90094 18.7222 7.17869 17.0138 9.14327C15.3053 11.1079 14.364 13.6264 14.364 16.2331C14.364 18.8398 15.3053 21.3583 17.0138 23.3229C18.7222 25.2874 21.0824 26.5652 23.6577 26.9198Z" fill="#CEE4C3"/>
<path d="M0.105469 0V52.3593H1.85554V1.7579H42.4954V47.7987H31.9803V58.2421H1.85554V54.1172H0.105469V60H33.2179L44.2477 49.0441V0H0.105469ZM33.7333 57.0136V49.5566H41.2439L33.7333 57.0136Z" fill="#51A12C"/>
<path d="M16.3262 39.1787H36.8807V40.9366H16.3262V39.1787Z" fill="#51A12C"/>
<path d="M9.31361 41.3094L14.6572 36.6175L13.5027 35.2954L9.49745 38.8119L8.14003 37.2111L6.80469 38.3496L9.31361 41.3094Z" fill="#51A12C"/>
<path d="M16.3262 47.7957H29.5576V49.5535H16.3262V47.7957Z" fill="#51A12C"/>
<path d="M9.31361 49.9266L14.6572 45.2347L13.5027 43.9126L9.49745 47.4299L8.14003 45.829L6.80469 46.9675L9.31361 49.9266Z" fill="#51A12C"/>
<path d="M32.127 31.2803H36.9066V33.0404H32.127V31.2803Z" fill="#51A12C"/>
<path d="M16.3262 31.2803H30.351V33.0404H16.3262V31.2803Z" fill="#51A12C"/>
<path d="M8.14004 29.3075L6.80469 30.4461L9.31435 33.4059L14.658 28.714L13.5035 27.3911L9.49819 30.9077L8.14004 29.3075Z" fill="#51A12C"/>
<path d="M26.5904 14.341V13.2969H27.6316V11.539H26.5904V10.4956H24.8373V11.539H23.7969V13.2969H24.8373V14.341H26.5904Z" fill="#51A12C"/>
<path d="M10.5645 16.2304C10.5634 17.9423 10.938 19.6335 11.6617 21.184C12.3855 22.7344 13.4406 24.1062 14.7523 25.2019C16.064 26.2976 17.6001 27.0904 19.2515 27.524C20.903 27.9577 22.6295 28.0216 24.3083 27.7112C25.9872 27.4008 27.5774 26.7237 28.966 25.7279C30.3547 24.7321 31.5078 23.4421 32.3435 21.9494C33.1793 20.4566 33.6772 18.7978 33.8019 17.0904C33.9267 15.3831 33.6752 13.6691 33.0654 12.0702L31.4278 12.6977C32.2891 14.9573 32.2963 17.4548 31.4482 19.7195C30.6001 21.9841 28.9552 23.8595 26.8236 24.992C24.692 26.1246 22.2208 26.4361 19.876 25.8679C17.5311 25.2997 15.4745 23.891 14.0937 21.9074C12.713 19.9237 12.1036 17.5021 12.3802 15.099C12.6569 12.6959 13.8006 10.4773 15.5958 8.86136C17.3909 7.2454 19.7136 6.34373 22.1258 6.3263C24.5381 6.30888 26.8735 7.17689 28.6917 8.76674L29.8447 7.43947C22.3877 0.907828 10.5645 6.19921 10.5645 16.2304Z" fill="#51A12C"/>
<path d="M32.2374 10.363C31.9186 9.81585 31.5562 9.29552 31.1535 8.80713L29.8027 9.9272C30.1447 10.3422 30.4526 10.7844 30.7234 11.2493L32.2374 10.363Z" fill="#51A12C"/>
<path d="M38.9922 3.51587H40.7452V5.27008H38.9922V3.51587Z" fill="#51A12C"/>
<path d="M35.4961 3.51587H37.2491V5.27008H35.4961V3.51587Z" fill="#51A12C"/>
<path d="M19.4308 12.6326L16.2969 20.8838L17.9352 21.5091L18.4499 20.1612H21.9302L22.4368 21.5069L24.0766 20.886L20.9699 12.6274L19.4308 12.6326ZM19.1146 18.404L20.1948 15.5592L21.2655 18.404H19.1146Z" fill="#51A12C"/>
<path d="M3.60156 55.0176H5.35457V56.7755H3.60156V55.0176Z" fill="white"/>
<path d="M7.10742 55.0176H8.86043V56.7755H7.10742V55.0176Z" fill="white"/>
</svg>
