<svg width="16" height="20" viewBox="0 0 16 20" fill="none" xmlns="http://www.w3.org/2000/svg">
<path fill-rule="evenodd" clip-rule="evenodd" d="M0.682617 1.59998V18.6312C0.683098 18.7761 0.740723 18.915 0.842917 19.0174C0.945111 19.1199 1.08358 19.1777 1.2281 19.1782H11.593V16.7176C11.5937 16.5002 11.6801 16.2919 11.8334 16.1382C11.9867 15.9845 12.1944 15.8978 12.4112 15.8971H14.867V1.59998C14.8665 1.45474 14.8087 1.31561 14.7061 1.21308C14.6035 1.11055 14.4646 1.05298 14.3197 1.05298H1.2281C1.08358 1.05346 0.945111 1.11125 0.842917 1.21372C0.740723 1.3162 0.683098 1.45506 0.682617 1.59998V1.59998ZM6.70598 8.29209V3.73357C6.70646 3.58864 6.76408 3.44979 6.86627 3.34731C6.96847 3.24483 7.10694 3.18705 7.25146 3.18657H11.7975C11.9421 3.18705 12.0805 3.24483 12.1827 3.34731C12.2849 3.44979 12.3425 3.58864 12.343 3.73357V8.29209C12.3425 8.43701 12.2849 8.57586 12.1827 8.67834C12.0805 8.78082 11.9421 8.83861 11.7975 8.83909H7.25169C7.10712 8.83867 6.9686 8.78091 6.86636 8.67842C6.76411 8.57594 6.70646 8.43705 6.70598 8.29209V8.29209Z" fill="white"/>
<path fill-rule="evenodd" clip-rule="evenodd" d="M6.70605 3.73278V8.29152C6.70654 8.43645 6.76416 8.5753 6.86635 8.67778C6.96855 8.78026 7.10701 8.83804 7.25154 8.83853H11.7976C11.9421 8.83804 12.0806 8.78026 12.1828 8.67778C12.285 8.5753 12.3426 8.43645 12.3431 8.29152V3.73278C12.3427 3.58781 12.2851 3.4489 12.1829 3.34637C12.0807 3.24385 11.9422 3.18603 11.7976 3.18555H7.25154C7.10698 3.18603 6.96847 3.24385 6.86627 3.34637C6.76407 3.4489 6.70648 3.58781 6.70605 3.73278V3.73278Z" fill="#EDF5E9"/>
<path fill-rule="evenodd" clip-rule="evenodd" d="M12.411 15.8955C12.1942 15.8962 11.9865 15.9829 11.8332 16.1366C11.6799 16.2903 11.5935 16.4986 11.5928 16.716V19.1778L14.8659 15.8955H12.411Z" fill="#CEE4C3"/>
<path fill-rule="evenodd" clip-rule="evenodd" d="M14.8659 15.8955L11.5928 19.1778H14.3204C14.4649 19.1773 14.6034 19.1195 14.7056 19.017C14.8078 18.9145 14.8654 18.7757 14.8659 18.6308V15.8955Z" fill="white"/>
<path fill-rule="evenodd" clip-rule="evenodd" d="M0.682617 1.59998V18.6312C0.683098 18.7761 0.740723 18.915 0.842917 19.0174C0.945111 19.1199 1.08358 19.1777 1.2281 19.1782H2.04633C1.9018 19.1777 1.76334 19.1199 1.66114 19.0174C1.55895 18.915 1.50132 18.7761 1.50084 18.6312V1.59998C1.50132 1.45506 1.55895 1.3162 1.66114 1.21372C1.76334 1.11125 1.9018 1.05346 2.04633 1.05298H1.2281C1.08358 1.05346 0.945111 1.11125 0.842917 1.21372C0.740723 1.3162 0.683098 1.45506 0.682617 1.59998V1.59998Z" fill="#CEE4C3"/>
<path fill-rule="evenodd" clip-rule="evenodd" d="M6.70605 3.73278V8.29152C6.70654 8.43645 6.76416 8.5753 6.86635 8.67778C6.96855 8.78026 7.10701 8.83804 7.25154 8.83853H8.06976C7.92524 8.83804 7.78677 8.78026 7.68458 8.67778C7.58239 8.5753 7.52476 8.43645 7.52428 8.29152V3.73278C7.5247 3.58781 7.5823 3.4489 7.6845 3.34637C7.7867 3.24385 7.9252 3.18603 8.06976 3.18555H7.25154C7.10698 3.18603 6.96847 3.24385 6.86627 3.34637C6.76407 3.4489 6.70648 3.58781 6.70605 3.73278V3.73278Z" fill="#CEE4C3"/>
<path d="M14.0474 3.51528H13.502V2.96827H14.0474V3.51528ZM14.0474 2.42127H13.502V1.87427H14.0474V2.42127Z" fill="white"/>
<path d="M7.50195 18.9043H8.04744V19.4513H7.50195V18.9043Z" fill="#51A12C"/>
<path d="M14.3209 0.77832H1.22838C1.01145 0.778562 0.803471 0.865086 0.650076 1.01891C0.496681 1.17273 0.410398 1.38129 0.410156 1.59883V18.63C0.410398 18.8476 0.496681 19.0561 0.650076 19.2099C0.803471 19.3638 1.01145 19.4503 1.22838 19.4505H6.95642V18.9035H1.22838C1.1558 18.9035 1.0862 18.8746 1.03488 18.8232C0.983559 18.7717 0.954728 18.7019 0.954728 18.6291V1.59883C0.954728 1.52605 0.983559 1.45625 1.03488 1.40478C1.0862 1.35332 1.1558 1.32441 1.22838 1.32441H14.3209C14.3935 1.32441 14.4631 1.35332 14.5144 1.40478C14.5657 1.45625 14.5946 1.52605 14.5946 1.59883V15.6213H12.4124C12.1232 15.6216 11.8459 15.737 11.6414 15.9421C11.4369 16.1472 11.3218 16.4252 11.3214 16.7153V18.9035H8.59287V19.4505H14.3209C14.5378 19.4503 14.7458 19.3638 14.8992 19.2099C15.0526 19.0561 15.1389 18.8476 15.1391 18.63V1.59883C15.1389 1.38129 15.0526 1.17273 14.8992 1.01891C14.7458 0.865086 14.5378 0.778562 14.3209 0.77832V0.77832ZM12.4115 16.1685H14.2069L11.866 18.5166V16.7153C11.8665 16.5704 11.9242 16.4316 12.0264 16.3292C12.1286 16.2267 12.267 16.169 12.4115 16.1685V16.1685ZM14.3209 18.9035H12.2519L14.5946 16.5552V18.63C14.5943 18.7026 14.5654 18.7722 14.5141 18.8235C14.4628 18.8747 14.3933 18.9035 14.3209 18.9035V18.9035Z" fill="#51A12C"/>
<path d="M3.20703 5.05396H5.61633V5.60096H3.20703V5.05396Z" fill="#51A12C"/>
<path d="M3.20703 7.78906H5.61633V8.33607H3.20703V7.78906Z" fill="#51A12C"/>
<path d="M3.20703 9.93213H12.208V10.4791H3.20703V9.93213Z" fill="#51A12C"/>
<path d="M3.20703 6.42236H5.61633V6.96937H3.20703V6.42236Z" fill="#51A12C"/>
<path d="M3.20703 16.7698H10.5715V17.3168H3.20703V16.7698Z" fill="#51A12C"/>
<path d="M3.20703 15.4036H10.5715V15.9506H3.20703V15.4036Z" fill="#51A12C"/>
<path d="M7.97949 14.0352H12.2072V14.5822H7.97949V14.0352Z" fill="#CEE4C3"/>
<path d="M3.20703 12.667H12.208V13.214H3.20703V12.667Z" fill="#CEE4C3"/>
<path d="M3.20703 14.0352H7.43476V14.5822H3.20703V14.0352Z" fill="#CEE4C3"/>
<path d="M7.97949 11.3005H12.2072V11.8475H7.97949V11.3005Z" fill="#CEE4C3"/>
<path d="M3.20703 11.3005H7.43476V11.8475H3.20703V11.3005Z" fill="#CEE4C3"/>
<path d="M6.43451 6.28633V8.29209C6.43475 8.50963 6.52103 8.71819 6.67442 8.87201C6.82782 9.02583 7.0358 9.11235 7.25273 9.1126H11.7988C12.0157 9.11235 12.2237 9.02583 12.3771 8.87201C12.5305 8.71819 12.6168 8.50963 12.617 8.29209V3.73335C12.6168 3.51581 12.5305 3.30725 12.3771 3.15343C12.2237 2.99961 12.0157 2.91308 11.7988 2.91284H7.25273C7.0358 2.91308 6.82782 2.99961 6.67442 3.15343C6.52103 3.30725 6.43475 3.51581 6.43451 3.73335V5.7391H6.97999V3.73335C6.97999 3.66057 7.00882 3.59077 7.06014 3.53931C7.11146 3.48784 7.18107 3.45893 7.25364 3.45893H11.7997C11.8723 3.45893 11.9419 3.48784 11.9932 3.53931C12.0445 3.59077 12.0734 3.66057 12.0734 3.73335V8.29209C12.0734 8.36487 12.0445 8.43467 11.9932 8.48613C11.9419 8.5376 11.8723 8.56651 11.7997 8.56651H7.25273C7.18015 8.56651 7.11055 8.5376 7.05923 8.48613C7.00791 8.43467 6.97908 8.36487 6.97908 8.29209V6.28633H6.43359H6.43451Z" fill="#51A12C"/>
<path d="M8.4766 4.91698L7.56055 7.32887L8.07045 7.52347L8.28801 6.95177H9.11992L9.33519 7.52347L9.84556 7.33024L8.93726 4.91675L8.4766 4.91698ZM8.49553 6.4034L8.70556 5.85022L8.91377 6.4034H8.49553Z" fill="#51A12C"/>
<path d="M10.3424 4.36987V4.91688H9.79688V5.46388H10.3424V6.01088H10.8878V5.46388H11.4331V4.91688H10.8876V4.36987H10.3424Z" fill="#51A12C"/>
</svg>
