<svg width="20" height="21" viewBox="0 0 20 21" fill="none" xmlns="http://www.w3.org/2000/svg">
<path d="M0.713797 6.43004C0.903238 6.43004 1.08492 6.35478 1.21887 6.22083C1.35283 6.08687 1.42808 5.90519 1.42808 5.71575V2.14432C1.42808 1.95488 1.50334 1.7732 1.63729 1.63925C1.77125 1.50529 1.95293 1.43004 2.14237 1.43004H6.07094C6.26038 1.43004 6.44206 1.35478 6.57602 1.22083C6.70997 1.08687 6.78523 0.905191 6.78523 0.715751C6.78523 0.52631 6.70997 0.344629 6.57602 0.210674C6.44206 0.0767197 6.26038 0.00146484 6.07094 0.00146484H2.14237C1.57405 0.00146484 1.029 0.22723 0.62714 0.629093C0.225276 1.03096 -0.000488281 1.576 -0.000488281 2.14432V5.71575C-0.000488281 5.90519 0.0747666 6.08687 0.208721 6.22083C0.342676 6.35478 0.524357 6.43004 0.713797 6.43004ZM17.8567 0.00146484H13.9281C13.7386 0.00146484 13.557 0.0767197 13.423 0.210674C13.2891 0.344629 13.2138 0.52631 13.2138 0.715751C13.2138 0.905191 13.2891 1.08687 13.423 1.22083C13.557 1.35478 13.7386 1.43004 13.9281 1.43004H17.8567C18.0461 1.43004 18.2278 1.50529 18.3617 1.63925C18.4957 1.7732 18.5709 1.95488 18.5709 2.14432V5.71575C18.5709 5.90519 18.6462 6.08687 18.7801 6.22083C18.9141 6.35478 19.0958 6.43004 19.2852 6.43004C19.4747 6.43004 19.6563 6.35478 19.7903 6.22083C19.9243 6.08687 19.9995 5.90519 19.9995 5.71575V2.14432C19.9995 1.576 19.7737 1.03096 19.3719 0.629093C18.97 0.22723 18.425 0.00146484 17.8567 0.00146484ZM19.2852 13.5729C19.0958 13.5729 18.9141 13.6481 18.7801 13.7821C18.6462 13.9161 18.5709 14.0977 18.5709 14.2872V17.8586C18.5709 18.048 18.4957 18.2297 18.3617 18.3637C18.2278 18.4976 18.0461 18.5729 17.8567 18.5729H13.9281C13.7386 18.5729 13.557 18.6481 13.423 18.7821C13.2891 18.9161 13.2138 19.0977 13.2138 19.2872C13.2138 19.4766 13.2891 19.6583 13.423 19.7923C13.557 19.9262 13.7386 20.0015 13.9281 20.0015H17.8567C18.425 20.0015 18.97 19.7757 19.3719 19.3738C19.7737 18.972 19.9995 18.4269 19.9995 17.8586V14.2872C19.9995 14.0977 19.9243 13.9161 19.7903 13.7821C19.6563 13.6481 19.4747 13.5729 19.2852 13.5729ZM6.07094 18.5729H2.14237C1.95293 18.5729 1.77125 18.4976 1.63729 18.3637C1.50334 18.2297 1.42808 18.048 1.42808 17.8586V14.2872C1.42808 14.0977 1.35283 13.9161 1.21887 13.7821C1.08492 13.6481 0.903238 13.5729 0.713797 13.5729C0.524357 13.5729 0.342676 13.6481 0.208721 13.7821C0.0747666 13.9161 -0.000488281 14.0977 -0.000488281 14.2872V17.8586C-0.000488281 18.4269 0.225276 18.972 0.62714 19.3738C1.029 19.7757 1.57405 20.0015 2.14237 20.0015H6.07094C6.26038 20.0015 6.44206 19.9262 6.57602 19.7923C6.70997 19.6583 6.78523 19.4766 6.78523 19.2872C6.78523 19.0977 6.70997 18.9161 6.57602 18.7821C6.44206 18.6481 6.26038 18.5729 6.07094 18.5729Z" fill="black"/>
<path d="M14.8507 7.22564H5.1287C4.57618 7.22564 4.04629 7.44513 3.65559 7.83583C3.2649 8.22653 3.04541 8.75644 3.04541 9.30897V12.0868C3.04651 12.4548 3.19319 12.8074 3.45341 13.0676C3.71364 13.3279 4.06626 13.4745 4.43427 13.4756H5.82313V14.8645C5.82423 15.2325 5.97091 15.5852 6.23114 15.8454C6.49136 16.1056 6.84399 16.2523 7.212 16.2534H12.7674C13.1355 16.2523 13.4881 16.1056 13.7483 15.8454C14.0085 15.5852 14.1552 15.2325 14.1563 14.8645V13.4756H15.5452C15.9132 13.4745 16.2658 13.3279 16.526 13.0676C16.7863 12.8074 16.9329 12.4548 16.934 12.0868V9.30897C16.934 8.75644 16.7145 8.22653 16.3239 7.83583C15.9332 7.44513 15.4033 7.22564 14.8507 7.22564ZM12.073 14.8645H7.90643C7.72225 14.8645 7.54562 14.7914 7.41539 14.6611C7.28516 14.5309 7.212 14.3543 7.212 14.1701V11.3923H12.7674V14.1701C12.7674 14.3543 12.6943 14.5309 12.5641 14.6611C12.4338 14.7914 12.2572 14.8645 12.073 14.8645ZM14.8507 10.0034C14.7134 10.0034 14.5791 9.96269 14.4649 9.88638C14.3507 9.81008 14.2617 9.70162 14.2092 9.57473C14.1566 9.44783 14.1429 9.3082 14.1697 9.17349C14.1964 9.03878 14.2626 8.91505 14.3597 8.81793C14.4568 8.72081 14.5806 8.65467 14.7153 8.62787C14.85 8.60108 14.9896 8.61483 15.1165 8.66739C15.2434 8.71995 15.3518 8.80896 15.4281 8.92316C15.5044 9.03736 15.5452 9.17163 15.5452 9.30897C15.5452 9.49315 15.472 9.66979 15.3418 9.80002C15.2115 9.93025 15.0349 10.0034 14.8507 10.0034ZM13.4619 3.75342H6.51757C6.33339 3.75342 6.15676 3.82658 6.02653 3.95682C5.8963 4.08705 5.82313 4.26368 5.82313 4.44786V5.83675C5.82313 6.02093 5.8963 6.19756 6.02653 6.3278C6.15676 6.45803 6.33339 6.5312 6.51757 6.5312H13.4619C13.6461 6.5312 13.8227 6.45803 13.9529 6.3278C14.0831 6.19756 14.1563 6.02093 14.1563 5.83675V4.44786C14.1563 4.26368 14.0831 4.08705 13.9529 3.95682C13.8227 3.82658 13.6461 3.75342 13.4619 3.75342Z" fill="#222222"/>
</svg>
