<svg width="3" height="10" viewBox="0 0 3 10" fill="none" xmlns="http://www.w3.org/2000/svg">
<path fill-rule="evenodd" clip-rule="evenodd" d="M1.58721 2.79122C2.19108 2.79122 2.68515 2.26622 2.68515 1.62455C2.68515 0.982886 2.19108 0.457886 1.58721 0.457886C0.983334 0.457886 0.489258 0.982886 0.489258 1.62455C0.489258 2.26622 0.983334 2.79122 1.58721 2.79122ZM1.58721 3.95789C0.983334 3.95789 0.489258 4.48289 0.489258 5.12455C0.489258 5.76622 0.983334 6.29122 1.58721 6.29122C2.19108 6.29122 2.68515 5.76622 2.68515 5.12455C2.68515 4.48289 2.19108 3.95789 1.58721 3.95789ZM1.58721 7.45789C0.983334 7.45789 0.489258 7.98289 0.489258 8.62455C0.489258 9.26622 0.983334 9.79122 1.58721 9.79122C2.19108 9.79122 2.68515 9.26622 2.68515 8.62455C2.68515 7.98289 2.19108 7.45789 1.58721 7.45789Z" fill="#323232"/>
</svg>
