<svg width="56" height="58" viewBox="0 0 56 58" fill="none" xmlns="http://www.w3.org/2000/svg">
<path d="M36.0918 47.1964H2.94369C2.01275 47.1964 1.2583 46.4417 1.2583 45.511V2.53085C1.2583 1.59991 2.01299 0.845459 2.94369 0.845459H36.0916C37.0225 0.845459 37.777 1.60015 37.777 2.53085V45.5108C37.7772 46.4417 37.0225 47.1964 36.0918 47.1964Z" fill="white"/>
<path d="M36.0904 47.6654H2.94223C1.75441 47.6654 0.788086 46.6991 0.788086 45.5112V2.53109C0.788086 1.34328 1.75441 0.376953 2.94223 0.376953H36.0904C37.2782 0.376953 38.2445 1.34328 38.2445 2.53109V45.5112C38.2445 46.6991 37.2782 47.6654 36.0904 47.6654ZM2.94223 1.31445C2.27145 1.31445 1.72559 1.86031 1.72559 2.53109V45.5112C1.72559 46.182 2.27145 46.7279 2.94223 46.7279H36.0904C36.7611 46.7279 37.307 46.182 37.307 45.5112V2.53109C37.307 1.86031 36.7611 1.31445 36.0904 1.31445H2.94223Z" fill="#3AA22B"/>
<path d="M32.9028 7.56547H6.13478C5.51697 7.56547 5.01611 7.06461 5.01611 6.4468C5.01611 5.82898 5.51697 5.32812 6.13478 5.32812H32.9028C33.5206 5.32812 34.0214 5.82898 34.0214 6.4468C34.0214 7.06461 33.5206 7.56547 32.9028 7.56547Z" fill="#EDF5E9"/>
<path d="M9.06924 13.2048H6.75174C6.43182 13.2048 6.17236 12.9453 6.17236 12.6254V10.3079C6.17236 9.98797 6.43182 9.72852 6.75174 9.72852H9.06924C9.38916 9.72852 9.64861 9.98797 9.64861 10.3079V12.6254C9.64861 12.9453 9.38916 13.2048 9.06924 13.2048Z" fill="#3AA22B"/>
<path d="M32.9028 17.6082H6.13478C5.51697 17.6082 5.01611 17.1073 5.01611 16.4895C5.01611 15.8717 5.51697 15.3708 6.13478 15.3708H32.9028C33.5206 15.3708 34.0214 15.8717 34.0214 16.4895C34.0214 17.1073 33.5206 17.6082 32.9028 17.6082Z" fill="#EDF5E9"/>
<path d="M32.9028 22.6297H6.13478C5.51697 22.6297 5.01611 22.1288 5.01611 21.511C5.01611 20.8932 5.51697 20.3923 6.13478 20.3923H32.9028C33.5206 20.3923 34.0214 20.8932 34.0214 21.511C34.0214 22.1288 33.5206 22.6297 32.9028 22.6297Z" fill="#EDF5E9"/>
<path d="M32.9028 32.6726H6.13478C5.51697 32.6726 5.01611 32.1718 5.01611 31.554C5.01611 30.9362 5.51697 30.4353 6.13478 30.4353H32.9028C33.5206 30.4353 34.0214 30.9362 34.0214 31.554C34.0214 32.1718 33.5206 32.6726 32.9028 32.6726Z" fill="#EDF5E9"/>
<path d="M32.9028 37.6941H6.13478C5.51697 37.6941 5.01611 37.1933 5.01611 36.5755C5.01611 35.9576 5.51697 35.4568 6.13478 35.4568H32.9028C33.5206 35.4568 34.0214 35.9576 34.0214 36.5755C34.0214 37.1933 33.5206 37.6941 32.9028 37.6941Z" fill="#EDF5E9"/>
<path d="M20.6542 13.2048H18.3367C18.0168 13.2048 17.7573 12.9453 17.7573 12.6254V10.3079C17.7573 9.98797 18.0168 9.72852 18.3367 9.72852H20.6542C20.9741 9.72852 21.2336 9.98797 21.2336 10.3079V12.6254C21.2336 12.9453 20.9741 13.2048 20.6542 13.2048Z" fill="#EDF5E9"/>
<path d="M32.2436 13.2045H29.9261C29.6061 13.2045 29.3467 12.9451 29.3467 12.6251V10.3076C29.3467 9.98772 29.6061 9.72827 29.9261 9.72827H32.2436C32.5635 9.72827 32.8229 9.98772 32.8229 10.3076V12.6251C32.8229 12.9451 32.5635 13.2045 32.2436 13.2045Z" fill="#EDF5E9"/>
<path d="M9.06924 28.269H6.75174C6.43182 28.269 6.17236 28.0095 6.17236 27.6896V25.3721C6.17236 25.0522 6.43182 24.7927 6.75174 24.7927H9.06924C9.38916 24.7927 9.64861 25.0522 9.64861 25.3721V27.6896C9.64861 28.0098 9.38916 28.269 9.06924 28.269Z" fill="#3AA22B"/>
<path d="M20.6542 28.269H18.3367C18.0168 28.269 17.7573 28.0095 17.7573 27.6896V25.3721C17.7573 25.0522 18.0168 24.7927 18.3367 24.7927H20.6542C20.9741 24.7927 21.2336 25.0522 21.2336 25.3721V27.6896C21.2336 28.0098 20.9741 28.269 20.6542 28.269Z" fill="#EDF5E9"/>
<path d="M32.2436 28.269H29.9261C29.6061 28.269 29.3467 28.0095 29.3467 27.6896V25.3721C29.3467 25.0522 29.6061 24.7927 29.9261 24.7927H32.2436C32.5635 24.7927 32.8229 25.0522 32.8229 25.3721V27.6896C32.8229 28.0098 32.5635 28.269 32.2436 28.269Z" fill="#EDF5E9"/>
<path d="M9.06924 43.3334H6.75174C6.43182 43.3334 6.17236 43.074 6.17236 42.7541V40.4366C6.17236 40.1166 6.43182 39.8572 6.75174 39.8572H9.06924C9.38916 39.8572 9.64861 40.1166 9.64861 40.4366V42.7541C9.64861 43.074 9.38916 43.3334 9.06924 43.3334Z" fill="#3AA22B"/>
<path d="M20.6542 43.3334H18.3367C18.0168 43.3334 17.7573 43.074 17.7573 42.7541V40.4366C17.7573 40.1166 18.0168 39.8572 18.3367 39.8572H20.6542C20.9741 39.8572 21.2336 40.1166 21.2336 40.4366V42.7541C21.2336 43.074 20.9741 43.3334 20.6542 43.3334Z" fill="#EDF5E9"/>
<path d="M19.3074 12.7357C19.3065 12.7357 19.3058 12.7357 19.3051 12.7357C19.0494 12.735 18.8084 12.6101 18.6608 12.4017L17.5737 10.8705C17.4047 10.6324 17.4605 10.3022 17.6989 10.1332C17.9372 9.96399 18.2672 10.0202 18.4362 10.2584L19.309 11.4879L21.5921 8.31375C21.7627 8.07657 22.0932 8.02289 22.3301 8.19328C22.5671 8.36391 22.6212 8.69438 22.4506 8.93133L19.9512 12.4057C19.8026 12.6124 19.5619 12.7357 19.3074 12.7357Z" fill="#3AA22B"/>
<path d="M19.3074 27.7997C19.3065 27.7997 19.3058 27.7997 19.3051 27.7997C19.0494 27.799 18.8084 27.674 18.6608 27.4657L17.5737 25.9345C17.4047 25.6964 17.4605 25.3662 17.6989 25.1972C17.9372 25.028 18.2672 25.0842 18.4362 25.3223L19.309 26.5519L21.5921 23.3777C21.7627 23.1405 22.0932 23.0869 22.3301 23.2572C22.5671 23.4279 22.6212 23.7583 22.4506 23.9953L19.9515 27.4699C19.8026 27.6762 19.5619 27.7997 19.3074 27.7997Z" fill="#3AA22B"/>
<path d="M36.3094 5.99609L24.7805 17.525L24.1139 21.1564C24.0912 21.2809 24.2224 21.4121 24.3469 21.3894L27.9783 20.7228L39.5072 9.19391L36.3094 5.99609Z" fill="#CEE4C3"/>
<path d="M36.3065 5.99609L24.7827 17.5198C25.0396 17.8641 25.7772 17.5944 26.0645 17.8815C26.2157 18.0329 26.1826 18.152 26.2661 18.9059C26.3284 19.4694 27.3067 19.1239 27.6184 19.4356C27.9058 19.723 27.636 20.4605 27.9803 20.7174L39.504 9.19391C37.5803 7.26969 38.4444 8.13406 36.3065 5.99609Z" fill="#F6FAF4"/>
<path d="M39.5068 9.20142L36.3096 6.00417L37.5282 4.78559L40.7254 7.98284L39.5068 9.20142Z" fill="white"/>
<path d="M40.6602 3.00915L42.4921 4.84103C42.8692 5.21814 42.8692 5.82962 42.4921 6.20696L40.7242 7.97485L37.5264 4.77704L39.2943 3.00915C39.6714 2.63204 40.2829 2.63204 40.6602 3.00915Z" fill="#3AA22B"/>
<path d="M39.5049 9.66265C39.3807 9.66265 39.2614 9.61319 39.1735 9.5253L35.9757 6.32726C35.7926 6.14421 35.7926 5.84749 35.9757 5.66444L37.1944 4.44569C37.2823 4.3578 37.4016 4.30835 37.5258 4.30835C37.65 4.30835 37.7693 4.3578 37.8572 4.44569L41.055 7.64374C41.2381 7.82679 41.2381 8.12351 41.055 8.30655L39.8363 9.5253C39.7484 9.61319 39.6291 9.66265 39.5049 9.66265ZM36.9701 5.99608L39.5049 8.53108L40.0608 7.97515L37.5261 5.44015L36.9701 5.99608Z" fill="#3AA22B"/>
<path d="M40.7224 8.44277C40.5982 8.44277 40.4789 8.39332 40.391 8.30543L37.1934 5.10738C37.0104 4.92434 37.0104 4.62762 37.1934 4.44457L38.9611 2.67668C39.5205 2.1177 40.4306 2.11746 40.9898 2.67645V2.67668L42.8217 4.50855C43.3812 5.06801 43.3812 5.97809 42.8217 6.5373L41.0538 8.3052C40.9659 8.39332 40.8466 8.44277 40.7224 8.44277ZM38.1877 4.77598L40.7224 7.31098L42.1589 5.87449C42.3527 5.68066 42.3527 5.3652 42.1589 5.17137L40.327 3.33973C40.1334 3.14566 39.8175 3.14566 39.6239 3.33973L38.1877 4.77598Z" fill="#3AA22B"/>
<path d="M24.4985 19.0505L24.1124 21.1541C24.0897 21.2785 24.221 21.4098 24.3454 21.387L26.4489 21.0008L24.4985 19.0505Z" fill="#3AA22B"/>
<path d="M24.3157 21.8605C24.142 21.8605 23.9705 21.789 23.8409 21.6594C23.6829 21.5016 23.6114 21.2823 23.6499 21.0723L24.3169 17.4401C24.334 17.3469 24.3792 17.2606 24.4465 17.1933L35.9754 5.66444C36.0633 5.57655 36.1826 5.5271 36.3068 5.5271C36.431 5.5271 36.5503 5.57655 36.6382 5.66444L39.836 8.86249C40.0191 9.04554 40.0191 9.34226 39.836 9.5253L28.3071 21.054C28.2399 21.1212 28.1538 21.1662 28.0603 21.1836L24.4289 21.8504C24.3912 21.8569 24.3532 21.8605 24.3157 21.8605ZM25.2122 17.753L24.6422 20.8578L27.747 20.2878L38.8413 9.19366L36.3066 6.65866L25.2122 17.753Z" fill="#3AA22B"/>
<path d="M21.2339 33.4761V53.8201C21.2339 55.6257 22.6976 57.0894 24.5032 57.0894H51.4758C53.2814 57.0894 54.7451 55.6257 54.7451 53.8201V33.4761H21.2339Z" fill="#EDF5E9"/>
<path d="M51.4797 26.0293H24.5071C22.7015 26.0293 21.2378 27.493 21.2378 29.2986V33.4752H54.7492V29.2986C54.749 27.493 53.2853 26.0293 51.4797 26.0293Z" fill="#3AA22B"/>
<path d="M43.1608 40.5052H40.0146C39.5993 40.5052 39.2627 40.1687 39.2627 39.7534V36.6071C39.2627 36.1918 39.5993 35.8552 40.0146 35.8552H43.1608C43.5761 35.8552 43.9127 36.1918 43.9127 36.6071V39.7534C43.9127 40.1684 43.5761 40.5052 43.1608 40.5052Z" fill="#CEE4C3"/>
<path d="M43.1608 47.7005H40.0146C39.5993 47.7005 39.2627 47.364 39.2627 46.9487V43.8024C39.2627 43.3871 39.5993 43.0505 40.0146 43.0505H43.1608C43.5761 43.0505 43.9127 43.3871 43.9127 43.8024V46.9487C43.9127 47.3637 43.5761 47.7005 43.1608 47.7005Z" fill="white"/>
<path d="M43.1608 54.7147H40.0146C39.5993 54.7147 39.2627 54.3781 39.2627 53.9628V50.8166C39.2627 50.4013 39.5993 50.0647 40.0146 50.0647H43.1608C43.5761 50.0647 43.9127 50.4013 43.9127 50.8166V53.9628C43.9127 54.3779 43.5761 54.7147 43.1608 54.7147Z" fill="white"/>
<path d="M50.3542 40.5052H47.2079C46.7926 40.5052 46.4561 40.1687 46.4561 39.7534V36.6071C46.4561 36.1918 46.7926 35.8552 47.2079 35.8552H50.3542C50.7695 35.8552 51.1061 36.1918 51.1061 36.6071V39.7534C51.1063 40.1684 50.7695 40.5052 50.3542 40.5052Z" fill="#CEE4C3"/>
<path d="M50.3542 47.7005H47.2079C46.7926 47.7005 46.4561 47.364 46.4561 46.9487V43.8024C46.4561 43.3871 46.7926 43.0505 47.2079 43.0505H50.3542C50.7695 43.0505 51.1061 43.3871 51.1061 43.8024V46.9487C51.1063 47.3637 50.7695 47.7005 50.3542 47.7005Z" fill="white"/>
<path d="M35.9675 47.7005H32.8212C32.4059 47.7005 32.0693 47.364 32.0693 46.9487V43.8024C32.0693 43.3871 32.4059 43.0505 32.8212 43.0505H35.9675C36.3828 43.0505 36.7193 43.3871 36.7193 43.8024V46.9487C36.7193 47.3637 36.3828 47.7005 35.9675 47.7005Z" fill="#CEE4C3"/>
<path d="M35.9675 54.7142H32.8212C32.4059 54.7142 32.0693 54.3776 32.0693 53.9623V50.8161C32.0693 50.4008 32.4059 50.0642 32.8212 50.0642H35.9675C36.3828 50.0642 36.7193 50.4008 36.7193 50.8161V53.9623C36.7193 54.3774 36.3828 54.7142 35.9675 54.7142Z" fill="white"/>
<path d="M28.7761 47.7005H25.6298C25.2145 47.7005 24.8779 47.364 24.8779 46.9487V43.8024C24.8779 43.3871 25.2145 43.0505 25.6298 43.0505H28.7761C29.1914 43.0505 29.5279 43.3871 29.5279 43.8024V46.9487C29.5279 47.3637 29.1914 47.7005 28.7761 47.7005Z" fill="#CEE4C3"/>
<path d="M28.7761 54.7147H25.6298C25.2145 54.7147 24.8779 54.3781 24.8779 53.9628V50.8166C24.8779 50.4013 25.2145 50.0647 25.6298 50.0647H28.7761C29.1914 50.0647 29.5279 50.4013 29.5279 50.8166V53.9628C29.5279 54.3779 29.1914 54.7147 28.7761 54.7147Z" fill="white"/>
<path d="M51.4765 57.5583H24.5037C22.4423 57.5583 20.7656 55.8814 20.7656 53.8201V33.4763C20.7656 33.2176 20.9756 33.0076 21.2344 33.0076H54.7458C55.0045 33.0076 55.2145 33.2176 55.2145 33.4763V53.8201C55.2145 55.8814 53.5378 57.5583 51.4765 57.5583ZM21.7031 33.9451V53.8201C21.7031 55.3644 22.9594 56.6208 24.5037 56.6208H51.4765C53.0208 56.6208 54.277 55.3644 54.277 53.8201V33.9451H21.7031Z" fill="#3AA22B"/>
<path d="M54.7458 33.9439H21.2344C20.9756 33.9439 20.7656 33.7339 20.7656 33.4751V29.2984C20.7656 27.2373 22.4423 25.5603 24.5037 25.5603H51.4765C53.5378 25.5603 55.2145 27.2373 55.2145 29.2984V33.4751C55.2145 33.7341 55.0048 33.9439 54.7458 33.9439ZM21.7031 33.0064H54.277V29.2984C54.277 27.7541 53.0208 26.4978 51.4765 26.4978H24.5037C22.9594 26.4978 21.7031 27.7541 21.7031 29.2984V33.0064Z" fill="#3AA22B"/>
<path d="M37.7978 30.7984C36.895 30.7984 36.1631 30.0664 36.1631 29.1636V24.2595C36.1631 23.3567 36.895 22.6248 37.7978 22.6248C38.7007 22.6248 39.4326 23.3567 39.4326 24.2595V29.1636C39.4326 30.0664 38.7007 30.7984 37.7978 30.7984Z" fill="#F6FAF4"/>
<path d="M27.9116 30.7984C27.0088 30.7984 26.2769 30.0664 26.2769 29.1636V24.2595C26.2769 23.3567 27.0088 22.6248 27.9116 22.6248C28.8144 22.6248 29.5464 23.3567 29.5464 24.2595V29.1636C29.5462 30.0664 28.8144 30.7984 27.9116 30.7984Z" fill="#F6FAF4"/>
<path d="M47.6821 30.7984C46.7793 30.7984 46.0474 30.0664 46.0474 29.1636V24.2595C46.0474 23.3567 46.7793 22.6248 47.6821 22.6248C48.5849 22.6248 49.3169 23.3567 49.3169 24.2595V29.1636C49.3169 30.0664 48.5849 30.7984 47.6821 30.7984Z" fill="#F6FAF4"/>
<path d="M37.7964 31.2671C36.6367 31.2671 35.6929 30.3235 35.6929 29.1636V24.2595C35.6929 23.0996 36.6365 22.1558 37.7964 22.1558C38.9563 22.1558 39.9001 23.0994 39.9001 24.2595V29.1636C39.8999 30.3233 38.9563 31.2671 37.7964 31.2671ZM37.7964 23.0935C37.1535 23.0935 36.6304 23.6166 36.6304 24.2597V29.1638C36.6304 29.8067 37.1533 30.3298 37.7964 30.3298C38.4395 30.3298 38.9626 29.8069 38.9626 29.1638V24.2597C38.9624 23.6166 38.4393 23.0935 37.7964 23.0935Z" fill="#3AA22B"/>
<path d="M27.9121 31.2671C26.7524 31.2671 25.8086 30.3235 25.8086 29.1636V24.2595C25.8086 23.0996 26.7522 22.1558 27.9121 22.1558C29.072 22.1558 30.0156 23.0994 30.0156 24.2595V29.1636C30.0156 30.3233 29.0718 31.2671 27.9121 31.2671ZM27.9121 23.0935C27.2692 23.0935 26.7461 23.6166 26.7461 24.2597V29.1638C26.7461 29.8067 27.269 30.3298 27.9121 30.3298C28.5552 30.3298 29.0781 29.8069 29.0781 29.1638V24.2597C29.0781 23.6166 28.555 23.0935 27.9121 23.0935Z" fill="#3AA22B"/>
<path d="M47.6829 31.2673C46.5229 31.2673 45.5791 30.3237 45.5791 29.1638V24.2598C45.5791 23.0998 46.5227 22.156 47.6829 22.156C48.8425 22.156 49.7864 23.0996 49.7864 24.2598V29.1638C49.7861 30.3235 48.8425 31.2673 47.6829 31.2673ZM47.6829 23.0937C47.04 23.0937 46.5166 23.6169 46.5166 24.26V29.1641C46.5166 29.8069 47.0397 30.3301 47.6829 30.3301C48.326 30.3301 48.8489 29.8072 48.8489 29.1641V24.26C48.8486 23.6169 48.3257 23.0937 47.6829 23.0937Z" fill="#3AA22B"/>
</svg>
