<svg width="34" height="27" viewBox="0 0 34 27" fill="none" xmlns="http://www.w3.org/2000/svg">
<path d="M26.9057 13.3038C26.8169 13.3038 26.7305 13.3038 26.6456 13.3057C26.7822 12.6077 26.8514 11.8974 26.852 11.1854C26.8568 8.37899 25.7792 5.68505 23.8552 3.69381C21.9312 1.70258 19.3177 0.576445 16.5874 0.562149C13.8571 0.547854 11.2326 1.64657 9.28895 3.61755C7.34531 5.58853 6.24104 8.27105 6.21809 11.0773L6.23447 11.2915C4.51324 11.5494 2.93978 12.4353 1.80157 13.7873C0.663347 15.1392 0.0363593 16.867 0.035158 18.6548C0.0339567 20.4427 0.658622 22.1713 1.79502 23.5249C2.93142 24.8785 4.50369 25.7666 6.22456 26.027H11.3816C11.6552 26.027 11.9175 25.9153 12.111 25.7165C12.3044 25.5177 12.4131 25.248 12.4131 24.9668C12.4131 24.6857 12.3044 24.416 12.111 24.2172C11.9175 24.0184 11.6552 23.9067 11.3816 23.9067L6.37537 23.9172C3.9785 23.5548 2.09916 21.2203 2.09916 18.606C2.10777 17.3361 2.55919 16.1115 3.37143 15.1545C4.18367 14.1975 5.30287 13.5717 6.52579 13.3907L7.41272 13.2591C7.65841 13.223 7.88316 13.0969 8.04573 12.9042C8.2083 12.7114 8.29777 12.4648 8.29774 12.2097L8.28137 11.0817C8.29608 9.8996 8.55095 8.73375 9.02964 7.65886C9.50833 6.58397 10.2003 5.62376 11.0611 4.83979C11.9219 4.05583 12.9326 3.46541 14.0284 3.1064C15.1242 2.74739 16.2809 2.62771 17.4244 2.75503C18.5678 2.88235 19.6727 3.25386 20.6683 3.84574C21.6639 4.43763 22.5281 5.23682 23.2056 6.19208C23.8831 7.14734 24.359 8.23758 24.6026 9.3929C24.8462 10.5482 24.8523 11.7431 24.6204 12.901L24.3481 14.2495C24.315 14.4153 24.3209 14.5869 24.3655 14.7499C24.41 14.9129 24.4918 15.0626 24.604 15.1865C24.7151 15.3119 24.8545 15.4073 25.0099 15.4642C25.1653 15.5211 25.3319 15.5379 25.4951 15.513C25.9628 15.4556 26.4332 15.4258 26.9042 15.4237C27.99 15.4443 29.0241 15.904 29.7824 16.703C30.5407 17.5021 30.962 18.5762 30.9549 19.6925C30.9479 20.8087 30.513 21.8771 29.7447 22.6659C28.9763 23.4548 27.9364 23.9006 26.8505 23.9067H19.6324C16.7447 23.9067 16.5478 22.1276 16.5383 21.7863V14.7516L18.9786 17.2568C19.0743 17.3552 19.188 17.4333 19.3131 17.4866C19.4383 17.5398 19.5724 17.5672 19.7078 17.5672C19.8433 17.5672 19.9774 17.5398 20.1025 17.4866C20.2276 17.4333 20.3413 17.3552 20.4371 17.2568C20.5329 17.1583 20.6088 17.0415 20.6607 16.9129C20.7125 16.7842 20.7392 16.6464 20.7392 16.5072C20.7392 16.368 20.7125 16.2301 20.6607 16.1015C20.6088 15.9729 20.5329 15.856 20.4371 15.7576L16.2862 11.4938C16.1897 11.395 16.0751 11.3168 15.9491 11.2637C15.8231 11.2106 15.6881 11.1835 15.552 11.1842C15.5356 11.1842 15.523 11.1756 15.5066 11.1756C15.3663 11.1758 15.2275 11.2059 15.099 11.2639C14.9705 11.3219 14.855 11.4066 14.7599 11.5126L10.6055 15.7791C10.4121 15.9779 10.3034 16.2476 10.3034 16.5287C10.3034 16.8099 10.4121 17.0795 10.6055 17.2783C10.7989 17.4771 11.0612 17.5888 11.3348 17.5888C11.6083 17.5888 11.8706 17.4771 12.064 17.2783L14.4754 14.8017V21.7867C14.4758 23.2518 15.5523 26.027 19.6324 26.027H26.8524C28.4869 26.0233 30.0536 25.3552 31.2107 24.1685C32.3677 22.9818 33.0211 21.3728 33.0281 19.6928C33.0352 18.0128 32.3955 16.398 31.2485 15.2011C30.1015 14.0041 28.5405 13.322 26.9061 13.3038H26.9057Z" fill="#3AA22B"/>
</svg>
