<svg width="20" height="20" viewBox="0 0 20 20" fill="none" xmlns="http://www.w3.org/2000/svg">
<g clip-path="url(#clip0_1929_24314)">
<path d="M16.266 18.5037V1.49592C16.266 1.1419 16.1253 0.802377 15.875 0.552047C15.6247 0.301717 15.2851 0.161084 14.9311 0.161084H3.16413C2.81011 0.161084 2.47059 0.301718 2.22026 0.552047C1.96993 0.802377 1.8293 1.1419 1.8293 1.49592V18.5037C1.8293 18.8577 1.96993 19.1972 2.22026 19.4475C2.47059 19.6979 2.81011 19.8385 3.16413 19.8385H14.9311C15.2851 19.8385 15.6247 19.6979 15.875 19.4475C16.1253 19.1972 16.266 18.8577 16.266 18.5037Z" fill="white" stroke="#3AA22B" stroke-width="0.15"/>
<path d="M11.3458 1.68948L11.3458 1.68953H11.3486H11.6886C11.7299 1.69087 11.7711 1.68397 11.8097 1.66922C11.8488 1.65429 11.8845 1.63162 11.9147 1.60258C11.9448 1.57355 11.9688 1.53873 11.9852 1.5002C12.0015 1.46168 12.01 1.42025 12.01 1.37839C12.01 1.33653 12.0015 1.2951 11.9852 1.25658C11.9688 1.21806 11.9448 1.18324 11.9147 1.1542C11.8845 1.12516 11.8488 1.1025 11.8097 1.08757C11.7711 1.07281 11.7299 1.06591 11.6886 1.06725H11.3486V1.0672L11.3458 1.06731C11.2653 1.07031 11.1891 1.1044 11.1332 1.16241C11.0773 1.22042 11.0461 1.29784 11.0461 1.37839C11.0461 1.45895 11.0773 1.53636 11.1332 1.59437C11.1891 1.65238 11.2653 1.68647 11.3458 1.68948Z" fill="#3AA22B" stroke="#3AA22B" stroke-width="0.15"/>
<path d="M6.39851 1.68972L6.39851 1.68977H6.40131H10.1394C10.1807 1.69112 10.2219 1.68421 10.2605 1.66946C10.2996 1.65453 10.3353 1.63187 10.3655 1.60283C10.3956 1.57379 10.4196 1.53896 10.436 1.50044C10.4523 1.46192 10.4608 1.4205 10.4608 1.37864C10.4608 1.33678 10.4523 1.29535 10.436 1.25683C10.4196 1.21831 10.3956 1.18348 10.3655 1.15444C10.3353 1.1254 10.2996 1.10274 10.2605 1.08781C10.2219 1.07306 10.1807 1.06615 10.1394 1.0675H6.40131V1.06745L6.39851 1.06755C6.31802 1.07056 6.24182 1.10465 6.18594 1.16266C6.13005 1.22067 6.09883 1.29808 6.09883 1.37864C6.09883 1.45919 6.13005 1.5366 6.18594 1.59461C6.24182 1.65262 6.31802 1.68671 6.39851 1.68972Z" fill="#3AA22B" stroke="#3AA22B" stroke-width="0.15"/>
<path d="M9.04564 17.2658H9.04543C8.86787 17.2658 8.69429 17.3185 8.54665 17.4171C8.39902 17.5158 8.28394 17.656 8.21599 17.82C8.14804 17.9841 8.13027 18.1646 8.16491 18.3387C8.19955 18.5129 8.28505 18.6729 8.41061 18.7984C8.53616 18.924 8.69613 19.0095 8.87028 19.0441C9.04443 19.0788 9.22495 19.061 9.389 18.993C9.55304 18.9251 9.69326 18.81 9.79191 18.6624C9.89055 18.5147 9.94321 18.3412 9.94321 18.1636L9.94321 18.1634C9.94254 17.9255 9.84776 17.6976 9.67958 17.5294C9.5114 17.3613 9.28349 17.2665 9.04564 17.2658ZM9.04501 18.4417C8.99019 18.442 8.93652 18.4261 8.8908 18.3958C8.84507 18.3656 8.80935 18.3225 8.78816 18.2719C8.76697 18.2214 8.76126 18.1657 8.77177 18.1119C8.78227 18.0581 8.80851 18.0086 8.84717 17.9697C8.88582 17.9309 8.93514 17.9043 8.98888 17.8935C9.04263 17.8827 9.09836 17.8881 9.14903 17.909C9.1997 17.9299 9.24303 17.9654 9.27351 18.011C9.304 18.0565 9.32028 18.1101 9.32028 18.1649C9.32019 18.238 9.29121 18.3082 9.23965 18.36C9.18809 18.4119 9.11813 18.4412 9.04501 18.4417Z" fill="#3AA22B" stroke="#3AA22B" stroke-width="0.15"/>
<path d="M9.04378 3.22065L9.04369 3.22065C8.76047 3.22093 8.48369 3.30515 8.24832 3.46267C8.01294 3.62019 7.82954 3.84394 7.72128 4.10565C7.61303 4.36736 7.58477 4.65529 7.64009 4.93305C7.69542 5.21082 7.83183 5.46595 8.0321 5.66622C8.23236 5.86648 8.48749 6.00289 8.76526 6.05821C9.04302 6.11354 9.33095 6.08528 9.59266 5.97703C9.85437 5.86877 10.0781 5.68537 10.2356 5.45C10.3932 5.21462 10.4774 4.93784 10.4777 4.65462V4.65453C10.4776 4.27427 10.3265 3.90961 10.0576 3.64073C9.7887 3.37184 9.42404 3.22075 9.04378 3.22065ZM9.01092 5.46282C8.86222 5.45655 8.71788 5.40942 8.5939 5.32631C8.46078 5.23707 8.35711 5.11037 8.296 4.96221C8.23489 4.81406 8.21908 4.65111 8.25058 4.49397C8.28208 4.33683 8.35947 4.19256 8.47296 4.07941C8.58645 3.96626 8.73095 3.8893 8.88818 3.85826C9.04541 3.82723 9.20831 3.84352 9.35628 3.90507C9.50426 3.96662 9.63065 4.07067 9.71949 4.20405C9.80833 4.33743 9.85562 4.49416 9.85539 4.65441C9.85519 4.76078 9.83404 4.86606 9.79315 4.96426C9.75226 5.06245 9.69244 5.15164 9.61709 5.22671C9.54173 5.30178 9.45233 5.36128 9.35398 5.4018C9.25564 5.44232 9.15027 5.46308 9.0439 5.46288L9.01092 5.46282Z" fill="#3AA22B" stroke="#3AA22B" stroke-width="0.15"/>
<path d="M11.1781 9.51447C11.2253 9.51463 11.272 9.50404 11.3145 9.48348C11.3571 9.46291 11.3944 9.43291 11.4237 9.39576C11.453 9.35861 11.4734 9.31528 11.4834 9.26906C11.4927 9.22578 11.4928 9.18104 11.4835 9.13781C11.4554 7.53013 10.386 6.20601 9.04495 6.20601C7.68643 6.20601 6.60859 7.56617 6.60859 9.20318C6.60859 9.28574 6.64139 9.36492 6.69977 9.42329C6.75815 9.48167 6.83733 9.51447 6.91989 9.51447H11.1781ZM11.1781 9.51447C11.1781 9.51447 11.178 9.51447 11.178 9.51447L11.1782 9.43947M11.1781 9.51447H11.1782V9.43947M11.1782 9.43947H6.91989C6.85722 9.43947 6.79712 9.41458 6.7528 9.37026C6.70849 9.32595 6.68359 9.26585 6.68359 9.20318C6.68359 7.59185 7.74201 6.28101 9.04495 6.28101C10.3334 6.28101 11.3843 7.56125 11.4086 9.1469C11.4172 9.18176 11.4177 9.21811 11.4101 9.25319C11.4025 9.28827 11.387 9.32116 11.3648 9.34936C11.3426 9.37756 11.3142 9.40034 11.2819 9.41595C11.2496 9.43156 11.2141 9.43961 11.1782 9.43947ZM10.8443 8.89187H7.24656C7.36478 7.71297 8.13915 6.82828 9.04298 6.82828C9.94692 6.82828 10.7255 7.71304 10.8443 8.89187Z" fill="#3AA22B" stroke="#3AA22B" stroke-width="0.15"/>
<path d="M4.67977 11.4601L4.67976 11.4601H4.68256H13.4102V11.4602L13.413 11.4601C13.4935 11.4571 13.5697 11.423 13.6256 11.365C13.6815 11.307 13.7127 11.2295 13.7127 11.149C13.7127 11.0684 13.6815 10.991 13.6256 10.933C13.5697 10.875 13.4935 10.8409 13.413 10.8379L13.413 10.8378H13.4102H4.68256V10.8378L4.67977 10.8379C4.59927 10.8409 4.52307 10.875 4.46719 10.933C4.4113 10.991 4.38008 11.0684 4.38008 11.149C4.38008 11.2295 4.4113 11.307 4.46719 11.365C4.52307 11.423 4.59927 11.4571 4.67977 11.4601Z" fill="#3AA22B" stroke="#3AA22B" stroke-width="0.15"/>
<path d="M4.67977 13.6263L4.67976 13.6264H4.68256H13.4102V13.6264L13.413 13.6263C13.4935 13.6233 13.5697 13.5892 13.6256 13.5312C13.6815 13.4732 13.7127 13.3958 13.7127 13.3152C13.7127 13.2347 13.6815 13.1573 13.6256 13.0993C13.5697 13.0412 13.4935 13.0072 13.413 13.0042L13.413 13.0041H13.4102H4.68256V13.004L4.67977 13.0042C4.59928 13.0072 4.52308 13.0412 4.46719 13.0993C4.4113 13.1573 4.38008 13.2347 4.38008 13.3152C4.38008 13.3958 4.4113 13.4732 4.46719 13.5312C4.52307 13.5892 4.59927 13.6233 4.67977 13.6263Z" fill="#3AA22B" stroke="#3AA22B" stroke-width="0.15"/>
<path d="M11.2127 15.1702L11.2127 15.1701H11.2099H6.88178V15.1701L6.87898 15.1702C6.79849 15.1732 6.72229 15.2073 6.66641 15.2653C6.61052 15.3233 6.5793 15.4007 6.5793 15.4813C6.5793 15.5618 6.61052 15.6392 6.66641 15.6972C6.72229 15.7552 6.79849 15.7893 6.87898 15.7923L6.87898 15.7924H6.88178H11.2099V15.7925L11.2127 15.7923C11.2932 15.7893 11.3694 15.7552 11.4253 15.6972C11.4812 15.6392 11.5124 15.5618 11.5124 15.4813C11.5124 15.4007 11.4812 15.3233 11.4253 15.2653L11.3713 15.3173L11.4253 15.2653C11.3694 15.2073 11.2932 15.1732 11.2127 15.1702Z" fill="#3AA22B" stroke="#3AA22B" stroke-width="0.15"/>
<path d="M1.59102 1.49605V1.49613L1.59102 18.5039L1.59102 18.5039C1.59147 18.9205 1.75714 19.3198 2.05167 19.6143C2.3462 19.9089 2.74554 20.0745 3.16207 20.075H3.16215H14.9288H14.9289C15.3454 20.0745 15.7448 19.9089 16.0393 19.6143C16.3338 19.3198 16.4995 18.9205 16.4999 18.5039V18.5039V7.41785C17.0999 7.34358 17.6543 7.0567 18.0617 6.60806C18.4844 6.14256 18.7186 5.53631 18.7186 4.90752C18.7186 4.27873 18.4844 3.67248 18.0617 3.20698C17.6543 2.75834 17.0999 2.47146 16.4999 2.39719V1.49613V1.49605C16.4995 1.07952 16.3338 0.680185 16.0393 0.385655C15.7448 0.0911252 15.3454 -0.0745426 14.9289 -0.075H14.9288L3.16215 -0.075L3.16207 -0.075C2.74554 -0.0745426 2.3462 0.0911252 2.05167 0.385655C1.75714 0.680185 1.59147 1.07952 1.59102 1.49605ZM2.21362 1.4541C2.2244 1.21794 2.32296 0.993681 2.49083 0.825805C2.66867 0.647973 2.90976 0.547924 3.16126 0.547601H14.9287C14.9287 0.547601 14.9287 0.547602 14.9288 0.547602C15.1802 0.547936 15.4213 0.647983 15.5991 0.825805C15.777 1.00364 15.877 1.24474 15.8773 1.49623V2.39723C15.2777 2.47187 14.7238 2.7589 14.3167 3.20747C13.8943 3.67288 13.6604 4.27887 13.6604 4.90735C13.6604 5.53584 13.8943 6.14183 14.3167 6.60724C14.7238 7.05581 15.2777 7.34284 15.8773 7.41748V18.5038C15.877 18.7553 15.777 18.9964 15.5991 19.1742C15.4213 19.352 15.1802 19.4521 14.9287 19.4524H3.16224C2.91075 19.4521 2.66965 19.352 2.49182 19.1742C2.31399 18.9964 2.21394 18.7553 2.21362 18.5038L2.21362 1.49613V1.4541ZM16.1906 2.9998C16.5678 3.00011 16.9365 3.11229 17.25 3.32214C17.5636 3.53199 17.8078 3.83009 17.9519 4.17875C18.096 4.52742 18.1335 4.91098 18.0596 5.28094C17.9857 5.6509 17.8038 5.99064 17.5368 6.25721C17.2698 6.52378 16.9298 6.7052 16.5598 6.77853C16.1897 6.85186 15.8062 6.81381 15.4577 6.66919C15.1093 6.52457 14.8116 6.27988 14.6022 5.96605C14.3928 5.65223 14.2812 5.28337 14.2814 4.90611C14.2819 4.40019 14.4833 3.91517 14.8413 3.55769C15.1993 3.20022 15.6846 2.99955 16.1906 2.9998Z" fill="#3AA22B" stroke="#3AA22B" stroke-width="0.15"/>
<path d="M18.0873 4.81394C18.0873 5.84069 17.255 6.78924 16.2282 6.78924C15.2015 6.78924 14.3691 5.84069 14.3691 4.81394C14.3691 3.78718 15.2015 2.95483 16.2282 2.95483C17.255 2.95483 18.0873 3.78718 18.0873 4.81394Z" fill="white"/>
<circle cx="16.1992" cy="5" r="2.6" fill="white" stroke="#3AA22B" stroke-width="0.8"/>
<path d="M16.112 6.32655C16.0398 6.32655 15.9684 6.3095 15.9017 6.27636C15.8351 6.24323 15.7745 6.19466 15.7234 6.13344C15.6724 6.07221 15.6319 5.99952 15.6043 5.91953C15.5767 5.83953 15.5625 5.7538 15.5625 5.66721V5.22754H16.6615V5.66721C16.6615 5.7538 16.6473 5.83953 16.6197 5.91953C16.5921 5.99952 16.5516 6.07221 16.5006 6.13344C16.4495 6.19466 16.389 6.24323 16.3223 6.27636C16.2556 6.3095 16.1842 6.32655 16.112 6.32655Z" fill="#CEE4C3"/>
<path d="M17.1476 5.56791V4.85181H15.1914V5.56791C15.1914 5.69672 15.2167 5.82426 15.2659 5.94327C15.315 6.06227 15.3871 6.17039 15.4779 6.26147C15.5687 6.35255 15.6765 6.4248 15.7952 6.4741C15.9139 6.52339 16.0411 6.54876 16.1695 6.54876C16.298 6.54876 16.4252 6.52339 16.5438 6.4741C16.6625 6.4248 16.7703 6.35255 16.8612 6.26147C16.952 6.17039 17.024 6.06227 17.0732 5.94327C17.1223 5.82426 17.1476 5.69672 17.1476 5.56791ZM15.6572 5.56791V5.31876H16.682V5.56791C16.682 5.63539 16.6687 5.7022 16.643 5.76454C16.6172 5.82687 16.5795 5.88351 16.5319 5.93122C16.4843 5.97893 16.4279 6.01678 16.3657 6.0426C16.3035 6.06842 16.2369 6.08171 16.1696 6.08171C16.1023 6.08171 16.0357 6.06842 15.9735 6.0426C15.9114 6.01678 15.8549 5.97893 15.8073 5.93122C15.7597 5.88351 15.722 5.82687 15.6962 5.76454C15.6705 5.7022 15.6572 5.63539 15.6572 5.56791Z" fill="#51A12C"/>
<path d="M15.4566 4.32243H15.9223C15.9238 4.22537 15.9061 4.12898 15.8701 4.03886C15.8341 3.94875 15.7806 3.86671 15.7127 3.79753C15.6448 3.72836 15.5638 3.67341 15.4746 3.63591C15.3853 3.59841 15.2894 3.5791 15.1926 3.5791C15.0958 3.5791 15 3.59841 14.9107 3.63591C14.8214 3.67341 14.7405 3.72836 14.6726 3.79753C14.6047 3.86671 14.5512 3.94875 14.5152 4.03886C14.4792 4.12898 14.4615 4.22537 14.463 4.32243H14.9286C14.9322 4.25474 14.9615 4.19099 15.0105 4.14434C15.0596 4.09768 15.1246 4.07167 15.1922 4.07167C15.2598 4.07167 15.3248 4.09768 15.3738 4.14434C15.4229 4.19099 15.4522 4.25474 15.4557 4.32243H15.4566Z" fill="#51A12C"/>
<path d="M17.1809 4.05771C17.2509 4.05781 17.318 4.08572 17.3674 4.13533C17.4169 4.18494 17.4447 4.2522 17.4448 4.32236H17.9107C17.9107 4.12828 17.8338 3.94215 17.6969 3.80491C17.5601 3.66767 17.3745 3.59058 17.1809 3.59058C16.9874 3.59058 16.8018 3.66767 16.6649 3.80491C16.5281 3.94215 16.4512 4.12828 16.4512 4.32236H16.9168C16.9169 4.25217 16.9448 4.18488 16.9943 4.13527C17.0438 4.08565 17.1109 4.05776 17.1809 4.05771Z" fill="#51A12C"/>
</g>
<defs>
<clipPath id="clip0_1929_24314">
<rect width="20" height="20" fill="white"/>
</clipPath>
</defs>
</svg>
