<svg width="20" height="24" viewBox="0 0 20 24" fill="none" xmlns="http://www.w3.org/2000/svg">
<path d="M8.19211 1.11987H18.0321V18.6619H4.91211V4.40901L8.19211 1.11987Z" fill="white"/>
<path d="M16.9395 1.11987H18.0328V18.6619H16.9395V1.11987Z" fill="#CEE4C3"/>
<path d="M4.91211 4.40901H8.19211V1.11987L4.91211 4.40901Z" fill="#CEE4C3"/>
<path d="M6.73438 5.87085H16.2104V7.33305H6.73438V5.87085Z" fill="#CEE4C3"/>
<path d="M18.7626 15.7389L18.0338 16.4697L17.3047 15.7389V4.04346H18.7626V15.7389Z" fill="#CEE4C3"/>
<path d="M17.3047 4.04346H18.7626V5.50539H17.3047V4.04346Z" fill="#CEE4C3"/>
<path d="M18.7626 13.9116V15.7391L18.0338 16.4699L17.3047 15.7391V13.9116H18.7626Z" fill="#CEE4C3"/>
<path d="M8.55665 18.6625C8.55665 19.3853 8.3429 20.0919 7.94243 20.6929C7.54197 21.2939 6.97277 21.7624 6.30682 22.039C5.64087 22.3156 4.90807 22.388 4.2011 22.247C3.49413 22.1059 2.84474 21.7579 2.33504 21.2467C1.82534 20.7356 1.47823 20.0844 1.33761 19.3755C1.19698 18.6666 1.26916 17.9317 1.545 17.2639C1.82085 16.5961 2.28798 16.0253 2.88732 15.6237C3.48666 15.2222 4.19129 15.0078 4.91211 15.0078C5.39072 15.0078 5.86464 15.1023 6.30682 15.286C6.74899 15.4697 7.15076 15.7389 7.48919 16.0782C7.82762 16.4176 8.09607 16.8205 8.27923 17.2639C8.46238 17.7073 8.55665 18.1826 8.55665 18.6625Z" fill="#EDF5E9"/>
<path d="M4.9119 15.0078C4.72892 15.0079 4.5462 15.0216 4.36523 15.0487C5.22723 15.18 6.01373 15.6168 6.58207 16.2798C7.15041 16.9428 7.46293 17.7882 7.46293 18.6625C7.46293 19.5368 7.15041 20.3821 6.58207 21.0452C6.01373 21.7082 5.22723 22.145 4.36523 22.2763C4.86134 22.3518 5.36766 22.3239 5.85249 22.1941C6.33731 22.0643 6.7902 21.8356 7.18277 21.5222C7.57535 21.2088 7.89916 20.8174 8.13392 20.3727C8.36868 19.928 8.50933 19.4394 8.54707 18.9376C8.58481 18.4359 8.51882 17.9317 8.35323 17.4567C8.18764 16.9817 7.92603 16.5461 7.58478 16.1772C7.24352 15.8082 6.82998 15.514 6.37004 15.3127C5.91011 15.1115 5.4137 15.0077 4.9119 15.0078Z" fill="#CEE4C3"/>
<path d="M4.91365 20.8553C4.77007 20.8553 4.62789 20.827 4.49524 20.7719C4.3626 20.7168 4.24207 20.636 4.14054 20.5342C4.03902 20.4324 3.95848 20.3115 3.90354 20.1785C3.84859 20.0455 3.82031 19.9029 3.82031 19.7589V19.0278H6.00698V19.7589C6.00698 19.9029 5.9787 20.0455 5.92376 20.1785C5.86881 20.3115 5.78828 20.4324 5.68675 20.5342C5.58523 20.636 5.4647 20.7168 5.33205 20.7719C5.1994 20.827 5.05723 20.8553 4.91365 20.8553Z" fill="#CEE4C3"/>
<path d="M5.23212 4.77456H8.51212V1.48515H17.6692V2.58153H18.3521V0.800049H8.05105L4.54785 4.26728V13.9117H5.23212V4.77456ZM5.73878 4.08945L7.82945 1.94724V4.08918L5.73878 4.08945Z" fill="#51A12C"/>
<path d="M17.6673 18.3432H9.64941V19.0283H18.351V17.5664H17.6673V18.3432Z" fill="#51A12C"/>
<path d="M6.37109 7.69868H15.1178V7.01331H7.0543V6.23783H15.118V5.55005H6.37136L6.37109 7.69868Z" fill="#51A12C"/>
<path d="M6.37109 10.6846H16.2111V11.3699H6.37109V10.6846Z" fill="#CEE4C3"/>
<path d="M9.64941 16.4702H16.9387V17.1553H9.64941V16.4702Z" fill="#51A12C"/>
<path d="M6.37109 8.88989H15.1178V9.57526H6.37109V8.88989Z" fill="#51A12C"/>
<path d="M6.37109 12.479H16.2111V13.1641H6.37109V12.479Z" fill="#CEE4C3"/>
<path d="M18.3513 3.72455V3.31274H17.6678V3.72455H16.939V5.18648H15.8457V9.52734H16.5292V5.87105H16.939V15.881L18.0097 16.9546L19.0804 15.881V3.72455H18.3513ZM17.6225 4.40966H18.3958V5.18515H17.6225V4.40966ZM18.3958 5.87158V13.592H17.6225V5.87105L18.3958 5.87158ZM18.0086 15.9861L17.6214 15.5975V14.2773H18.3948V15.5975L18.0086 15.9861Z" fill="#51A12C"/>
<path d="M7.60372 22.5754C6.80297 23.1407 5.84646 23.4418 4.86719 23.4368V24.1219C5.97134 24.1229 7.04982 23.7879 7.96016 23.1613C8.87049 22.5347 9.56986 21.646 9.96586 20.6124L9.32586 20.3674C8.98532 21.2598 8.38536 22.029 7.60372 22.5754Z" fill="#51A12C"/>
<path d="M8.89956 18.6628C8.89956 17.8722 8.66577 17.0993 8.22773 16.4419C7.7897 15.7845 7.16711 15.2721 6.43869 14.9696C5.71027 14.667 4.90874 14.5879 4.13545 14.7421C3.36217 14.8963 2.65186 15.2771 2.09435 15.8361C1.53684 16.3952 1.15717 17.1075 1.00336 17.8829C0.849541 18.6584 0.928485 19.4621 1.23021 20.1926C1.53193 20.923 2.04287 21.5473 2.69844 21.9866C3.354 22.4258 4.12473 22.6603 4.91316 22.6603C5.97005 22.6591 6.98331 22.2375 7.73065 21.4881C8.47798 20.7387 8.89836 19.7226 8.89956 18.6628ZM1.61023 18.6628C1.61023 18.0077 1.80394 17.3673 2.16687 16.8227C2.5298 16.278 3.04565 15.8535 3.64918 15.6028C4.25272 15.3521 4.91683 15.2865 5.55753 15.4143C6.19824 15.5421 6.78677 15.8575 7.24869 16.3208C7.71061 16.784 8.02519 17.3741 8.15263 18.0166C8.28008 18.6591 8.21467 19.3251 7.96468 19.9303C7.71468 20.5355 7.29134 21.0528 6.74817 21.4167C6.20501 21.7807 5.56642 21.9749 4.91316 21.9749C4.03733 21.9741 3.19759 21.625 2.57821 21.004C1.95883 20.3831 1.61042 19.5411 1.60943 18.6628H1.61023Z" fill="#51A12C"/>
<path d="M6.32424 19.7596V18.709H3.4541V19.7596C3.4541 19.9486 3.49122 20.1357 3.56334 20.3103C3.63546 20.4849 3.74116 20.6436 3.87442 20.7772C4.00768 20.9108 4.16588 21.0168 4.33999 21.0892C4.5141 21.1615 4.70071 21.1987 4.88917 21.1987C5.07762 21.1987 5.26423 21.1615 5.43835 21.0892C5.61246 21.0168 5.77065 20.9108 5.90391 20.7772C6.03717 20.6436 6.14288 20.4849 6.215 20.3103C6.28712 20.1357 6.32424 19.9486 6.32424 19.7596ZM4.13757 19.7596V19.3941H5.64104V19.7596C5.64104 19.8586 5.62159 19.9567 5.58381 20.0481C5.54604 20.1396 5.49066 20.2227 5.42086 20.2927C5.35105 20.3627 5.26818 20.4182 5.17698 20.4561C5.08577 20.494 4.98802 20.5135 4.8893 20.5135C4.79058 20.5135 4.69283 20.494 4.60163 20.4561C4.51042 20.4182 4.42755 20.3627 4.35775 20.2927C4.28794 20.2227 4.23257 20.1396 4.19479 20.0481C4.15701 19.9567 4.13757 19.8586 4.13757 19.7596Z" fill="#51A12C"/>
<path d="M3.84179 17.9319H4.52499C4.52723 17.7895 4.5012 17.6481 4.4484 17.5159C4.39561 17.3836 4.31711 17.2633 4.21748 17.1618C4.11785 17.0603 3.99908 16.9797 3.86808 16.9247C3.73708 16.8696 3.59648 16.8413 3.45446 16.8413C3.31243 16.8413 3.17183 16.8696 3.04083 16.9247C2.90983 16.9797 2.79106 17.0603 2.69143 17.1618C2.5918 17.2633 2.5133 17.3836 2.46051 17.5159C2.40772 17.6481 2.38168 17.7895 2.38392 17.9319H3.06712C3.07233 17.8326 3.11533 17.7391 3.18728 17.6706C3.25922 17.6022 3.35461 17.564 3.45379 17.564C3.55296 17.564 3.64836 17.6022 3.7203 17.6706C3.79224 17.7391 3.83525 17.8326 3.84046 17.9319H3.84179Z" fill="#51A12C"/>
<path d="M6.37145 17.5435C6.4741 17.5437 6.5725 17.5846 6.64508 17.6574C6.71767 17.7302 6.75851 17.8289 6.75865 17.9318H7.44212C7.44212 17.647 7.32931 17.374 7.12852 17.1726C6.92773 16.9713 6.65541 16.8582 6.37145 16.8582C6.08749 16.8582 5.81516 16.9713 5.61437 17.1726C5.41358 17.374 5.30078 17.647 5.30078 17.9318H5.98398C5.98412 17.8288 6.025 17.7301 6.09764 17.6573C6.17028 17.5845 6.26875 17.5436 6.37145 17.5435Z" fill="#51A12C"/>
</svg>
